<svg width="429" height="71" viewBox="0 0 429 71" fill="none" xmlns="http://www.w3.org/2000/svg">
<rect width="161" height="71" rx="4" fill="#E2FFDD"/>
<rect x="238" width="191" height="71" rx="4" fill="#FFEBEB"/>
<path d="M75.688 23.112C75.688 24.04 75.368 24.8133 74.728 25.432C74.0987 26.04 73.1333 26.344 71.832 26.344H69.688V31H68.232V19.848H71.832C73.0907 19.848 74.0453 20.152 74.696 20.76C75.3573 21.368 75.688 22.152 75.688 23.112ZM71.832 25.144C72.6427 25.144 73.24 24.968 73.624 24.616C74.008 24.264 74.2 23.7627 74.2 23.112C74.2 21.736 73.4107 21.048 71.832 21.048H69.688V25.144H71.832ZM78.9536 23.656C79.2096 23.1547 79.5723 22.7653 80.0416 22.488C80.5216 22.2107 81.103 22.072 81.7856 22.072V23.576H81.4016C79.7696 23.576 78.9536 24.4613 78.9536 26.232V31H77.4976V22.232H78.9536V23.656ZM87.2904 31.144C86.469 31.144 85.7224 30.9573 85.0504 30.584C84.389 30.2107 83.8664 29.6827 83.4824 29C83.109 28.3067 82.9224 27.5067 82.9224 26.6C82.9224 25.704 83.1144 24.9147 83.4984 24.232C83.893 23.5387 84.4264 23.0107 85.0984 22.648C85.7704 22.2747 86.5224 22.088 87.3544 22.088C88.1864 22.088 88.9384 22.2747 89.6104 22.648C90.2824 23.0107 90.8104 23.5333 91.1944 24.216C91.589 24.8987 91.7864 25.6933 91.7864 26.6C91.7864 27.5067 91.5837 28.3067 91.1784 29C90.7837 29.6827 90.245 30.2107 89.5624 30.584C88.8797 30.9573 88.1224 31.144 87.2904 31.144ZM87.2904 29.864C87.813 29.864 88.3037 29.7413 88.7624 29.496C89.221 29.2507 89.589 28.8827 89.8664 28.392C90.1544 27.9013 90.2984 27.304 90.2984 26.6C90.2984 25.896 90.1597 25.2987 89.8824 24.808C89.605 24.3173 89.2424 23.9547 88.7944 23.72C88.3464 23.4747 87.861 23.352 87.3384 23.352C86.805 23.352 86.3144 23.4747 85.8664 23.72C85.429 23.9547 85.077 24.3173 84.8104 24.808C84.5437 25.2987 84.4104 25.896 84.4104 26.6C84.4104 27.3147 84.5384 27.9173 84.7944 28.408C85.061 28.8987 85.413 29.2667 85.8504 29.512C86.2877 29.7467 86.7677 29.864 87.2904 29.864ZM96.9648 29.656L99.6848 22.232H101.237L97.7968 31H96.1008L92.6608 22.232H94.2288L96.9648 29.656ZM103.422 20.808C103.144 20.808 102.91 20.712 102.718 20.52C102.526 20.328 102.43 20.0933 102.43 19.816C102.43 19.5387 102.526 19.304 102.718 19.112C102.91 18.92 103.144 18.824 103.422 18.824C103.688 18.824 103.912 18.92 104.094 19.112C104.286 19.304 104.382 19.5387 104.382 19.816C104.382 20.0933 104.286 20.328 104.094 20.52C103.912 20.712 103.688 20.808 103.422 20.808ZM104.126 22.232V31H102.67V22.232H104.126ZM106.063 26.584C106.063 25.688 106.244 24.904 106.607 24.232C106.97 23.5493 107.466 23.0213 108.095 22.648C108.735 22.2747 109.45 22.088 110.239 22.088C110.922 22.088 111.556 22.248 112.143 22.568C112.73 22.8773 113.178 23.288 113.487 23.8V19.16H114.959V31H113.487V29.352C113.199 29.8747 112.772 30.3067 112.207 30.648C111.642 30.9787 110.98 31.144 110.223 31.144C109.444 31.144 108.735 30.952 108.095 30.568C107.466 30.184 106.97 29.6453 106.607 28.952C106.244 28.2587 106.063 27.4693 106.063 26.584ZM113.487 26.6C113.487 25.9387 113.354 25.3627 113.087 24.872C112.82 24.3813 112.458 24.008 111.999 23.752C111.551 23.4853 111.055 23.352 110.511 23.352C109.967 23.352 109.471 23.48 109.023 23.736C108.575 23.992 108.218 24.3653 107.951 24.856C107.684 25.3467 107.551 25.9227 107.551 26.584C107.551 27.256 107.684 27.8427 107.951 28.344C108.218 28.8347 108.575 29.2133 109.023 29.48C109.471 29.736 109.967 29.864 110.511 29.864C111.055 29.864 111.551 29.736 111.999 29.48C112.458 29.2133 112.82 28.8347 113.087 28.344C113.354 27.8427 113.487 27.2613 113.487 26.6ZM125.42 26.28C125.42 26.5573 125.404 26.8507 125.372 27.16H118.364C118.417 28.024 118.71 28.7013 119.244 29.192C119.788 29.672 120.444 29.912 121.212 29.912C121.841 29.912 122.364 29.768 122.78 29.48C123.206 29.1813 123.505 28.7867 123.676 28.296H125.244C125.009 29.1387 124.54 29.8267 123.836 30.36C123.132 30.8827 122.257 31.144 121.212 31.144C120.38 31.144 119.633 30.9573 118.972 30.584C118.321 30.2107 117.809 29.6827 117.436 29C117.062 28.3067 116.876 27.5067 116.876 26.6C116.876 25.6933 117.057 24.8987 117.42 24.216C117.782 23.5333 118.289 23.0107 118.94 22.648C119.601 22.2747 120.358 22.088 121.212 22.088C122.044 22.088 122.78 22.2693 123.42 22.632C124.06 22.9947 124.55 23.496 124.892 24.136C125.244 24.7653 125.42 25.48 125.42 26.28ZM123.916 25.976C123.916 25.4213 123.793 24.9467 123.548 24.552C123.302 24.1467 122.966 23.8427 122.54 23.64C122.124 23.4267 121.66 23.32 121.148 23.32C120.412 23.32 119.782 23.5547 119.26 24.024C118.748 24.4933 118.454 25.144 118.38 25.976H123.916ZM131.063 26.584C131.063 25.688 131.244 24.904 131.607 24.232C131.97 23.5493 132.466 23.0213 133.095 22.648C133.735 22.2747 134.444 22.088 135.223 22.088C135.991 22.088 136.658 22.2533 137.223 22.584C137.788 22.9147 138.21 23.3307 138.487 23.832V22.232H139.959V31H138.487V29.368C138.199 29.88 137.767 30.3067 137.191 30.648C136.626 30.9787 135.964 31.144 135.207 31.144C134.428 31.144 133.724 30.952 133.095 30.568C132.466 30.184 131.97 29.6453 131.607 28.952C131.244 28.2587 131.063 27.4693 131.063 26.584ZM138.487 26.6C138.487 25.9387 138.354 25.3627 138.087 24.872C137.82 24.3813 137.458 24.008 136.999 23.752C136.551 23.4853 136.055 23.352 135.511 23.352C134.967 23.352 134.471 23.48 134.023 23.736C133.575 23.992 133.218 24.3653 132.951 24.856C132.684 25.3467 132.551 25.9227 132.551 26.584C132.551 27.256 132.684 27.8427 132.951 28.344C133.218 28.8347 133.575 29.2133 134.023 29.48C134.471 29.736 134.967 29.864 135.511 29.864C136.055 29.864 136.551 29.736 136.999 29.48C137.458 29.2133 137.82 28.8347 138.087 28.344C138.354 27.8427 138.487 27.2613 138.487 26.6ZM75.688 46.112C75.688 47.04 75.368 47.8133 74.728 48.432C74.0987 49.04 73.1333 49.344 71.832 49.344H69.688V54H68.232V42.848H71.832C73.0907 42.848 74.0453 43.152 74.696 43.76C75.3573 44.368 75.688 45.152 75.688 46.112ZM71.832 48.144C72.6427 48.144 73.24 47.968 73.624 47.616C74.008 47.264 74.2 46.7627 74.2 46.112C74.2 44.736 73.4107 44.048 71.832 44.048H69.688V48.144H71.832ZM78.9536 42.16V54H77.4976V42.16H78.9536ZM80.8911 49.584C80.8911 48.688 81.0725 47.904 81.4351 47.232C81.7978 46.5493 82.2938 46.0213 82.9231 45.648C83.5631 45.2747 84.2725 45.088 85.0511 45.088C85.8191 45.088 86.4858 45.2533 87.0511 45.584C87.6165 45.9147 88.0378 46.3307 88.3151 46.832V45.232H89.7871V54H88.3151V52.368C88.0271 52.88 87.5951 53.3067 87.0191 53.648C86.4538 53.9787 85.7925 54.144 85.0351 54.144C84.2565 54.144 83.5525 53.952 82.9231 53.568C82.2938 53.184 81.7978 52.6453 81.4351 51.952C81.0725 51.2587 80.8911 50.4693 80.8911 49.584ZM88.3151 49.6C88.3151 48.9387 88.1818 48.3627 87.9151 47.872C87.6485 47.3813 87.2858 47.008 86.8271 46.752C86.3791 46.4853 85.8831 46.352 85.3391 46.352C84.7951 46.352 84.2991 46.48 83.8511 46.736C83.4031 46.992 83.0458 47.3653 82.7791 47.856C82.5125 48.3467 82.3791 48.9227 82.3791 49.584C82.3791 50.256 82.5125 50.8427 82.7791 51.344C83.0458 51.8347 83.4031 52.2133 83.8511 52.48C84.2991 52.736 84.7951 52.864 85.3391 52.864C85.8831 52.864 86.3791 52.736 86.8271 52.48C87.2858 52.2133 87.6485 51.8347 87.9151 51.344C88.1818 50.8427 88.3151 50.2613 88.3151 49.6ZM94.0236 46.432V51.6C94.0236 52.0267 94.1143 52.3307 94.2956 52.512C94.477 52.6827 94.7916 52.768 95.2396 52.768H96.3116V54H94.9996C94.189 54 93.581 53.8133 93.1756 53.44C92.7703 53.0667 92.5676 52.4533 92.5676 51.6V46.432H91.4316V45.232H92.5676V43.024H94.0236V45.232H96.3116V46.432H94.0236ZM101.644 46.432H99.8038V54H98.3478V46.432H97.2118V45.232H98.3478V44.608C98.3478 43.6267 98.5984 42.912 99.0998 42.464C99.6118 42.0053 100.428 41.776 101.548 41.776V42.992C100.908 42.992 100.454 43.12 100.188 43.376C99.9318 43.6213 99.8038 44.032 99.8038 44.608V45.232H101.644V46.432ZM107.165 54.144C106.344 54.144 105.597 53.9573 104.925 53.584C104.264 53.2107 103.741 52.6827 103.357 52C102.984 51.3067 102.797 50.5067 102.797 49.6C102.797 48.704 102.989 47.9147 103.373 47.232C103.768 46.5387 104.301 46.0107 104.973 45.648C105.645 45.2747 106.397 45.088 107.229 45.088C108.061 45.088 108.813 45.2747 109.485 45.648C110.157 46.0107 110.685 46.5333 111.069 47.216C111.464 47.8987 111.661 48.6933 111.661 49.6C111.661 50.5067 111.459 51.3067 111.053 52C110.659 52.6827 110.12 53.2107 109.437 53.584C108.755 53.9573 107.997 54.144 107.165 54.144ZM107.165 52.864C107.688 52.864 108.179 52.7413 108.637 52.496C109.096 52.2507 109.464 51.8827 109.741 51.392C110.029 50.9013 110.173 50.304 110.173 49.6C110.173 48.896 110.035 48.2987 109.757 47.808C109.48 47.3173 109.117 46.9547 108.669 46.72C108.221 46.4747 107.736 46.352 107.213 46.352C106.68 46.352 106.189 46.4747 105.741 46.72C105.304 46.9547 104.952 47.3173 104.685 47.808C104.419 48.2987 104.285 48.896 104.285 49.6C104.285 50.3147 104.413 50.9173 104.669 51.408C104.936 51.8987 105.288 52.2667 105.725 52.512C106.163 52.7467 106.643 52.864 107.165 52.864ZM115.032 46.656C115.288 46.1547 115.65 45.7653 116.12 45.488C116.6 45.2107 117.181 45.072 117.864 45.072V46.576H117.48C115.848 46.576 115.032 47.4613 115.032 49.232V54H113.576V45.232H115.032V46.656ZM130.089 45.072C130.771 45.072 131.379 45.216 131.913 45.504C132.446 45.7813 132.867 46.2027 133.177 46.768C133.486 47.3333 133.641 48.0213 133.641 48.832V54H132.201V49.04C132.201 48.1653 131.982 47.4987 131.545 47.04C131.118 46.5707 130.537 46.336 129.801 46.336C129.043 46.336 128.441 46.5813 127.993 47.072C127.545 47.552 127.321 48.2507 127.321 49.168V54H125.881V49.04C125.881 48.1653 125.662 47.4987 125.225 47.04C124.798 46.5707 124.217 46.336 123.481 46.336C122.723 46.336 122.121 46.5813 121.673 47.072C121.225 47.552 121.001 48.2507 121.001 49.168V54H119.545V45.232H121.001V46.496C121.289 46.0373 121.673 45.6853 122.153 45.44C122.643 45.1947 123.182 45.072 123.769 45.072C124.505 45.072 125.155 45.2373 125.721 45.568C126.286 45.8987 126.707 46.384 126.985 47.024C127.23 46.4053 127.635 45.9253 128.201 45.584C128.766 45.2427 129.395 45.072 130.089 45.072Z" fill="#012B55"/>
<path d="M316.544 19.928V31H315.088V22.744L311.408 31H310.384L306.688 22.728V31H305.232V19.928H306.8L310.896 29.08L314.992 19.928H316.544ZM318.469 26.584C318.469 25.688 318.651 24.904 319.013 24.232C319.376 23.5493 319.872 23.0213 320.501 22.648C321.141 22.2747 321.851 22.088 322.629 22.088C323.397 22.088 324.064 22.2533 324.629 22.584C325.195 22.9147 325.616 23.3307 325.893 23.832V22.232H327.365V31H325.893V29.368C325.605 29.88 325.173 30.3067 324.597 30.648C324.032 30.9787 323.371 31.144 322.613 31.144C321.835 31.144 321.131 30.952 320.501 30.568C319.872 30.184 319.376 29.6453 319.013 28.952C318.651 28.2587 318.469 27.4693 318.469 26.584ZM325.893 26.6C325.893 25.9387 325.76 25.3627 325.493 24.872C325.227 24.3813 324.864 24.008 324.405 23.752C323.957 23.4853 323.461 23.352 322.917 23.352C322.373 23.352 321.877 23.48 321.429 23.736C320.981 23.992 320.624 24.3653 320.357 24.856C320.091 25.3467 319.957 25.9227 319.957 26.584C319.957 27.256 320.091 27.8427 320.357 28.344C320.624 28.8347 320.981 29.2133 321.429 29.48C321.877 29.736 322.373 29.864 322.917 29.864C323.461 29.864 323.957 29.736 324.405 29.48C324.864 29.2133 325.227 28.8347 325.493 28.344C325.76 27.8427 325.893 27.2613 325.893 26.6ZM334.722 31L331.282 27.128V31H329.826V19.16H331.282V26.12L334.658 22.232H336.69L332.562 26.6L336.706 31H334.722ZM346.06 26.28C346.06 26.5573 346.044 26.8507 346.012 27.16H339.004C339.057 28.024 339.351 28.7013 339.884 29.192C340.428 29.672 341.084 29.912 341.852 29.912C342.481 29.912 343.004 29.768 343.42 29.48C343.847 29.1813 344.145 28.7867 344.316 28.296H345.884C345.649 29.1387 345.18 29.8267 344.476 30.36C343.772 30.8827 342.897 31.144 341.852 31.144C341.02 31.144 340.273 30.9573 339.612 30.584C338.961 30.2107 338.449 29.6827 338.076 29C337.703 28.3067 337.516 27.5067 337.516 26.6C337.516 25.6933 337.697 24.8987 338.06 24.216C338.423 23.5333 338.929 23.0107 339.58 22.648C340.241 22.2747 340.999 22.088 341.852 22.088C342.684 22.088 343.42 22.2693 344.06 22.632C344.7 22.9947 345.191 23.496 345.532 24.136C345.884 24.7653 346.06 25.48 346.06 26.28ZM344.556 25.976C344.556 25.4213 344.433 24.9467 344.188 24.552C343.943 24.1467 343.607 23.8427 343.18 23.64C342.764 23.4267 342.3 23.32 341.788 23.32C341.052 23.32 340.423 23.5547 339.9 24.024C339.388 24.4933 339.095 25.144 339.02 25.976H344.556ZM308.336 54.144C307.664 54.144 307.061 54.032 306.528 53.808C305.995 53.5733 305.573 53.2533 305.264 52.848C304.955 52.432 304.784 51.9573 304.752 51.424H306.256C306.299 51.8613 306.501 52.2187 306.864 52.496C307.237 52.7733 307.723 52.912 308.32 52.912C308.875 52.912 309.312 52.7893 309.632 52.544C309.952 52.2987 310.112 51.9893 310.112 51.616C310.112 51.232 309.941 50.9493 309.6 50.768C309.259 50.576 308.731 50.3893 308.016 50.208C307.365 50.0373 306.832 49.8667 306.416 49.696C306.011 49.5147 305.659 49.2533 305.36 48.912C305.072 48.56 304.928 48.1013 304.928 47.536C304.928 47.088 305.061 46.6773 305.328 46.304C305.595 45.9307 305.973 45.6373 306.464 45.424C306.955 45.2 307.515 45.088 308.144 45.088C309.115 45.088 309.899 45.3333 310.496 45.824C311.093 46.3147 311.413 46.9867 311.456 47.84H310C309.968 47.3813 309.781 47.0133 309.44 46.736C309.109 46.4587 308.661 46.32 308.096 46.32C307.573 46.32 307.157 46.432 306.848 46.656C306.539 46.88 306.384 47.1733 306.384 47.536C306.384 47.824 306.475 48.064 306.656 48.256C306.848 48.4373 307.083 48.5867 307.36 48.704C307.648 48.8107 308.043 48.9333 308.544 49.072C309.173 49.2427 309.685 49.4133 310.08 49.584C310.475 49.744 310.811 49.9893 311.088 50.32C311.376 50.6507 311.525 51.0827 311.536 51.616C311.536 52.096 311.403 52.528 311.136 52.912C310.869 53.296 310.491 53.6 310 53.824C309.52 54.0373 308.965 54.144 308.336 54.144ZM317.415 54.144C316.594 54.144 315.847 53.9573 315.175 53.584C314.514 53.2107 313.991 52.6827 313.607 52C313.234 51.3067 313.047 50.5067 313.047 49.6C313.047 48.704 313.239 47.9147 313.623 47.232C314.018 46.5387 314.551 46.0107 315.223 45.648C315.895 45.2747 316.647 45.088 317.479 45.088C318.311 45.088 319.063 45.2747 319.735 45.648C320.407 46.0107 320.935 46.5333 321.319 47.216C321.714 47.8987 321.911 48.6933 321.911 49.6C321.911 50.5067 321.709 51.3067 321.303 52C320.909 52.6827 320.37 53.2107 319.687 53.584C319.005 53.9573 318.247 54.144 317.415 54.144ZM317.415 52.864C317.938 52.864 318.429 52.7413 318.887 52.496C319.346 52.2507 319.714 51.8827 319.991 51.392C320.279 50.9013 320.423 50.304 320.423 49.6C320.423 48.896 320.285 48.2987 320.007 47.808C319.73 47.3173 319.367 46.9547 318.919 46.72C318.471 46.4747 317.986 46.352 317.463 46.352C316.93 46.352 316.439 46.4747 315.991 46.72C315.554 46.9547 315.202 47.3173 314.935 47.808C314.669 48.2987 314.535 48.896 314.535 49.6C314.535 50.3147 314.663 50.9173 314.919 51.408C315.186 51.8987 315.538 52.2667 315.975 52.512C316.413 52.7467 316.893 52.864 317.415 52.864ZM323.282 49.6C323.282 48.6933 323.463 47.904 323.826 47.232C324.188 46.5493 324.69 46.0213 325.33 45.648C325.98 45.2747 326.722 45.088 327.554 45.088C328.631 45.088 329.516 45.3493 330.21 45.872C330.914 46.3947 331.378 47.12 331.602 48.048H330.034C329.884 47.5147 329.591 47.0933 329.154 46.784C328.727 46.4747 328.194 46.32 327.554 46.32C326.722 46.32 326.05 46.608 325.538 47.184C325.026 47.7493 324.77 48.5547 324.77 49.6C324.77 50.656 325.026 51.472 325.538 52.048C326.05 52.624 326.722 52.912 327.554 52.912C328.194 52.912 328.727 52.7627 329.154 52.464C329.58 52.1653 329.874 51.7387 330.034 51.184H331.602C331.367 52.08 330.898 52.8 330.194 53.344C329.49 53.8773 328.61 54.144 327.554 54.144C326.722 54.144 325.98 53.9573 325.33 53.584C324.69 53.2107 324.188 52.6827 323.826 52C323.463 51.3173 323.282 50.5173 323.282 49.6ZM334.297 43.808C334.019 43.808 333.785 43.712 333.593 43.52C333.401 43.328 333.305 43.0933 333.305 42.816C333.305 42.5387 333.401 42.304 333.593 42.112C333.785 41.92 334.019 41.824 334.297 41.824C334.563 41.824 334.787 41.92 334.969 42.112C335.161 42.304 335.257 42.5387 335.257 42.816C335.257 43.0933 335.161 43.328 334.969 43.52C334.787 43.712 334.563 43.808 334.297 43.808ZM335.001 45.232V54H333.545V45.232H335.001ZM336.938 49.584C336.938 48.688 337.119 47.904 337.482 47.232C337.845 46.5493 338.341 46.0213 338.97 45.648C339.61 45.2747 340.319 45.088 341.098 45.088C341.866 45.088 342.533 45.2533 343.098 45.584C343.663 45.9147 344.085 46.3307 344.362 46.832V45.232H345.834V54H344.362V52.368C344.074 52.88 343.642 53.3067 343.066 53.648C342.501 53.9787 341.839 54.144 341.082 54.144C340.303 54.144 339.599 53.952 338.97 53.568C338.341 53.184 337.845 52.6453 337.482 51.952C337.119 51.2587 336.938 50.4693 336.938 49.584ZM344.362 49.6C344.362 48.9387 344.229 48.3627 343.962 47.872C343.695 47.3813 343.333 47.008 342.874 46.752C342.426 46.4853 341.93 46.352 341.386 46.352C340.842 46.352 340.346 46.48 339.898 46.736C339.45 46.992 339.093 47.3653 338.826 47.856C338.559 48.3467 338.426 48.9227 338.426 49.584C338.426 50.256 338.559 50.8427 338.826 51.344C339.093 51.8347 339.45 52.2133 339.898 52.48C340.346 52.736 340.842 52.864 341.386 52.864C341.93 52.864 342.426 52.736 342.874 52.48C343.333 52.2133 343.695 51.8347 343.962 51.344C344.229 50.8427 344.362 50.2613 344.362 49.6ZM349.751 42.16V54H348.295V42.16H349.751ZM352.984 43.808C352.707 43.808 352.472 43.712 352.28 43.52C352.088 43.328 351.992 43.0933 351.992 42.816C351.992 42.5387 352.088 42.304 352.28 42.112C352.472 41.92 352.707 41.824 352.984 41.824C353.251 41.824 353.475 41.92 353.656 42.112C353.848 42.304 353.944 42.5387 353.944 42.816C353.944 43.0933 353.848 43.328 353.656 43.52C353.475 43.712 353.251 43.808 352.984 43.808ZM353.688 45.232V54H352.232V45.232H353.688ZM357.258 52.8H361.562V54H355.594V52.8L359.85 46.416H355.626V45.232H361.53V46.416L357.258 52.8ZM364.203 43.808C363.925 43.808 363.691 43.712 363.499 43.52C363.307 43.328 363.211 43.0933 363.211 42.816C363.211 42.5387 363.307 42.304 363.499 42.112C363.691 41.92 363.925 41.824 364.203 41.824C364.469 41.824 364.693 41.92 364.875 42.112C365.067 42.304 365.163 42.5387 365.163 42.816C365.163 43.0933 365.067 43.328 364.875 43.52C364.693 43.712 364.469 43.808 364.203 43.808ZM364.907 45.232V54H363.451V45.232H364.907ZM371.66 45.072C372.727 45.072 373.591 45.3973 374.252 46.048C374.914 46.688 375.244 47.616 375.244 48.832V54H373.804V49.04C373.804 48.1653 373.586 47.4987 373.148 47.04C372.711 46.5707 372.114 46.336 371.356 46.336C370.588 46.336 369.975 46.576 369.516 47.056C369.068 47.536 368.844 48.2347 368.844 49.152V54H367.388V45.232H368.844V46.48C369.132 46.032 369.522 45.6853 370.012 45.44C370.514 45.1947 371.063 45.072 371.66 45.072ZM381.239 45.088C381.996 45.088 382.657 45.2533 383.223 45.584C383.799 45.9147 384.225 46.3307 384.503 46.832V45.232H385.975V54.192C385.975 54.992 385.804 55.7013 385.463 56.32C385.121 56.9493 384.631 57.44 383.991 57.792C383.361 58.144 382.625 58.32 381.783 58.32C380.631 58.32 379.671 58.048 378.903 57.504C378.135 56.96 377.681 56.2187 377.543 55.28H378.983C379.143 55.8133 379.473 56.24 379.975 56.56C380.476 56.8907 381.079 57.056 381.783 57.056C382.583 57.056 383.233 56.8053 383.735 56.304C384.247 55.8027 384.503 55.0987 384.503 54.192V52.352C384.215 52.864 383.788 53.2907 383.223 53.632C382.657 53.9733 381.996 54.144 381.239 54.144C380.46 54.144 379.751 53.952 379.111 53.568C378.481 53.184 377.985 52.6453 377.623 51.952C377.26 51.2587 377.079 50.4693 377.079 49.584C377.079 48.688 377.26 47.904 377.623 47.232C377.985 46.5493 378.481 46.0213 379.111 45.648C379.751 45.2747 380.46 45.088 381.239 45.088ZM384.503 49.6C384.503 48.9387 384.369 48.3627 384.103 47.872C383.836 47.3813 383.473 47.008 383.015 46.752C382.567 46.4853 382.071 46.352 381.527 46.352C380.983 46.352 380.487 46.48 380.039 46.736C379.591 46.992 379.233 47.3653 378.967 47.856C378.7 48.3467 378.567 48.9227 378.567 49.584C378.567 50.256 378.7 50.8427 378.967 51.344C379.233 51.8347 379.591 52.2133 380.039 52.48C380.487 52.736 380.983 52.864 381.527 52.864C382.071 52.864 382.567 52.736 383.015 52.48C383.473 52.2133 383.836 51.8347 384.103 51.344C384.369 50.8427 384.503 50.2613 384.503 49.6ZM396.269 46.432H394.429V54H392.973V46.432H391.837V45.232H392.973V44.608C392.973 43.6267 393.223 42.912 393.725 42.464C394.237 42.0053 395.053 41.776 396.173 41.776V42.992C395.533 42.992 395.079 43.12 394.813 43.376C394.557 43.6213 394.429 44.032 394.429 44.608V45.232H396.269V46.432ZM405.742 45.232V54H404.286V52.704C404.009 53.152 403.62 53.504 403.118 53.76C402.628 54.0053 402.084 54.128 401.486 54.128C400.804 54.128 400.19 53.9893 399.646 53.712C399.102 53.424 398.67 52.9973 398.35 52.432C398.041 51.8667 397.886 51.1787 397.886 50.368V45.232H399.326V50.176C399.326 51.04 399.545 51.7067 399.982 52.176C400.42 52.6347 401.017 52.864 401.774 52.864C402.553 52.864 403.166 52.624 403.614 52.144C404.062 51.664 404.286 50.9653 404.286 50.048V45.232H405.742ZM412.473 45.072C413.539 45.072 414.403 45.3973 415.065 46.048C415.726 46.688 416.057 47.616 416.057 48.832V54H414.617V49.04C414.617 48.1653 414.398 47.4987 413.961 47.04C413.523 46.5707 412.926 46.336 412.169 46.336C411.401 46.336 410.787 46.576 410.329 47.056C409.881 47.536 409.657 48.2347 409.657 49.152V54H408.201V45.232H409.657V46.48C409.945 46.032 410.334 45.6853 410.825 45.44C411.326 45.1947 411.875 45.072 412.473 45.072Z" fill="#012B55"/>
<mask id="path-5-inside-1_1084_582" fill="white">
<rect x="18" y="23" width="27" height="27" rx="2"/>
</mask>
<rect x="18" y="23" width="27" height="27" rx="2" fill="white" stroke="#999898" stroke-width="6" mask="url(#path-5-inside-1_1084_582)"/>
<mask id="path-6-inside-2_1084_582" fill="white">
<rect x="255" y="23" width="27" height="27" rx="2"/>
</mask>
<rect x="255" y="23" width="27" height="27" rx="2" fill="white" stroke="#999898" stroke-width="6" mask="url(#path-6-inside-2_1084_582)"/>
<path d="M26 37.4L29.3125 41L37 32" stroke="#999898" stroke-width="3" stroke-linecap="round"/>
<path d="M263 37.4L266.313 41L274 32" stroke="#999898" stroke-width="3" stroke-linecap="round"/>
</svg>
