<svg width="877" height="71" viewBox="0 0 877 71" fill="none" xmlns="http://www.w3.org/2000/svg">
<rect width="161" height="71" rx="4" fill="#FFF8E6"/>
<rect x="212" width="161" height="71" rx="4" fill="#E2FFDD"/>
<rect x="424" width="191" height="71" rx="4" fill="#FFEBEB"/>
<rect x="666" width="211" height="71" rx="4" fill="#E6FDFF"/>
<path d="M76.688 23.112C76.688 24.04 76.368 24.8133 75.728 25.432C75.0987 26.04 74.1333 26.344 72.832 26.344H70.688V31H69.232V19.848H72.832C74.0907 19.848 75.0453 20.152 75.696 20.76C76.3573 21.368 76.688 22.152 76.688 23.112ZM72.832 25.144C73.6427 25.144 74.24 24.968 74.624 24.616C75.008 24.264 75.2 23.7627 75.2 23.112C75.2 21.736 74.4107 21.048 72.832 21.048H70.688V25.144H72.832ZM79.9536 23.656C80.2096 23.1547 80.5723 22.7653 81.0416 22.488C81.5216 22.2107 82.103 22.072 82.7856 22.072V23.576H82.4016C80.7696 23.576 79.9536 24.4613 79.9536 26.232V31H78.4976V22.232H79.9536V23.656ZM88.2904 31.144C87.469 31.144 86.7224 30.9573 86.0504 30.584C85.389 30.2107 84.8664 29.6827 84.4824 29C84.109 28.3067 83.9224 27.5067 83.9224 26.6C83.9224 25.704 84.1144 24.9147 84.4984 24.232C84.893 23.5387 85.4264 23.0107 86.0984 22.648C86.7704 22.2747 87.5224 22.088 88.3544 22.088C89.1864 22.088 89.9384 22.2747 90.6104 22.648C91.2824 23.0107 91.8104 23.5333 92.1944 24.216C92.589 24.8987 92.7864 25.6933 92.7864 26.6C92.7864 27.5067 92.5837 28.3067 92.1784 29C91.7837 29.6827 91.245 30.2107 90.5624 30.584C89.8797 30.9573 89.1224 31.144 88.2904 31.144ZM88.2904 29.864C88.813 29.864 89.3037 29.7413 89.7624 29.496C90.221 29.2507 90.589 28.8827 90.8664 28.392C91.1544 27.9013 91.2984 27.304 91.2984 26.6C91.2984 25.896 91.1597 25.2987 90.8824 24.808C90.605 24.3173 90.2424 23.9547 89.7944 23.72C89.3464 23.4747 88.861 23.352 88.3384 23.352C87.805 23.352 87.3144 23.4747 86.8664 23.72C86.429 23.9547 86.077 24.3173 85.8104 24.808C85.5437 25.2987 85.4104 25.896 85.4104 26.6C85.4104 27.3147 85.5384 27.9173 85.7944 28.408C86.061 28.8987 86.413 29.2667 86.8504 29.512C87.2877 29.7467 87.7677 29.864 88.2904 29.864ZM97.9648 29.656L100.685 22.232H102.237L98.7968 31H97.1008L93.6608 22.232H95.2288L97.9648 29.656ZM104.422 20.808C104.144 20.808 103.91 20.712 103.718 20.52C103.526 20.328 103.43 20.0933 103.43 19.816C103.43 19.5387 103.526 19.304 103.718 19.112C103.91 18.92 104.144 18.824 104.422 18.824C104.688 18.824 104.912 18.92 105.094 19.112C105.286 19.304 105.382 19.5387 105.382 19.816C105.382 20.0933 105.286 20.328 105.094 20.52C104.912 20.712 104.688 20.808 104.422 20.808ZM105.126 22.232V31H103.67V22.232H105.126ZM107.063 26.584C107.063 25.688 107.244 24.904 107.607 24.232C107.97 23.5493 108.466 23.0213 109.095 22.648C109.735 22.2747 110.45 22.088 111.239 22.088C111.922 22.088 112.556 22.248 113.143 22.568C113.73 22.8773 114.178 23.288 114.487 23.8V19.16H115.959V31H114.487V29.352C114.199 29.8747 113.772 30.3067 113.207 30.648C112.642 30.9787 111.98 31.144 111.223 31.144C110.444 31.144 109.735 30.952 109.095 30.568C108.466 30.184 107.97 29.6453 107.607 28.952C107.244 28.2587 107.063 27.4693 107.063 26.584ZM114.487 26.6C114.487 25.9387 114.354 25.3627 114.087 24.872C113.82 24.3813 113.458 24.008 112.999 23.752C112.551 23.4853 112.055 23.352 111.511 23.352C110.967 23.352 110.471 23.48 110.023 23.736C109.575 23.992 109.218 24.3653 108.951 24.856C108.684 25.3467 108.551 25.9227 108.551 26.584C108.551 27.256 108.684 27.8427 108.951 28.344C109.218 28.8347 109.575 29.2133 110.023 29.48C110.471 29.736 110.967 29.864 111.511 29.864C112.055 29.864 112.551 29.736 112.999 29.48C113.458 29.2133 113.82 28.8347 114.087 28.344C114.354 27.8427 114.487 27.2613 114.487 26.6ZM126.42 26.28C126.42 26.5573 126.404 26.8507 126.372 27.16H119.364C119.417 28.024 119.71 28.7013 120.244 29.192C120.788 29.672 121.444 29.912 122.212 29.912C122.841 29.912 123.364 29.768 123.78 29.48C124.206 29.1813 124.505 28.7867 124.676 28.296H126.244C126.009 29.1387 125.54 29.8267 124.836 30.36C124.132 30.8827 123.257 31.144 122.212 31.144C121.38 31.144 120.633 30.9573 119.972 30.584C119.321 30.2107 118.809 29.6827 118.436 29C118.062 28.3067 117.876 27.5067 117.876 26.6C117.876 25.6933 118.057 24.8987 118.42 24.216C118.782 23.5333 119.289 23.0107 119.94 22.648C120.601 22.2747 121.358 22.088 122.212 22.088C123.044 22.088 123.78 22.2693 124.42 22.632C125.06 22.9947 125.55 23.496 125.892 24.136C126.244 24.7653 126.42 25.48 126.42 26.28ZM124.916 25.976C124.916 25.4213 124.793 24.9467 124.548 24.552C124.302 24.1467 123.966 23.8427 123.54 23.64C123.124 23.4267 122.66 23.32 122.148 23.32C121.412 23.32 120.782 23.5547 120.26 24.024C119.748 24.4933 119.454 25.144 119.38 25.976H124.916ZM132.063 26.584C132.063 25.688 132.244 24.904 132.607 24.232C132.97 23.5493 133.466 23.0213 134.095 22.648C134.735 22.2747 135.444 22.088 136.223 22.088C136.991 22.088 137.658 22.2533 138.223 22.584C138.788 22.9147 139.21 23.3307 139.487 23.832V22.232H140.959V31H139.487V29.368C139.199 29.88 138.767 30.3067 138.191 30.648C137.626 30.9787 136.964 31.144 136.207 31.144C135.428 31.144 134.724 30.952 134.095 30.568C133.466 30.184 132.97 29.6453 132.607 28.952C132.244 28.2587 132.063 27.4693 132.063 26.584ZM139.487 26.6C139.487 25.9387 139.354 25.3627 139.087 24.872C138.82 24.3813 138.458 24.008 137.999 23.752C137.551 23.4853 137.055 23.352 136.511 23.352C135.967 23.352 135.471 23.48 135.023 23.736C134.575 23.992 134.218 24.3653 133.951 24.856C133.684 25.3467 133.551 25.9227 133.551 26.584C133.551 27.256 133.684 27.8427 133.951 28.344C134.218 28.8347 134.575 29.2133 135.023 29.48C135.471 29.736 135.967 29.864 136.511 29.864C137.055 29.864 137.551 29.736 137.999 29.48C138.458 29.2133 138.82 28.8347 139.087 28.344C139.354 27.8427 139.487 27.2613 139.487 26.6ZM70.688 46.656C70.944 46.1547 71.3067 45.7653 71.776 45.488C72.256 45.2107 72.8373 45.072 73.52 45.072V46.576H73.136C71.504 46.576 70.688 47.4613 70.688 49.232V54H69.232V45.232H70.688V46.656ZM83.2008 49.28C83.2008 49.5573 83.1848 49.8507 83.1528 50.16H76.1448C76.1981 51.024 76.4914 51.7013 77.0248 52.192C77.5688 52.672 78.2248 52.912 78.9928 52.912C79.6221 52.912 80.1448 52.768 80.5608 52.48C80.9874 52.1813 81.2861 51.7867 81.4568 51.296H83.0248C82.7901 52.1387 82.3208 52.8267 81.6168 53.36C80.9128 53.8827 80.0381 54.144 78.9928 54.144C78.1608 54.144 77.4141 53.9573 76.7528 53.584C76.1021 53.2107 75.5901 52.6827 75.2168 52C74.8434 51.3067 74.6568 50.5067 74.6568 49.6C74.6568 48.6933 74.8381 47.8987 75.2008 47.216C75.5634 46.5333 76.0701 46.0107 76.7208 45.648C77.3821 45.2747 78.1394 45.088 78.9928 45.088C79.8248 45.088 80.5608 45.2693 81.2008 45.632C81.8408 45.9947 82.3314 46.496 82.6728 47.136C83.0248 47.7653 83.2008 48.48 83.2008 49.28ZM81.6968 48.976C81.6968 48.4213 81.5741 47.9467 81.3288 47.552C81.0834 47.1467 80.7474 46.8427 80.3208 46.64C79.9048 46.4267 79.4408 46.32 78.9288 46.32C78.1928 46.32 77.5634 46.5547 77.0408 47.024C76.5288 47.4933 76.2354 48.144 76.1608 48.976H81.6968ZM84.5786 49.584C84.5786 48.688 84.76 47.904 85.1226 47.232C85.4853 46.5493 85.9813 46.0213 86.6106 45.648C87.2506 45.2747 87.96 45.088 88.7386 45.088C89.5066 45.088 90.1733 45.2533 90.7386 45.584C91.304 45.9147 91.7253 46.3307 92.0026 46.832V45.232H93.4746V54H92.0026V52.368C91.7146 52.88 91.2826 53.3067 90.7066 53.648C90.1413 53.9787 89.48 54.144 88.7226 54.144C87.944 54.144 87.24 53.952 86.6106 53.568C85.9813 53.184 85.4853 52.6453 85.1226 51.952C84.76 51.2587 84.5786 50.4693 84.5786 49.584ZM92.0026 49.6C92.0026 48.9387 91.8693 48.3627 91.6026 47.872C91.336 47.3813 90.9733 47.008 90.5146 46.752C90.0666 46.4853 89.5706 46.352 89.0266 46.352C88.4826 46.352 87.9866 46.48 87.5386 46.736C87.0906 46.992 86.7333 47.3653 86.4666 47.856C86.2 48.3467 86.0666 48.9227 86.0666 49.584C86.0666 50.256 86.2 50.8427 86.4666 51.344C86.7333 51.8347 87.0906 52.2133 87.5386 52.48C87.9866 52.736 88.4826 52.864 89.0266 52.864C89.5706 52.864 90.0666 52.736 90.5146 52.48C90.9733 52.2133 91.336 51.8347 91.6026 51.344C91.8693 50.8427 92.0026 50.2613 92.0026 49.6ZM99.0391 54.144C98.3671 54.144 97.7645 54.032 97.2311 53.808C96.6978 53.5733 96.2765 53.2533 95.9671 52.848C95.6578 52.432 95.4871 51.9573 95.4551 51.424H96.9591C97.0018 51.8613 97.2045 52.2187 97.5671 52.496C97.9405 52.7733 98.4258 52.912 99.0231 52.912C99.5778 52.912 100.015 52.7893 100.335 52.544C100.655 52.2987 100.815 51.9893 100.815 51.616C100.815 51.232 100.644 50.9493 100.303 50.768C99.9618 50.576 99.4338 50.3893 98.7191 50.208C98.0685 50.0373 97.5351 49.8667 97.1191 49.696C96.7138 49.5147 96.3618 49.2533 96.0631 48.912C95.7751 48.56 95.6311 48.1013 95.6311 47.536C95.6311 47.088 95.7645 46.6773 96.0311 46.304C96.2978 45.9307 96.6765 45.6373 97.1671 45.424C97.6578 45.2 98.2178 45.088 98.8471 45.088C99.8178 45.088 100.602 45.3333 101.199 45.824C101.796 46.3147 102.116 46.9867 102.159 47.84H100.703C100.671 47.3813 100.484 47.0133 100.143 46.736C99.8125 46.4587 99.3645 46.32 98.7991 46.32C98.2765 46.32 97.8605 46.432 97.5511 46.656C97.2418 46.88 97.0871 47.1733 97.0871 47.536C97.0871 47.824 97.1778 48.064 97.3591 48.256C97.5511 48.4373 97.7858 48.5867 98.0631 48.704C98.3511 48.8107 98.7458 48.9333 99.2471 49.072C99.8765 49.2427 100.388 49.4133 100.783 49.584C101.178 49.744 101.514 49.9893 101.791 50.32C102.079 50.6507 102.228 51.0827 102.239 51.616C102.239 52.096 102.106 52.528 101.839 52.912C101.572 53.296 101.194 53.6 100.703 53.824C100.223 54.0373 99.6685 54.144 99.0391 54.144ZM108.119 54.144C107.297 54.144 106.551 53.9573 105.879 53.584C105.217 53.2107 104.695 52.6827 104.311 52C103.937 51.3067 103.751 50.5067 103.751 49.6C103.751 48.704 103.943 47.9147 104.327 47.232C104.721 46.5387 105.255 46.0107 105.927 45.648C106.599 45.2747 107.351 45.088 108.183 45.088C109.015 45.088 109.767 45.2747 110.439 45.648C111.111 46.0107 111.639 46.5333 112.023 47.216C112.417 47.8987 112.615 48.6933 112.615 49.6C112.615 50.5067 112.412 51.3067 112.007 52C111.612 52.6827 111.073 53.2107 110.391 53.584C109.708 53.9573 108.951 54.144 108.119 54.144ZM108.119 52.864C108.641 52.864 109.132 52.7413 109.591 52.496C110.049 52.2507 110.417 51.8827 110.695 51.392C110.983 50.9013 111.127 50.304 111.127 49.6C111.127 48.896 110.988 48.2987 110.711 47.808C110.433 47.3173 110.071 46.9547 109.623 46.72C109.175 46.4747 108.689 46.352 108.167 46.352C107.633 46.352 107.143 46.4747 106.695 46.72C106.257 46.9547 105.905 47.3173 105.639 47.808C105.372 48.2987 105.239 48.896 105.239 49.6C105.239 50.3147 105.367 50.9173 105.623 51.408C105.889 51.8987 106.241 52.2667 106.679 52.512C107.116 52.7467 107.596 52.864 108.119 52.864ZM118.801 45.072C119.868 45.072 120.732 45.3973 121.393 46.048C122.054 46.688 122.385 47.616 122.385 48.832V54H120.945V49.04C120.945 48.1653 120.726 47.4987 120.289 47.04C119.852 46.5707 119.254 46.336 118.497 46.336C117.729 46.336 117.116 46.576 116.657 47.056C116.209 47.536 115.985 48.2347 115.985 49.152V54H114.529V45.232H115.985V46.48C116.273 46.032 116.662 45.6853 117.153 45.44C117.654 45.1947 118.204 45.072 118.801 45.072Z" fill="#012B55"/>
<path d="M287.688 23.112C287.688 24.04 287.368 24.8133 286.728 25.432C286.099 26.04 285.133 26.344 283.832 26.344H281.688V31H280.232V19.848H283.832C285.091 19.848 286.045 20.152 286.696 20.76C287.357 21.368 287.688 22.152 287.688 23.112ZM283.832 25.144C284.643 25.144 285.24 24.968 285.624 24.616C286.008 24.264 286.2 23.7627 286.2 23.112C286.2 21.736 285.411 21.048 283.832 21.048H281.688V25.144H283.832ZM290.954 23.656C291.21 23.1547 291.572 22.7653 292.042 22.488C292.522 22.2107 293.103 22.072 293.786 22.072V23.576H293.402C291.77 23.576 290.954 24.4613 290.954 26.232V31H289.498V22.232H290.954V23.656ZM299.29 31.144C298.469 31.144 297.722 30.9573 297.05 30.584C296.389 30.2107 295.866 29.6827 295.482 29C295.109 28.3067 294.922 27.5067 294.922 26.6C294.922 25.704 295.114 24.9147 295.498 24.232C295.893 23.5387 296.426 23.0107 297.098 22.648C297.77 22.2747 298.522 22.088 299.354 22.088C300.186 22.088 300.938 22.2747 301.61 22.648C302.282 23.0107 302.81 23.5333 303.194 24.216C303.589 24.8987 303.786 25.6933 303.786 26.6C303.786 27.5067 303.584 28.3067 303.178 29C302.784 29.6827 302.245 30.2107 301.562 30.584C300.88 30.9573 300.122 31.144 299.29 31.144ZM299.29 29.864C299.813 29.864 300.304 29.7413 300.762 29.496C301.221 29.2507 301.589 28.8827 301.866 28.392C302.154 27.9013 302.298 27.304 302.298 26.6C302.298 25.896 302.16 25.2987 301.882 24.808C301.605 24.3173 301.242 23.9547 300.794 23.72C300.346 23.4747 299.861 23.352 299.338 23.352C298.805 23.352 298.314 23.4747 297.866 23.72C297.429 23.9547 297.077 24.3173 296.81 24.808C296.544 25.2987 296.41 25.896 296.41 26.6C296.41 27.3147 296.538 27.9173 296.794 28.408C297.061 28.8987 297.413 29.2667 297.85 29.512C298.288 29.7467 298.768 29.864 299.29 29.864ZM308.965 29.656L311.685 22.232H313.237L309.797 31H308.101L304.661 22.232H306.229L308.965 29.656ZM315.422 20.808C315.144 20.808 314.91 20.712 314.718 20.52C314.526 20.328 314.43 20.0933 314.43 19.816C314.43 19.5387 314.526 19.304 314.718 19.112C314.91 18.92 315.144 18.824 315.422 18.824C315.688 18.824 315.912 18.92 316.094 19.112C316.286 19.304 316.382 19.5387 316.382 19.816C316.382 20.0933 316.286 20.328 316.094 20.52C315.912 20.712 315.688 20.808 315.422 20.808ZM316.126 22.232V31H314.67V22.232H316.126ZM318.063 26.584C318.063 25.688 318.244 24.904 318.607 24.232C318.97 23.5493 319.466 23.0213 320.095 22.648C320.735 22.2747 321.45 22.088 322.239 22.088C322.922 22.088 323.556 22.248 324.143 22.568C324.73 22.8773 325.178 23.288 325.487 23.8V19.16H326.959V31H325.487V29.352C325.199 29.8747 324.772 30.3067 324.207 30.648C323.642 30.9787 322.98 31.144 322.223 31.144C321.444 31.144 320.735 30.952 320.095 30.568C319.466 30.184 318.97 29.6453 318.607 28.952C318.244 28.2587 318.063 27.4693 318.063 26.584ZM325.487 26.6C325.487 25.9387 325.354 25.3627 325.087 24.872C324.82 24.3813 324.458 24.008 323.999 23.752C323.551 23.4853 323.055 23.352 322.511 23.352C321.967 23.352 321.471 23.48 321.023 23.736C320.575 23.992 320.218 24.3653 319.951 24.856C319.684 25.3467 319.551 25.9227 319.551 26.584C319.551 27.256 319.684 27.8427 319.951 28.344C320.218 28.8347 320.575 29.2133 321.023 29.48C321.471 29.736 321.967 29.864 322.511 29.864C323.055 29.864 323.551 29.736 323.999 29.48C324.458 29.2133 324.82 28.8347 325.087 28.344C325.354 27.8427 325.487 27.2613 325.487 26.6ZM337.42 26.28C337.42 26.5573 337.404 26.8507 337.372 27.16H330.364C330.417 28.024 330.71 28.7013 331.244 29.192C331.788 29.672 332.444 29.912 333.212 29.912C333.841 29.912 334.364 29.768 334.78 29.48C335.206 29.1813 335.505 28.7867 335.676 28.296H337.244C337.009 29.1387 336.54 29.8267 335.836 30.36C335.132 30.8827 334.257 31.144 333.212 31.144C332.38 31.144 331.633 30.9573 330.972 30.584C330.321 30.2107 329.809 29.6827 329.436 29C329.062 28.3067 328.876 27.5067 328.876 26.6C328.876 25.6933 329.057 24.8987 329.42 24.216C329.782 23.5333 330.289 23.0107 330.94 22.648C331.601 22.2747 332.358 22.088 333.212 22.088C334.044 22.088 334.78 22.2693 335.42 22.632C336.06 22.9947 336.55 23.496 336.892 24.136C337.244 24.7653 337.42 25.48 337.42 26.28ZM335.916 25.976C335.916 25.4213 335.793 24.9467 335.548 24.552C335.302 24.1467 334.966 23.8427 334.54 23.64C334.124 23.4267 333.66 23.32 333.148 23.32C332.412 23.32 331.782 23.5547 331.26 24.024C330.748 24.4933 330.454 25.144 330.38 25.976H335.916ZM343.063 26.584C343.063 25.688 343.244 24.904 343.607 24.232C343.97 23.5493 344.466 23.0213 345.095 22.648C345.735 22.2747 346.444 22.088 347.223 22.088C347.991 22.088 348.658 22.2533 349.223 22.584C349.788 22.9147 350.21 23.3307 350.487 23.832V22.232H351.959V31H350.487V29.368C350.199 29.88 349.767 30.3067 349.191 30.648C348.626 30.9787 347.964 31.144 347.207 31.144C346.428 31.144 345.724 30.952 345.095 30.568C344.466 30.184 343.97 29.6453 343.607 28.952C343.244 28.2587 343.063 27.4693 343.063 26.584ZM350.487 26.6C350.487 25.9387 350.354 25.3627 350.087 24.872C349.82 24.3813 349.458 24.008 348.999 23.752C348.551 23.4853 348.055 23.352 347.511 23.352C346.967 23.352 346.471 23.48 346.023 23.736C345.575 23.992 345.218 24.3653 344.951 24.856C344.684 25.3467 344.551 25.9227 344.551 26.584C344.551 27.256 344.684 27.8427 344.951 28.344C345.218 28.8347 345.575 29.2133 346.023 29.48C346.471 29.736 346.967 29.864 347.511 29.864C348.055 29.864 348.551 29.736 348.999 29.48C349.458 29.2133 349.82 28.8347 350.087 28.344C350.354 27.8427 350.487 27.2613 350.487 26.6ZM287.688 46.112C287.688 47.04 287.368 47.8133 286.728 48.432C286.099 49.04 285.133 49.344 283.832 49.344H281.688V54H280.232V42.848H283.832C285.091 42.848 286.045 43.152 286.696 43.76C287.357 44.368 287.688 45.152 287.688 46.112ZM283.832 48.144C284.643 48.144 285.24 47.968 285.624 47.616C286.008 47.264 286.2 46.7627 286.2 46.112C286.2 44.736 285.411 44.048 283.832 44.048H281.688V48.144H283.832ZM290.954 42.16V54H289.498V42.16H290.954ZM292.891 49.584C292.891 48.688 293.072 47.904 293.435 47.232C293.798 46.5493 294.294 46.0213 294.923 45.648C295.563 45.2747 296.272 45.088 297.051 45.088C297.819 45.088 298.486 45.2533 299.051 45.584C299.616 45.9147 300.038 46.3307 300.315 46.832V45.232H301.787V54H300.315V52.368C300.027 52.88 299.595 53.3067 299.019 53.648C298.454 53.9787 297.792 54.144 297.035 54.144C296.256 54.144 295.552 53.952 294.923 53.568C294.294 53.184 293.798 52.6453 293.435 51.952C293.072 51.2587 292.891 50.4693 292.891 49.584ZM300.315 49.6C300.315 48.9387 300.182 48.3627 299.915 47.872C299.648 47.3813 299.286 47.008 298.827 46.752C298.379 46.4853 297.883 46.352 297.339 46.352C296.795 46.352 296.299 46.48 295.851 46.736C295.403 46.992 295.046 47.3653 294.779 47.856C294.512 48.3467 294.379 48.9227 294.379 49.584C294.379 50.256 294.512 50.8427 294.779 51.344C295.046 51.8347 295.403 52.2133 295.851 52.48C296.299 52.736 296.795 52.864 297.339 52.864C297.883 52.864 298.379 52.736 298.827 52.48C299.286 52.2133 299.648 51.8347 299.915 51.344C300.182 50.8427 300.315 50.2613 300.315 49.6ZM306.024 46.432V51.6C306.024 52.0267 306.114 52.3307 306.296 52.512C306.477 52.6827 306.792 52.768 307.24 52.768H308.312V54H307C306.189 54 305.581 53.8133 305.176 53.44C304.77 53.0667 304.568 52.4533 304.568 51.6V46.432H303.432V45.232H304.568V43.024H306.024V45.232H308.312V46.432H306.024ZM313.644 46.432H311.804V54H310.348V46.432H309.212V45.232H310.348V44.608C310.348 43.6267 310.598 42.912 311.1 42.464C311.612 42.0053 312.428 41.776 313.548 41.776V42.992C312.908 42.992 312.454 43.12 312.188 43.376C311.932 43.6213 311.804 44.032 311.804 44.608V45.232H313.644V46.432ZM319.165 54.144C318.344 54.144 317.597 53.9573 316.925 53.584C316.264 53.2107 315.741 52.6827 315.357 52C314.984 51.3067 314.797 50.5067 314.797 49.6C314.797 48.704 314.989 47.9147 315.373 47.232C315.768 46.5387 316.301 46.0107 316.973 45.648C317.645 45.2747 318.397 45.088 319.229 45.088C320.061 45.088 320.813 45.2747 321.485 45.648C322.157 46.0107 322.685 46.5333 323.069 47.216C323.464 47.8987 323.661 48.6933 323.661 49.6C323.661 50.5067 323.459 51.3067 323.053 52C322.659 52.6827 322.12 53.2107 321.437 53.584C320.755 53.9573 319.997 54.144 319.165 54.144ZM319.165 52.864C319.688 52.864 320.179 52.7413 320.637 52.496C321.096 52.2507 321.464 51.8827 321.741 51.392C322.029 50.9013 322.173 50.304 322.173 49.6C322.173 48.896 322.035 48.2987 321.757 47.808C321.48 47.3173 321.117 46.9547 320.669 46.72C320.221 46.4747 319.736 46.352 319.213 46.352C318.68 46.352 318.189 46.4747 317.741 46.72C317.304 46.9547 316.952 47.3173 316.685 47.808C316.419 48.2987 316.285 48.896 316.285 49.6C316.285 50.3147 316.413 50.9173 316.669 51.408C316.936 51.8987 317.288 52.2667 317.725 52.512C318.163 52.7467 318.643 52.864 319.165 52.864ZM327.032 46.656C327.288 46.1547 327.65 45.7653 328.12 45.488C328.6 45.2107 329.181 45.072 329.864 45.072V46.576H329.48C327.848 46.576 327.032 47.4613 327.032 49.232V54H325.576V45.232H327.032V46.656ZM342.089 45.072C342.771 45.072 343.379 45.216 343.913 45.504C344.446 45.7813 344.867 46.2027 345.177 46.768C345.486 47.3333 345.641 48.0213 345.641 48.832V54H344.201V49.04C344.201 48.1653 343.982 47.4987 343.545 47.04C343.118 46.5707 342.537 46.336 341.801 46.336C341.043 46.336 340.441 46.5813 339.993 47.072C339.545 47.552 339.321 48.2507 339.321 49.168V54H337.881V49.04C337.881 48.1653 337.662 47.4987 337.225 47.04C336.798 46.5707 336.217 46.336 335.481 46.336C334.723 46.336 334.121 46.5813 333.673 47.072C333.225 47.552 333.001 48.2507 333.001 49.168V54H331.545V45.232H333.001V46.496C333.289 46.0373 333.673 45.6853 334.153 45.44C334.643 45.1947 335.182 45.072 335.769 45.072C336.505 45.072 337.155 45.2373 337.721 45.568C338.286 45.8987 338.707 46.384 338.985 47.024C339.23 46.4053 339.635 45.9253 340.201 45.584C340.766 45.2427 341.395 45.072 342.089 45.072Z" fill="#012B55"/>
<path d="M502.544 19.928V31H501.088V22.744L497.408 31H496.384L492.688 22.728V31H491.232V19.928H492.8L496.896 29.08L500.992 19.928H502.544ZM504.469 26.584C504.469 25.688 504.651 24.904 505.013 24.232C505.376 23.5493 505.872 23.0213 506.501 22.648C507.141 22.2747 507.851 22.088 508.629 22.088C509.397 22.088 510.064 22.2533 510.629 22.584C511.195 22.9147 511.616 23.3307 511.893 23.832V22.232H513.365V31H511.893V29.368C511.605 29.88 511.173 30.3067 510.597 30.648C510.032 30.9787 509.371 31.144 508.613 31.144C507.835 31.144 507.131 30.952 506.501 30.568C505.872 30.184 505.376 29.6453 505.013 28.952C504.651 28.2587 504.469 27.4693 504.469 26.584ZM511.893 26.6C511.893 25.9387 511.76 25.3627 511.493 24.872C511.227 24.3813 510.864 24.008 510.405 23.752C509.957 23.4853 509.461 23.352 508.917 23.352C508.373 23.352 507.877 23.48 507.429 23.736C506.981 23.992 506.624 24.3653 506.357 24.856C506.091 25.3467 505.957 25.9227 505.957 26.584C505.957 27.256 506.091 27.8427 506.357 28.344C506.624 28.8347 506.981 29.2133 507.429 29.48C507.877 29.736 508.373 29.864 508.917 29.864C509.461 29.864 509.957 29.736 510.405 29.48C510.864 29.2133 511.227 28.8347 511.493 28.344C511.76 27.8427 511.893 27.2613 511.893 26.6ZM520.722 31L517.282 27.128V31H515.826V19.16H517.282V26.12L520.658 22.232H522.69L518.562 26.6L522.706 31H520.722ZM532.06 26.28C532.06 26.5573 532.044 26.8507 532.012 27.16H525.004C525.057 28.024 525.351 28.7013 525.884 29.192C526.428 29.672 527.084 29.912 527.852 29.912C528.481 29.912 529.004 29.768 529.42 29.48C529.847 29.1813 530.145 28.7867 530.316 28.296H531.884C531.649 29.1387 531.18 29.8267 530.476 30.36C529.772 30.8827 528.897 31.144 527.852 31.144C527.02 31.144 526.273 30.9573 525.612 30.584C524.961 30.2107 524.449 29.6827 524.076 29C523.703 28.3067 523.516 27.5067 523.516 26.6C523.516 25.6933 523.697 24.8987 524.06 24.216C524.423 23.5333 524.929 23.0107 525.58 22.648C526.241 22.2747 526.999 22.088 527.852 22.088C528.684 22.088 529.42 22.2693 530.06 22.632C530.7 22.9947 531.191 23.496 531.532 24.136C531.884 24.7653 532.06 25.48 532.06 26.28ZM530.556 25.976C530.556 25.4213 530.433 24.9467 530.188 24.552C529.943 24.1467 529.607 23.8427 529.18 23.64C528.764 23.4267 528.3 23.32 527.788 23.32C527.052 23.32 526.423 23.5547 525.9 24.024C525.388 24.4933 525.095 25.144 525.02 25.976H530.556ZM494.336 54.144C493.664 54.144 493.061 54.032 492.528 53.808C491.995 53.5733 491.573 53.2533 491.264 52.848C490.955 52.432 490.784 51.9573 490.752 51.424H492.256C492.299 51.8613 492.501 52.2187 492.864 52.496C493.237 52.7733 493.723 52.912 494.32 52.912C494.875 52.912 495.312 52.7893 495.632 52.544C495.952 52.2987 496.112 51.9893 496.112 51.616C496.112 51.232 495.941 50.9493 495.6 50.768C495.259 50.576 494.731 50.3893 494.016 50.208C493.365 50.0373 492.832 49.8667 492.416 49.696C492.011 49.5147 491.659 49.2533 491.36 48.912C491.072 48.56 490.928 48.1013 490.928 47.536C490.928 47.088 491.061 46.6773 491.328 46.304C491.595 45.9307 491.973 45.6373 492.464 45.424C492.955 45.2 493.515 45.088 494.144 45.088C495.115 45.088 495.899 45.3333 496.496 45.824C497.093 46.3147 497.413 46.9867 497.456 47.84H496C495.968 47.3813 495.781 47.0133 495.44 46.736C495.109 46.4587 494.661 46.32 494.096 46.32C493.573 46.32 493.157 46.432 492.848 46.656C492.539 46.88 492.384 47.1733 492.384 47.536C492.384 47.824 492.475 48.064 492.656 48.256C492.848 48.4373 493.083 48.5867 493.36 48.704C493.648 48.8107 494.043 48.9333 494.544 49.072C495.173 49.2427 495.685 49.4133 496.08 49.584C496.475 49.744 496.811 49.9893 497.088 50.32C497.376 50.6507 497.525 51.0827 497.536 51.616C497.536 52.096 497.403 52.528 497.136 52.912C496.869 53.296 496.491 53.6 496 53.824C495.52 54.0373 494.965 54.144 494.336 54.144ZM503.415 54.144C502.594 54.144 501.847 53.9573 501.175 53.584C500.514 53.2107 499.991 52.6827 499.607 52C499.234 51.3067 499.047 50.5067 499.047 49.6C499.047 48.704 499.239 47.9147 499.623 47.232C500.018 46.5387 500.551 46.0107 501.223 45.648C501.895 45.2747 502.647 45.088 503.479 45.088C504.311 45.088 505.063 45.2747 505.735 45.648C506.407 46.0107 506.935 46.5333 507.319 47.216C507.714 47.8987 507.911 48.6933 507.911 49.6C507.911 50.5067 507.709 51.3067 507.303 52C506.909 52.6827 506.37 53.2107 505.687 53.584C505.005 53.9573 504.247 54.144 503.415 54.144ZM503.415 52.864C503.938 52.864 504.429 52.7413 504.887 52.496C505.346 52.2507 505.714 51.8827 505.991 51.392C506.279 50.9013 506.423 50.304 506.423 49.6C506.423 48.896 506.285 48.2987 506.007 47.808C505.73 47.3173 505.367 46.9547 504.919 46.72C504.471 46.4747 503.986 46.352 503.463 46.352C502.93 46.352 502.439 46.4747 501.991 46.72C501.554 46.9547 501.202 47.3173 500.935 47.808C500.669 48.2987 500.535 48.896 500.535 49.6C500.535 50.3147 500.663 50.9173 500.919 51.408C501.186 51.8987 501.538 52.2667 501.975 52.512C502.413 52.7467 502.893 52.864 503.415 52.864ZM509.282 49.6C509.282 48.6933 509.463 47.904 509.826 47.232C510.188 46.5493 510.69 46.0213 511.33 45.648C511.98 45.2747 512.722 45.088 513.554 45.088C514.631 45.088 515.516 45.3493 516.21 45.872C516.914 46.3947 517.378 47.12 517.602 48.048H516.034C515.884 47.5147 515.591 47.0933 515.154 46.784C514.727 46.4747 514.194 46.32 513.554 46.32C512.722 46.32 512.05 46.608 511.538 47.184C511.026 47.7493 510.77 48.5547 510.77 49.6C510.77 50.656 511.026 51.472 511.538 52.048C512.05 52.624 512.722 52.912 513.554 52.912C514.194 52.912 514.727 52.7627 515.154 52.464C515.58 52.1653 515.874 51.7387 516.034 51.184H517.602C517.367 52.08 516.898 52.8 516.194 53.344C515.49 53.8773 514.61 54.144 513.554 54.144C512.722 54.144 511.98 53.9573 511.33 53.584C510.69 53.2107 510.188 52.6827 509.826 52C509.463 51.3173 509.282 50.5173 509.282 49.6ZM520.297 43.808C520.019 43.808 519.785 43.712 519.593 43.52C519.401 43.328 519.305 43.0933 519.305 42.816C519.305 42.5387 519.401 42.304 519.593 42.112C519.785 41.92 520.019 41.824 520.297 41.824C520.563 41.824 520.787 41.92 520.969 42.112C521.161 42.304 521.257 42.5387 521.257 42.816C521.257 43.0933 521.161 43.328 520.969 43.52C520.787 43.712 520.563 43.808 520.297 43.808ZM521.001 45.232V54H519.545V45.232H521.001ZM522.938 49.584C522.938 48.688 523.119 47.904 523.482 47.232C523.845 46.5493 524.341 46.0213 524.97 45.648C525.61 45.2747 526.319 45.088 527.098 45.088C527.866 45.088 528.533 45.2533 529.098 45.584C529.663 45.9147 530.085 46.3307 530.362 46.832V45.232H531.834V54H530.362V52.368C530.074 52.88 529.642 53.3067 529.066 53.648C528.501 53.9787 527.839 54.144 527.082 54.144C526.303 54.144 525.599 53.952 524.97 53.568C524.341 53.184 523.845 52.6453 523.482 51.952C523.119 51.2587 522.938 50.4693 522.938 49.584ZM530.362 49.6C530.362 48.9387 530.229 48.3627 529.962 47.872C529.695 47.3813 529.333 47.008 528.874 46.752C528.426 46.4853 527.93 46.352 527.386 46.352C526.842 46.352 526.346 46.48 525.898 46.736C525.45 46.992 525.093 47.3653 524.826 47.856C524.559 48.3467 524.426 48.9227 524.426 49.584C524.426 50.256 524.559 50.8427 524.826 51.344C525.093 51.8347 525.45 52.2133 525.898 52.48C526.346 52.736 526.842 52.864 527.386 52.864C527.93 52.864 528.426 52.736 528.874 52.48C529.333 52.2133 529.695 51.8347 529.962 51.344C530.229 50.8427 530.362 50.2613 530.362 49.6ZM535.751 42.16V54H534.295V42.16H535.751ZM538.984 43.808C538.707 43.808 538.472 43.712 538.28 43.52C538.088 43.328 537.992 43.0933 537.992 42.816C537.992 42.5387 538.088 42.304 538.28 42.112C538.472 41.92 538.707 41.824 538.984 41.824C539.251 41.824 539.475 41.92 539.656 42.112C539.848 42.304 539.944 42.5387 539.944 42.816C539.944 43.0933 539.848 43.328 539.656 43.52C539.475 43.712 539.251 43.808 538.984 43.808ZM539.688 45.232V54H538.232V45.232H539.688ZM543.258 52.8H547.562V54H541.594V52.8L545.85 46.416H541.626V45.232H547.53V46.416L543.258 52.8ZM550.203 43.808C549.925 43.808 549.691 43.712 549.499 43.52C549.307 43.328 549.211 43.0933 549.211 42.816C549.211 42.5387 549.307 42.304 549.499 42.112C549.691 41.92 549.925 41.824 550.203 41.824C550.469 41.824 550.693 41.92 550.875 42.112C551.067 42.304 551.163 42.5387 551.163 42.816C551.163 43.0933 551.067 43.328 550.875 43.52C550.693 43.712 550.469 43.808 550.203 43.808ZM550.907 45.232V54H549.451V45.232H550.907ZM557.66 45.072C558.727 45.072 559.591 45.3973 560.252 46.048C560.914 46.688 561.244 47.616 561.244 48.832V54H559.804V49.04C559.804 48.1653 559.586 47.4987 559.148 47.04C558.711 46.5707 558.114 46.336 557.356 46.336C556.588 46.336 555.975 46.576 555.516 47.056C555.068 47.536 554.844 48.2347 554.844 49.152V54H553.388V45.232H554.844V46.48C555.132 46.032 555.522 45.6853 556.012 45.44C556.514 45.1947 557.063 45.072 557.66 45.072ZM567.239 45.088C567.996 45.088 568.657 45.2533 569.223 45.584C569.799 45.9147 570.225 46.3307 570.503 46.832V45.232H571.975V54.192C571.975 54.992 571.804 55.7013 571.463 56.32C571.121 56.9493 570.631 57.44 569.991 57.792C569.361 58.144 568.625 58.32 567.783 58.32C566.631 58.32 565.671 58.048 564.903 57.504C564.135 56.96 563.681 56.2187 563.543 55.28H564.983C565.143 55.8133 565.473 56.24 565.975 56.56C566.476 56.8907 567.079 57.056 567.783 57.056C568.583 57.056 569.233 56.8053 569.735 56.304C570.247 55.8027 570.503 55.0987 570.503 54.192V52.352C570.215 52.864 569.788 53.2907 569.223 53.632C568.657 53.9733 567.996 54.144 567.239 54.144C566.46 54.144 565.751 53.952 565.111 53.568C564.481 53.184 563.985 52.6453 563.623 51.952C563.26 51.2587 563.079 50.4693 563.079 49.584C563.079 48.688 563.26 47.904 563.623 47.232C563.985 46.5493 564.481 46.0213 565.111 45.648C565.751 45.2747 566.46 45.088 567.239 45.088ZM570.503 49.6C570.503 48.9387 570.369 48.3627 570.103 47.872C569.836 47.3813 569.473 47.008 569.015 46.752C568.567 46.4853 568.071 46.352 567.527 46.352C566.983 46.352 566.487 46.48 566.039 46.736C565.591 46.992 565.233 47.3653 564.967 47.856C564.7 48.3467 564.567 48.9227 564.567 49.584C564.567 50.256 564.7 50.8427 564.967 51.344C565.233 51.8347 565.591 52.2133 566.039 52.48C566.487 52.736 566.983 52.864 567.527 52.864C568.071 52.864 568.567 52.736 569.015 52.48C569.473 52.2133 569.836 51.8347 570.103 51.344C570.369 50.8427 570.503 50.2613 570.503 49.6ZM582.269 46.432H580.429V54H578.973V46.432H577.837V45.232H578.973V44.608C578.973 43.6267 579.223 42.912 579.725 42.464C580.237 42.0053 581.053 41.776 582.173 41.776V42.992C581.533 42.992 581.079 43.12 580.813 43.376C580.557 43.6213 580.429 44.032 580.429 44.608V45.232H582.269V46.432ZM591.742 45.232V54H590.286V52.704C590.009 53.152 589.62 53.504 589.118 53.76C588.628 54.0053 588.084 54.128 587.486 54.128C586.804 54.128 586.19 53.9893 585.646 53.712C585.102 53.424 584.67 52.9973 584.35 52.432C584.041 51.8667 583.886 51.1787 583.886 50.368V45.232H585.326V50.176C585.326 51.04 585.545 51.7067 585.982 52.176C586.42 52.6347 587.017 52.864 587.774 52.864C588.553 52.864 589.166 52.624 589.614 52.144C590.062 51.664 590.286 50.9653 590.286 50.048V45.232H591.742ZM598.473 45.072C599.539 45.072 600.403 45.3973 601.065 46.048C601.726 46.688 602.057 47.616 602.057 48.832V54H600.617V49.04C600.617 48.1653 600.398 47.4987 599.961 47.04C599.523 46.5707 598.926 46.336 598.169 46.336C597.401 46.336 596.787 46.576 596.329 47.056C595.881 47.536 595.657 48.2347 595.657 49.152V54H594.201V45.232H595.657V46.48C595.945 46.032 596.334 45.6853 596.825 45.44C597.326 45.1947 597.875 45.072 598.473 45.072Z" fill="#012B55"/>
<path d="M743.544 19.928V31H742.088V22.744L738.408 31H737.384L733.688 22.728V31H732.232V19.928H733.8L737.896 29.08L741.992 19.928H743.544ZM745.469 26.584C745.469 25.688 745.651 24.904 746.013 24.232C746.376 23.5493 746.872 23.0213 747.501 22.648C748.141 22.2747 748.851 22.088 749.629 22.088C750.397 22.088 751.064 22.2533 751.629 22.584C752.195 22.9147 752.616 23.3307 752.893 23.832V22.232H754.365V31H752.893V29.368C752.605 29.88 752.173 30.3067 751.597 30.648C751.032 30.9787 750.371 31.144 749.613 31.144C748.835 31.144 748.131 30.952 747.501 30.568C746.872 30.184 746.376 29.6453 746.013 28.952C745.651 28.2587 745.469 27.4693 745.469 26.584ZM752.893 26.6C752.893 25.9387 752.76 25.3627 752.493 24.872C752.227 24.3813 751.864 24.008 751.405 23.752C750.957 23.4853 750.461 23.352 749.917 23.352C749.373 23.352 748.877 23.48 748.429 23.736C747.981 23.992 747.624 24.3653 747.357 24.856C747.091 25.3467 746.957 25.9227 746.957 26.584C746.957 27.256 747.091 27.8427 747.357 28.344C747.624 28.8347 747.981 29.2133 748.429 29.48C748.877 29.736 749.373 29.864 749.917 29.864C750.461 29.864 750.957 29.736 751.405 29.48C751.864 29.2133 752.227 28.8347 752.493 28.344C752.76 27.8427 752.893 27.2613 752.893 26.6ZM761.722 31L758.282 27.128V31H756.826V19.16H758.282V26.12L761.658 22.232H763.69L759.562 26.6L763.706 31H761.722ZM773.06 26.28C773.06 26.5573 773.044 26.8507 773.012 27.16H766.004C766.057 28.024 766.351 28.7013 766.884 29.192C767.428 29.672 768.084 29.912 768.852 29.912C769.481 29.912 770.004 29.768 770.42 29.48C770.847 29.1813 771.145 28.7867 771.316 28.296H772.884C772.649 29.1387 772.18 29.8267 771.476 30.36C770.772 30.8827 769.897 31.144 768.852 31.144C768.02 31.144 767.273 30.9573 766.612 30.584C765.961 30.2107 765.449 29.6827 765.076 29C764.703 28.3067 764.516 27.5067 764.516 26.6C764.516 25.6933 764.697 24.8987 765.06 24.216C765.423 23.5333 765.929 23.0107 766.58 22.648C767.241 22.2747 767.999 22.088 768.852 22.088C769.684 22.088 770.42 22.2693 771.06 22.632C771.7 22.9947 772.191 23.496 772.532 24.136C772.884 24.7653 773.06 25.48 773.06 26.28ZM771.556 25.976C771.556 25.4213 771.433 24.9467 771.188 24.552C770.943 24.1467 770.607 23.8427 770.18 23.64C769.764 23.4267 769.3 23.32 768.788 23.32C768.052 23.32 767.423 23.5547 766.9 24.024C766.388 24.4933 766.095 25.144 766.02 25.976H771.556ZM782.352 31.144C781.68 31.144 781.077 31.032 780.544 30.808C780.01 30.5733 779.589 30.2533 779.28 29.848C778.97 29.432 778.8 28.9573 778.768 28.424H780.272C780.314 28.8613 780.517 29.2187 780.88 29.496C781.253 29.7733 781.738 29.912 782.336 29.912C782.89 29.912 783.328 29.7893 783.648 29.544C783.968 29.2987 784.128 28.9893 784.128 28.616C784.128 28.232 783.957 27.9493 783.616 27.768C783.274 27.576 782.746 27.3893 782.032 27.208C781.381 27.0373 780.848 26.8667 780.432 26.696C780.026 26.5147 779.674 26.2533 779.376 25.912C779.088 25.56 778.944 25.1013 778.944 24.536C778.944 24.088 779.077 23.6773 779.344 23.304C779.61 22.9307 779.989 22.6373 780.48 22.424C780.97 22.2 781.53 22.088 782.16 22.088C783.13 22.088 783.914 22.3333 784.512 22.824C785.109 23.3147 785.429 23.9867 785.472 24.84H784.016C783.984 24.3813 783.797 24.0133 783.456 23.736C783.125 23.4587 782.677 23.32 782.112 23.32C781.589 23.32 781.173 23.432 780.864 23.656C780.554 23.88 780.4 24.1733 780.4 24.536C780.4 24.824 780.49 25.064 780.672 25.256C780.864 25.4373 781.098 25.5867 781.376 25.704C781.664 25.8107 782.058 25.9333 782.56 26.072C783.189 26.2427 783.701 26.4133 784.096 26.584C784.49 26.744 784.826 26.9893 785.104 27.32C785.392 27.6507 785.541 28.0827 785.552 28.616C785.552 29.096 785.418 29.528 785.152 29.912C784.885 30.296 784.506 30.6 784.016 30.824C783.536 31.0373 782.981 31.144 782.352 31.144ZM791.431 31.144C790.61 31.144 789.863 30.9573 789.191 30.584C788.53 30.2107 788.007 29.6827 787.623 29C787.25 28.3067 787.063 27.5067 787.063 26.6C787.063 25.704 787.255 24.9147 787.639 24.232C788.034 23.5387 788.567 23.0107 789.239 22.648C789.911 22.2747 790.663 22.088 791.495 22.088C792.327 22.088 793.079 22.2747 793.751 22.648C794.423 23.0107 794.951 23.5333 795.335 24.216C795.73 24.8987 795.927 25.6933 795.927 26.6C795.927 27.5067 795.724 28.3067 795.319 29C794.924 29.6827 794.386 30.2107 793.703 30.584C793.02 30.9573 792.263 31.144 791.431 31.144ZM791.431 29.864C791.954 29.864 792.444 29.7413 792.903 29.496C793.362 29.2507 793.73 28.8827 794.007 28.392C794.295 27.9013 794.439 27.304 794.439 26.6C794.439 25.896 794.3 25.2987 794.023 24.808C793.746 24.3173 793.383 23.9547 792.935 23.72C792.487 23.4747 792.002 23.352 791.479 23.352C790.946 23.352 790.455 23.4747 790.007 23.72C789.57 23.9547 789.218 24.3173 788.951 24.808C788.684 25.2987 788.551 25.896 788.551 26.6C788.551 27.3147 788.679 27.9173 788.935 28.408C789.202 28.8987 789.554 29.2667 789.991 29.512C790.428 29.7467 790.908 29.864 791.431 29.864ZM797.297 26.6C797.297 25.6933 797.479 24.904 797.841 24.232C798.204 23.5493 798.705 23.0213 799.345 22.648C799.996 22.2747 800.737 22.088 801.569 22.088C802.647 22.088 803.532 22.3493 804.225 22.872C804.929 23.3947 805.393 24.12 805.617 25.048H804.049C803.9 24.5147 803.607 24.0933 803.169 23.784C802.743 23.4747 802.209 23.32 801.569 23.32C800.737 23.32 800.065 23.608 799.553 24.184C799.041 24.7493 798.785 25.5547 798.785 26.6C798.785 27.656 799.041 28.472 799.553 29.048C800.065 29.624 800.737 29.912 801.569 29.912C802.209 29.912 802.743 29.7627 803.169 29.464C803.596 29.1653 803.889 28.7387 804.049 28.184H805.617C805.383 29.08 804.913 29.8 804.209 30.344C803.505 30.8773 802.625 31.144 801.569 31.144C800.737 31.144 799.996 30.9573 799.345 30.584C798.705 30.2107 798.204 29.6827 797.841 29C797.479 28.3173 797.297 27.5173 797.297 26.6ZM808.312 20.808C808.035 20.808 807.8 20.712 807.608 20.52C807.416 20.328 807.32 20.0933 807.32 19.816C807.32 19.5387 807.416 19.304 807.608 19.112C807.8 18.92 808.035 18.824 808.312 18.824C808.579 18.824 808.803 18.92 808.984 19.112C809.176 19.304 809.272 19.5387 809.272 19.816C809.272 20.0933 809.176 20.328 808.984 20.52C808.803 20.712 808.579 20.808 808.312 20.808ZM809.016 22.232V31H807.56V22.232H809.016ZM810.954 26.584C810.954 25.688 811.135 24.904 811.498 24.232C811.86 23.5493 812.356 23.0213 812.986 22.648C813.626 22.2747 814.335 22.088 815.114 22.088C815.882 22.088 816.548 22.2533 817.114 22.584C817.679 22.9147 818.1 23.3307 818.378 23.832V22.232H819.85V31H818.378V29.368C818.09 29.88 817.658 30.3067 817.082 30.648C816.516 30.9787 815.855 31.144 815.098 31.144C814.319 31.144 813.615 30.952 812.986 30.568C812.356 30.184 811.86 29.6453 811.498 28.952C811.135 28.2587 810.954 27.4693 810.954 26.584ZM818.378 26.6C818.378 25.9387 818.244 25.3627 817.978 24.872C817.711 24.3813 817.348 24.008 816.89 23.752C816.442 23.4853 815.946 23.352 815.402 23.352C814.858 23.352 814.362 23.48 813.914 23.736C813.466 23.992 813.108 24.3653 812.842 24.856C812.575 25.3467 812.442 25.9227 812.442 26.584C812.442 27.256 812.575 27.8427 812.842 28.344C813.108 28.8347 813.466 29.2133 813.914 29.48C814.362 29.736 814.858 29.864 815.402 29.864C815.946 29.864 816.442 29.736 816.89 29.48C817.348 29.2133 817.711 28.8347 817.978 28.344C818.244 27.8427 818.378 27.2613 818.378 26.6ZM823.766 19.16V31H822.31V19.16H823.766ZM827 20.808C826.722 20.808 826.488 20.712 826.296 20.52C826.104 20.328 826.008 20.0933 826.008 19.816C826.008 19.5387 826.104 19.304 826.296 19.112C826.488 18.92 826.722 18.824 827 18.824C827.266 18.824 827.49 18.92 827.672 19.112C827.864 19.304 827.96 19.5387 827.96 19.816C827.96 20.0933 827.864 20.328 827.672 20.52C827.49 20.712 827.266 20.808 827 20.808ZM827.704 22.232V31H826.248V22.232H827.704ZM831.273 29.8H835.577V31H829.609V29.8L833.865 23.416H829.641V22.232H835.545V23.416L831.273 29.8ZM838.218 20.808C837.941 20.808 837.706 20.712 837.514 20.52C837.322 20.328 837.226 20.0933 837.226 19.816C837.226 19.5387 837.322 19.304 837.514 19.112C837.706 18.92 837.941 18.824 838.218 18.824C838.485 18.824 838.709 18.92 838.89 19.112C839.082 19.304 839.178 19.5387 839.178 19.816C839.178 20.0933 839.082 20.328 838.89 20.52C838.709 20.712 838.485 20.808 838.218 20.808ZM838.922 22.232V31H837.466V22.232H838.922ZM845.676 22.072C846.743 22.072 847.607 22.3973 848.268 23.048C848.929 23.688 849.26 24.616 849.26 25.832V31H847.82V26.04C847.82 25.1653 847.601 24.4987 847.164 24.04C846.727 23.5707 846.129 23.336 845.372 23.336C844.604 23.336 843.991 23.576 843.532 24.056C843.084 24.536 842.86 25.2347 842.86 26.152V31H841.404V22.232H842.86V23.48C843.148 23.032 843.537 22.6853 844.028 22.44C844.529 22.1947 845.079 22.072 845.676 22.072ZM855.254 22.088C856.012 22.088 856.673 22.2533 857.238 22.584C857.814 22.9147 858.241 23.3307 858.518 23.832V22.232H859.99V31.192C859.99 31.992 859.82 32.7013 859.478 33.32C859.137 33.9493 858.646 34.44 858.006 34.792C857.377 35.144 856.641 35.32 855.798 35.32C854.646 35.32 853.686 35.048 852.918 34.504C852.15 33.96 851.697 33.2187 851.558 32.28H852.998C853.158 32.8133 853.489 33.24 853.99 33.56C854.492 33.8907 855.094 34.056 855.798 34.056C856.598 34.056 857.249 33.8053 857.75 33.304C858.262 32.8027 858.518 32.0987 858.518 31.192V29.352C858.23 29.864 857.804 30.2907 857.238 30.632C856.673 30.9733 856.012 31.144 855.254 31.144C854.476 31.144 853.766 30.952 853.126 30.568C852.497 30.184 852.001 29.6453 851.638 28.952C851.276 28.2587 851.094 27.4693 851.094 26.584C851.094 25.688 851.276 24.904 851.638 24.232C852.001 23.5493 852.497 23.0213 853.126 22.648C853.766 22.2747 854.476 22.088 855.254 22.088ZM858.518 26.6C858.518 25.9387 858.385 25.3627 858.118 24.872C857.852 24.3813 857.489 24.008 857.03 23.752C856.582 23.4853 856.086 23.352 855.542 23.352C854.998 23.352 854.502 23.48 854.054 23.736C853.606 23.992 853.249 24.3653 852.982 24.856C852.716 25.3467 852.582 25.9227 852.582 26.584C852.582 27.256 852.716 27.8427 852.982 28.344C853.249 28.8347 853.606 29.2133 854.054 29.48C854.502 29.736 854.998 29.864 855.542 29.864C856.086 29.864 856.582 29.736 857.03 29.48C857.489 29.2133 857.852 28.8347 858.118 28.344C858.385 27.8427 858.518 27.2613 858.518 26.6ZM740.008 45.232V54H738.552V52.704C738.275 53.152 737.885 53.504 737.384 53.76C736.893 54.0053 736.349 54.128 735.752 54.128C735.069 54.128 734.456 53.9893 733.912 53.712C733.368 53.424 732.936 52.9973 732.616 52.432C732.307 51.8667 732.152 51.1787 732.152 50.368V45.232H733.592V50.176C733.592 51.04 733.811 51.7067 734.248 52.176C734.685 52.6347 735.283 52.864 736.04 52.864C736.819 52.864 737.432 52.624 737.88 52.144C738.328 51.664 738.552 50.9653 738.552 50.048V45.232H740.008ZM745.57 54.144C744.898 54.144 744.296 54.032 743.762 53.808C743.229 53.5733 742.808 53.2533 742.498 52.848C742.189 52.432 742.018 51.9573 741.986 51.424H743.49C743.533 51.8613 743.736 52.2187 744.098 52.496C744.472 52.7733 744.957 52.912 745.554 52.912C746.109 52.912 746.546 52.7893 746.866 52.544C747.186 52.2987 747.346 51.9893 747.346 51.616C747.346 51.232 747.176 50.9493 746.834 50.768C746.493 50.576 745.965 50.3893 745.25 50.208C744.6 50.0373 744.066 49.8667 743.65 49.696C743.245 49.5147 742.893 49.2533 742.594 48.912C742.306 48.56 742.162 48.1013 742.162 47.536C742.162 47.088 742.296 46.6773 742.562 46.304C742.829 45.9307 743.208 45.6373 743.698 45.424C744.189 45.2 744.749 45.088 745.378 45.088C746.349 45.088 747.133 45.3333 747.73 45.824C748.328 46.3147 748.648 46.9867 748.69 47.84H747.234C747.202 47.3813 747.016 47.0133 746.674 46.736C746.344 46.4587 745.896 46.32 745.33 46.32C744.808 46.32 744.392 46.432 744.082 46.656C743.773 46.88 743.618 47.1733 743.618 47.536C743.618 47.824 743.709 48.064 743.89 48.256C744.082 48.4373 744.317 48.5867 744.594 48.704C744.882 48.8107 745.277 48.9333 745.778 49.072C746.408 49.2427 746.92 49.4133 747.314 49.584C747.709 49.744 748.045 49.9893 748.322 50.32C748.61 50.6507 748.76 51.0827 748.77 51.616C748.77 52.096 748.637 52.528 748.37 52.912C748.104 53.296 747.725 53.6 747.234 53.824C746.754 54.0373 746.2 54.144 745.57 54.144ZM758.826 49.28C758.826 49.5573 758.81 49.8507 758.778 50.16H751.77C751.823 51.024 752.116 51.7013 752.65 52.192C753.194 52.672 753.85 52.912 754.618 52.912C755.247 52.912 755.77 52.768 756.186 52.48C756.612 52.1813 756.911 51.7867 757.082 51.296H758.65C758.415 52.1387 757.946 52.8267 757.242 53.36C756.538 53.8827 755.663 54.144 754.618 54.144C753.786 54.144 753.039 53.9573 752.378 53.584C751.727 53.2107 751.215 52.6827 750.842 52C750.468 51.3067 750.282 50.5067 750.282 49.6C750.282 48.6933 750.463 47.8987 750.826 47.216C751.188 46.5333 751.695 46.0107 752.346 45.648C753.007 45.2747 753.764 45.088 754.618 45.088C755.45 45.088 756.186 45.2693 756.826 45.632C757.466 45.9947 757.956 46.496 758.298 47.136C758.65 47.7653 758.826 48.48 758.826 49.28ZM757.322 48.976C757.322 48.4213 757.199 47.9467 756.954 47.552C756.708 47.1467 756.372 46.8427 755.946 46.64C755.53 46.4267 755.066 46.32 754.554 46.32C753.818 46.32 753.188 46.5547 752.666 47.024C752.154 47.4933 751.86 48.144 751.786 48.976H757.322ZM764.316 46.432H762.476V54H761.02V46.432H759.884V45.232H761.02V44.608C761.02 43.6267 761.27 42.912 761.772 42.464C762.284 42.0053 763.1 41.776 764.22 41.776V42.992C763.58 42.992 763.126 43.12 762.86 43.376C762.604 43.6213 762.476 44.032 762.476 44.608V45.232H764.316V46.432ZM773.789 45.232V54H772.333V52.704C772.056 53.152 771.667 53.504 771.165 53.76C770.675 54.0053 770.131 54.128 769.533 54.128C768.851 54.128 768.237 53.9893 767.693 53.712C767.149 53.424 766.717 52.9973 766.397 52.432C766.088 51.8667 765.933 51.1787 765.933 50.368V45.232H767.373V50.176C767.373 51.04 767.592 51.7067 768.029 52.176C768.467 52.6347 769.064 52.864 769.821 52.864C770.6 52.864 771.213 52.624 771.661 52.144C772.109 51.664 772.333 50.9653 772.333 50.048V45.232H773.789ZM777.704 42.16V54H776.248V42.16H777.704ZM781.641 42.16V54H780.185V42.16H781.641Z" fill="#012B55"/>
<mask id="path-9-inside-1_1074_2178" fill="white">
<rect x="19" y="23" width="27" height="27" rx="2"/>
</mask>
<rect x="19" y="23" width="27" height="27" rx="2" fill="white" stroke="#999898" stroke-width="6" mask="url(#path-9-inside-1_1074_2178)"/>
<mask id="path-10-inside-2_1074_2178" fill="white">
<rect x="230" y="23" width="27" height="27" rx="2"/>
</mask>
<rect x="230" y="23" width="27" height="27" rx="2" fill="white" stroke="#999898" stroke-width="6" mask="url(#path-10-inside-2_1074_2178)"/>
<mask id="path-11-inside-3_1074_2178" fill="white">
<rect x="441" y="23" width="27" height="27" rx="2"/>
</mask>
<rect x="441" y="23" width="27" height="27" rx="2" fill="white" stroke="#999898" stroke-width="6" mask="url(#path-11-inside-3_1074_2178)"/>
<mask id="path-12-inside-4_1074_2178" fill="white">
<rect x="682" y="23" width="27" height="27" rx="2"/>
</mask>
<rect x="682" y="23" width="27" height="27" rx="2" fill="white" stroke="#999898" stroke-width="6" mask="url(#path-12-inside-4_1074_2178)"/>
</svg>
