<svg width="643" height="71" viewBox="0 0 643 71" fill="none" xmlns="http://www.w3.org/2000/svg">
<rect width="161" height="71" rx="4" fill="#FFF8E6"/>
<rect x="216" width="161" height="71" rx="4" fill="#E2FFDD"/>
<rect x="432" width="211" height="71" rx="4" fill="#E6FDFF"/>
<path d="M76.688 23.112C76.688 24.04 76.368 24.8133 75.728 25.432C75.0987 26.04 74.1333 26.344 72.832 26.344H70.688V31H69.232V19.848H72.832C74.0907 19.848 75.0453 20.152 75.696 20.76C76.3573 21.368 76.688 22.152 76.688 23.112ZM72.832 25.144C73.6427 25.144 74.24 24.968 74.624 24.616C75.008 24.264 75.2 23.7627 75.2 23.112C75.2 21.736 74.4107 21.048 72.832 21.048H70.688V25.144H72.832ZM79.9536 23.656C80.2096 23.1547 80.5723 22.7653 81.0416 22.488C81.5216 22.2107 82.103 22.072 82.7856 22.072V23.576H82.4016C80.7696 23.576 79.9536 24.4613 79.9536 26.232V31H78.4976V22.232H79.9536V23.656ZM88.2904 31.144C87.469 31.144 86.7224 30.9573 86.0504 30.584C85.389 30.2107 84.8664 29.6827 84.4824 29C84.109 28.3067 83.9224 27.5067 83.9224 26.6C83.9224 25.704 84.1144 24.9147 84.4984 24.232C84.893 23.5387 85.4264 23.0107 86.0984 22.648C86.7704 22.2747 87.5224 22.088 88.3544 22.088C89.1864 22.088 89.9384 22.2747 90.6104 22.648C91.2824 23.0107 91.8104 23.5333 92.1944 24.216C92.589 24.8987 92.7864 25.6933 92.7864 26.6C92.7864 27.5067 92.5837 28.3067 92.1784 29C91.7837 29.6827 91.245 30.2107 90.5624 30.584C89.8797 30.9573 89.1224 31.144 88.2904 31.144ZM88.2904 29.864C88.813 29.864 89.3037 29.7413 89.7624 29.496C90.221 29.2507 90.589 28.8827 90.8664 28.392C91.1544 27.9013 91.2984 27.304 91.2984 26.6C91.2984 25.896 91.1597 25.2987 90.8824 24.808C90.605 24.3173 90.2424 23.9547 89.7944 23.72C89.3464 23.4747 88.861 23.352 88.3384 23.352C87.805 23.352 87.3144 23.4747 86.8664 23.72C86.429 23.9547 86.077 24.3173 85.8104 24.808C85.5437 25.2987 85.4104 25.896 85.4104 26.6C85.4104 27.3147 85.5384 27.9173 85.7944 28.408C86.061 28.8987 86.413 29.2667 86.8504 29.512C87.2877 29.7467 87.7677 29.864 88.2904 29.864ZM97.9648 29.656L100.685 22.232H102.237L98.7968 31H97.1008L93.6608 22.232H95.2288L97.9648 29.656ZM104.422 20.808C104.144 20.808 103.91 20.712 103.718 20.52C103.526 20.328 103.43 20.0933 103.43 19.816C103.43 19.5387 103.526 19.304 103.718 19.112C103.91 18.92 104.144 18.824 104.422 18.824C104.688 18.824 104.912 18.92 105.094 19.112C105.286 19.304 105.382 19.5387 105.382 19.816C105.382 20.0933 105.286 20.328 105.094 20.52C104.912 20.712 104.688 20.808 104.422 20.808ZM105.126 22.232V31H103.67V22.232H105.126ZM107.063 26.584C107.063 25.688 107.244 24.904 107.607 24.232C107.97 23.5493 108.466 23.0213 109.095 22.648C109.735 22.2747 110.45 22.088 111.239 22.088C111.922 22.088 112.556 22.248 113.143 22.568C113.73 22.8773 114.178 23.288 114.487 23.8V19.16H115.959V31H114.487V29.352C114.199 29.8747 113.772 30.3067 113.207 30.648C112.642 30.9787 111.98 31.144 111.223 31.144C110.444 31.144 109.735 30.952 109.095 30.568C108.466 30.184 107.97 29.6453 107.607 28.952C107.244 28.2587 107.063 27.4693 107.063 26.584ZM114.487 26.6C114.487 25.9387 114.354 25.3627 114.087 24.872C113.82 24.3813 113.458 24.008 112.999 23.752C112.551 23.4853 112.055 23.352 111.511 23.352C110.967 23.352 110.471 23.48 110.023 23.736C109.575 23.992 109.218 24.3653 108.951 24.856C108.684 25.3467 108.551 25.9227 108.551 26.584C108.551 27.256 108.684 27.8427 108.951 28.344C109.218 28.8347 109.575 29.2133 110.023 29.48C110.471 29.736 110.967 29.864 111.511 29.864C112.055 29.864 112.551 29.736 112.999 29.48C113.458 29.2133 113.82 28.8347 114.087 28.344C114.354 27.8427 114.487 27.2613 114.487 26.6ZM126.42 26.28C126.42 26.5573 126.404 26.8507 126.372 27.16H119.364C119.417 28.024 119.71 28.7013 120.244 29.192C120.788 29.672 121.444 29.912 122.212 29.912C122.841 29.912 123.364 29.768 123.78 29.48C124.206 29.1813 124.505 28.7867 124.676 28.296H126.244C126.009 29.1387 125.54 29.8267 124.836 30.36C124.132 30.8827 123.257 31.144 122.212 31.144C121.38 31.144 120.633 30.9573 119.972 30.584C119.321 30.2107 118.809 29.6827 118.436 29C118.062 28.3067 117.876 27.5067 117.876 26.6C117.876 25.6933 118.057 24.8987 118.42 24.216C118.782 23.5333 119.289 23.0107 119.94 22.648C120.601 22.2747 121.358 22.088 122.212 22.088C123.044 22.088 123.78 22.2693 124.42 22.632C125.06 22.9947 125.55 23.496 125.892 24.136C126.244 24.7653 126.42 25.48 126.42 26.28ZM124.916 25.976C124.916 25.4213 124.793 24.9467 124.548 24.552C124.302 24.1467 123.966 23.8427 123.54 23.64C123.124 23.4267 122.66 23.32 122.148 23.32C121.412 23.32 120.782 23.5547 120.26 24.024C119.748 24.4933 119.454 25.144 119.38 25.976H124.916ZM132.063 26.584C132.063 25.688 132.244 24.904 132.607 24.232C132.97 23.5493 133.466 23.0213 134.095 22.648C134.735 22.2747 135.444 22.088 136.223 22.088C136.991 22.088 137.658 22.2533 138.223 22.584C138.788 22.9147 139.21 23.3307 139.487 23.832V22.232H140.959V31H139.487V29.368C139.199 29.88 138.767 30.3067 138.191 30.648C137.626 30.9787 136.964 31.144 136.207 31.144C135.428 31.144 134.724 30.952 134.095 30.568C133.466 30.184 132.97 29.6453 132.607 28.952C132.244 28.2587 132.063 27.4693 132.063 26.584ZM139.487 26.6C139.487 25.9387 139.354 25.3627 139.087 24.872C138.82 24.3813 138.458 24.008 137.999 23.752C137.551 23.4853 137.055 23.352 136.511 23.352C135.967 23.352 135.471 23.48 135.023 23.736C134.575 23.992 134.218 24.3653 133.951 24.856C133.684 25.3467 133.551 25.9227 133.551 26.584C133.551 27.256 133.684 27.8427 133.951 28.344C134.218 28.8347 134.575 29.2133 135.023 29.48C135.471 29.736 135.967 29.864 136.511 29.864C137.055 29.864 137.551 29.736 137.999 29.48C138.458 29.2133 138.82 28.8347 139.087 28.344C139.354 27.8427 139.487 27.2613 139.487 26.6ZM70.688 46.656C70.944 46.1547 71.3067 45.7653 71.776 45.488C72.256 45.2107 72.8373 45.072 73.52 45.072V46.576H73.136C71.504 46.576 70.688 47.4613 70.688 49.232V54H69.232V45.232H70.688V46.656ZM83.2008 49.28C83.2008 49.5573 83.1848 49.8507 83.1528 50.16H76.1448C76.1981 51.024 76.4914 51.7013 77.0248 52.192C77.5688 52.672 78.2248 52.912 78.9928 52.912C79.6221 52.912 80.1448 52.768 80.5608 52.48C80.9874 52.1813 81.2861 51.7867 81.4568 51.296H83.0248C82.7901 52.1387 82.3208 52.8267 81.6168 53.36C80.9128 53.8827 80.0381 54.144 78.9928 54.144C78.1608 54.144 77.4141 53.9573 76.7528 53.584C76.1021 53.2107 75.5901 52.6827 75.2168 52C74.8434 51.3067 74.6568 50.5067 74.6568 49.6C74.6568 48.6933 74.8381 47.8987 75.2008 47.216C75.5634 46.5333 76.0701 46.0107 76.7208 45.648C77.3821 45.2747 78.1394 45.088 78.9928 45.088C79.8248 45.088 80.5608 45.2693 81.2008 45.632C81.8408 45.9947 82.3314 46.496 82.6728 47.136C83.0248 47.7653 83.2008 48.48 83.2008 49.28ZM81.6968 48.976C81.6968 48.4213 81.5741 47.9467 81.3288 47.552C81.0834 47.1467 80.7474 46.8427 80.3208 46.64C79.9048 46.4267 79.4408 46.32 78.9288 46.32C78.1928 46.32 77.5634 46.5547 77.0408 47.024C76.5288 47.4933 76.2354 48.144 76.1608 48.976H81.6968ZM84.5786 49.584C84.5786 48.688 84.76 47.904 85.1226 47.232C85.4853 46.5493 85.9813 46.0213 86.6106 45.648C87.2506 45.2747 87.96 45.088 88.7386 45.088C89.5066 45.088 90.1733 45.2533 90.7386 45.584C91.304 45.9147 91.7253 46.3307 92.0026 46.832V45.232H93.4746V54H92.0026V52.368C91.7146 52.88 91.2826 53.3067 90.7066 53.648C90.1413 53.9787 89.48 54.144 88.7226 54.144C87.944 54.144 87.24 53.952 86.6106 53.568C85.9813 53.184 85.4853 52.6453 85.1226 51.952C84.76 51.2587 84.5786 50.4693 84.5786 49.584ZM92.0026 49.6C92.0026 48.9387 91.8693 48.3627 91.6026 47.872C91.336 47.3813 90.9733 47.008 90.5146 46.752C90.0666 46.4853 89.5706 46.352 89.0266 46.352C88.4826 46.352 87.9866 46.48 87.5386 46.736C87.0906 46.992 86.7333 47.3653 86.4666 47.856C86.2 48.3467 86.0666 48.9227 86.0666 49.584C86.0666 50.256 86.2 50.8427 86.4666 51.344C86.7333 51.8347 87.0906 52.2133 87.5386 52.48C87.9866 52.736 88.4826 52.864 89.0266 52.864C89.5706 52.864 90.0666 52.736 90.5146 52.48C90.9733 52.2133 91.336 51.8347 91.6026 51.344C91.8693 50.8427 92.0026 50.2613 92.0026 49.6ZM99.0391 54.144C98.3671 54.144 97.7645 54.032 97.2311 53.808C96.6978 53.5733 96.2765 53.2533 95.9671 52.848C95.6578 52.432 95.4871 51.9573 95.4551 51.424H96.9591C97.0018 51.8613 97.2045 52.2187 97.5671 52.496C97.9405 52.7733 98.4258 52.912 99.0231 52.912C99.5778 52.912 100.015 52.7893 100.335 52.544C100.655 52.2987 100.815 51.9893 100.815 51.616C100.815 51.232 100.644 50.9493 100.303 50.768C99.9618 50.576 99.4338 50.3893 98.7191 50.208C98.0685 50.0373 97.5351 49.8667 97.1191 49.696C96.7138 49.5147 96.3618 49.2533 96.0631 48.912C95.7751 48.56 95.6311 48.1013 95.6311 47.536C95.6311 47.088 95.7645 46.6773 96.0311 46.304C96.2978 45.9307 96.6765 45.6373 97.1671 45.424C97.6578 45.2 98.2178 45.088 98.8471 45.088C99.8178 45.088 100.602 45.3333 101.199 45.824C101.796 46.3147 102.116 46.9867 102.159 47.84H100.703C100.671 47.3813 100.484 47.0133 100.143 46.736C99.8125 46.4587 99.3645 46.32 98.7991 46.32C98.2765 46.32 97.8605 46.432 97.5511 46.656C97.2418 46.88 97.0871 47.1733 97.0871 47.536C97.0871 47.824 97.1778 48.064 97.3591 48.256C97.5511 48.4373 97.7858 48.5867 98.0631 48.704C98.3511 48.8107 98.7458 48.9333 99.2471 49.072C99.8765 49.2427 100.388 49.4133 100.783 49.584C101.178 49.744 101.514 49.9893 101.791 50.32C102.079 50.6507 102.228 51.0827 102.239 51.616C102.239 52.096 102.106 52.528 101.839 52.912C101.572 53.296 101.194 53.6 100.703 53.824C100.223 54.0373 99.6685 54.144 99.0391 54.144ZM108.119 54.144C107.297 54.144 106.551 53.9573 105.879 53.584C105.217 53.2107 104.695 52.6827 104.311 52C103.937 51.3067 103.751 50.5067 103.751 49.6C103.751 48.704 103.943 47.9147 104.327 47.232C104.721 46.5387 105.255 46.0107 105.927 45.648C106.599 45.2747 107.351 45.088 108.183 45.088C109.015 45.088 109.767 45.2747 110.439 45.648C111.111 46.0107 111.639 46.5333 112.023 47.216C112.417 47.8987 112.615 48.6933 112.615 49.6C112.615 50.5067 112.412 51.3067 112.007 52C111.612 52.6827 111.073 53.2107 110.391 53.584C109.708 53.9573 108.951 54.144 108.119 54.144ZM108.119 52.864C108.641 52.864 109.132 52.7413 109.591 52.496C110.049 52.2507 110.417 51.8827 110.695 51.392C110.983 50.9013 111.127 50.304 111.127 49.6C111.127 48.896 110.988 48.2987 110.711 47.808C110.433 47.3173 110.071 46.9547 109.623 46.72C109.175 46.4747 108.689 46.352 108.167 46.352C107.633 46.352 107.143 46.4747 106.695 46.72C106.257 46.9547 105.905 47.3173 105.639 47.808C105.372 48.2987 105.239 48.896 105.239 49.6C105.239 50.3147 105.367 50.9173 105.623 51.408C105.889 51.8987 106.241 52.2667 106.679 52.512C107.116 52.7467 107.596 52.864 108.119 52.864ZM118.801 45.072C119.868 45.072 120.732 45.3973 121.393 46.048C122.054 46.688 122.385 47.616 122.385 48.832V54H120.945V49.04C120.945 48.1653 120.726 47.4987 120.289 47.04C119.852 46.5707 119.254 46.336 118.497 46.336C117.729 46.336 117.116 46.576 116.657 47.056C116.209 47.536 115.985 48.2347 115.985 49.152V54H114.529V45.232H115.985V46.48C116.273 46.032 116.662 45.6853 117.153 45.44C117.654 45.1947 118.204 45.072 118.801 45.072Z" fill="#012B55"/>
<path d="M291.688 23.112C291.688 24.04 291.368 24.8133 290.728 25.432C290.099 26.04 289.133 26.344 287.832 26.344H285.688V31H284.232V19.848H287.832C289.091 19.848 290.045 20.152 290.696 20.76C291.357 21.368 291.688 22.152 291.688 23.112ZM287.832 25.144C288.643 25.144 289.24 24.968 289.624 24.616C290.008 24.264 290.2 23.7627 290.2 23.112C290.2 21.736 289.411 21.048 287.832 21.048H285.688V25.144H287.832ZM294.954 23.656C295.21 23.1547 295.572 22.7653 296.042 22.488C296.522 22.2107 297.103 22.072 297.786 22.072V23.576H297.402C295.77 23.576 294.954 24.4613 294.954 26.232V31H293.498V22.232H294.954V23.656ZM303.29 31.144C302.469 31.144 301.722 30.9573 301.05 30.584C300.389 30.2107 299.866 29.6827 299.482 29C299.109 28.3067 298.922 27.5067 298.922 26.6C298.922 25.704 299.114 24.9147 299.498 24.232C299.893 23.5387 300.426 23.0107 301.098 22.648C301.77 22.2747 302.522 22.088 303.354 22.088C304.186 22.088 304.938 22.2747 305.61 22.648C306.282 23.0107 306.81 23.5333 307.194 24.216C307.589 24.8987 307.786 25.6933 307.786 26.6C307.786 27.5067 307.584 28.3067 307.178 29C306.784 29.6827 306.245 30.2107 305.562 30.584C304.88 30.9573 304.122 31.144 303.29 31.144ZM303.29 29.864C303.813 29.864 304.304 29.7413 304.762 29.496C305.221 29.2507 305.589 28.8827 305.866 28.392C306.154 27.9013 306.298 27.304 306.298 26.6C306.298 25.896 306.16 25.2987 305.882 24.808C305.605 24.3173 305.242 23.9547 304.794 23.72C304.346 23.4747 303.861 23.352 303.338 23.352C302.805 23.352 302.314 23.4747 301.866 23.72C301.429 23.9547 301.077 24.3173 300.81 24.808C300.544 25.2987 300.41 25.896 300.41 26.6C300.41 27.3147 300.538 27.9173 300.794 28.408C301.061 28.8987 301.413 29.2667 301.85 29.512C302.288 29.7467 302.768 29.864 303.29 29.864ZM312.965 29.656L315.685 22.232H317.237L313.797 31H312.101L308.661 22.232H310.229L312.965 29.656ZM319.422 20.808C319.144 20.808 318.91 20.712 318.718 20.52C318.526 20.328 318.43 20.0933 318.43 19.816C318.43 19.5387 318.526 19.304 318.718 19.112C318.91 18.92 319.144 18.824 319.422 18.824C319.688 18.824 319.912 18.92 320.094 19.112C320.286 19.304 320.382 19.5387 320.382 19.816C320.382 20.0933 320.286 20.328 320.094 20.52C319.912 20.712 319.688 20.808 319.422 20.808ZM320.126 22.232V31H318.67V22.232H320.126ZM322.063 26.584C322.063 25.688 322.244 24.904 322.607 24.232C322.97 23.5493 323.466 23.0213 324.095 22.648C324.735 22.2747 325.45 22.088 326.239 22.088C326.922 22.088 327.556 22.248 328.143 22.568C328.73 22.8773 329.178 23.288 329.487 23.8V19.16H330.959V31H329.487V29.352C329.199 29.8747 328.772 30.3067 328.207 30.648C327.642 30.9787 326.98 31.144 326.223 31.144C325.444 31.144 324.735 30.952 324.095 30.568C323.466 30.184 322.97 29.6453 322.607 28.952C322.244 28.2587 322.063 27.4693 322.063 26.584ZM329.487 26.6C329.487 25.9387 329.354 25.3627 329.087 24.872C328.82 24.3813 328.458 24.008 327.999 23.752C327.551 23.4853 327.055 23.352 326.511 23.352C325.967 23.352 325.471 23.48 325.023 23.736C324.575 23.992 324.218 24.3653 323.951 24.856C323.684 25.3467 323.551 25.9227 323.551 26.584C323.551 27.256 323.684 27.8427 323.951 28.344C324.218 28.8347 324.575 29.2133 325.023 29.48C325.471 29.736 325.967 29.864 326.511 29.864C327.055 29.864 327.551 29.736 327.999 29.48C328.458 29.2133 328.82 28.8347 329.087 28.344C329.354 27.8427 329.487 27.2613 329.487 26.6ZM341.42 26.28C341.42 26.5573 341.404 26.8507 341.372 27.16H334.364C334.417 28.024 334.71 28.7013 335.244 29.192C335.788 29.672 336.444 29.912 337.212 29.912C337.841 29.912 338.364 29.768 338.78 29.48C339.206 29.1813 339.505 28.7867 339.676 28.296H341.244C341.009 29.1387 340.54 29.8267 339.836 30.36C339.132 30.8827 338.257 31.144 337.212 31.144C336.38 31.144 335.633 30.9573 334.972 30.584C334.321 30.2107 333.809 29.6827 333.436 29C333.062 28.3067 332.876 27.5067 332.876 26.6C332.876 25.6933 333.057 24.8987 333.42 24.216C333.782 23.5333 334.289 23.0107 334.94 22.648C335.601 22.2747 336.358 22.088 337.212 22.088C338.044 22.088 338.78 22.2693 339.42 22.632C340.06 22.9947 340.55 23.496 340.892 24.136C341.244 24.7653 341.42 25.48 341.42 26.28ZM339.916 25.976C339.916 25.4213 339.793 24.9467 339.548 24.552C339.302 24.1467 338.966 23.8427 338.54 23.64C338.124 23.4267 337.66 23.32 337.148 23.32C336.412 23.32 335.782 23.5547 335.26 24.024C334.748 24.4933 334.454 25.144 334.38 25.976H339.916ZM347.063 26.584C347.063 25.688 347.244 24.904 347.607 24.232C347.97 23.5493 348.466 23.0213 349.095 22.648C349.735 22.2747 350.444 22.088 351.223 22.088C351.991 22.088 352.658 22.2533 353.223 22.584C353.788 22.9147 354.21 23.3307 354.487 23.832V22.232H355.959V31H354.487V29.368C354.199 29.88 353.767 30.3067 353.191 30.648C352.626 30.9787 351.964 31.144 351.207 31.144C350.428 31.144 349.724 30.952 349.095 30.568C348.466 30.184 347.97 29.6453 347.607 28.952C347.244 28.2587 347.063 27.4693 347.063 26.584ZM354.487 26.6C354.487 25.9387 354.354 25.3627 354.087 24.872C353.82 24.3813 353.458 24.008 352.999 23.752C352.551 23.4853 352.055 23.352 351.511 23.352C350.967 23.352 350.471 23.48 350.023 23.736C349.575 23.992 349.218 24.3653 348.951 24.856C348.684 25.3467 348.551 25.9227 348.551 26.584C348.551 27.256 348.684 27.8427 348.951 28.344C349.218 28.8347 349.575 29.2133 350.023 29.48C350.471 29.736 350.967 29.864 351.511 29.864C352.055 29.864 352.551 29.736 352.999 29.48C353.458 29.2133 353.82 28.8347 354.087 28.344C354.354 27.8427 354.487 27.2613 354.487 26.6ZM291.688 46.112C291.688 47.04 291.368 47.8133 290.728 48.432C290.099 49.04 289.133 49.344 287.832 49.344H285.688V54H284.232V42.848H287.832C289.091 42.848 290.045 43.152 290.696 43.76C291.357 44.368 291.688 45.152 291.688 46.112ZM287.832 48.144C288.643 48.144 289.24 47.968 289.624 47.616C290.008 47.264 290.2 46.7627 290.2 46.112C290.2 44.736 289.411 44.048 287.832 44.048H285.688V48.144H287.832ZM294.954 42.16V54H293.498V42.16H294.954ZM296.891 49.584C296.891 48.688 297.072 47.904 297.435 47.232C297.798 46.5493 298.294 46.0213 298.923 45.648C299.563 45.2747 300.272 45.088 301.051 45.088C301.819 45.088 302.486 45.2533 303.051 45.584C303.616 45.9147 304.038 46.3307 304.315 46.832V45.232H305.787V54H304.315V52.368C304.027 52.88 303.595 53.3067 303.019 53.648C302.454 53.9787 301.792 54.144 301.035 54.144C300.256 54.144 299.552 53.952 298.923 53.568C298.294 53.184 297.798 52.6453 297.435 51.952C297.072 51.2587 296.891 50.4693 296.891 49.584ZM304.315 49.6C304.315 48.9387 304.182 48.3627 303.915 47.872C303.648 47.3813 303.286 47.008 302.827 46.752C302.379 46.4853 301.883 46.352 301.339 46.352C300.795 46.352 300.299 46.48 299.851 46.736C299.403 46.992 299.046 47.3653 298.779 47.856C298.512 48.3467 298.379 48.9227 298.379 49.584C298.379 50.256 298.512 50.8427 298.779 51.344C299.046 51.8347 299.403 52.2133 299.851 52.48C300.299 52.736 300.795 52.864 301.339 52.864C301.883 52.864 302.379 52.736 302.827 52.48C303.286 52.2133 303.648 51.8347 303.915 51.344C304.182 50.8427 304.315 50.2613 304.315 49.6ZM310.024 46.432V51.6C310.024 52.0267 310.114 52.3307 310.296 52.512C310.477 52.6827 310.792 52.768 311.24 52.768H312.312V54H311C310.189 54 309.581 53.8133 309.176 53.44C308.77 53.0667 308.568 52.4533 308.568 51.6V46.432H307.432V45.232H308.568V43.024H310.024V45.232H312.312V46.432H310.024ZM317.644 46.432H315.804V54H314.348V46.432H313.212V45.232H314.348V44.608C314.348 43.6267 314.598 42.912 315.1 42.464C315.612 42.0053 316.428 41.776 317.548 41.776V42.992C316.908 42.992 316.454 43.12 316.188 43.376C315.932 43.6213 315.804 44.032 315.804 44.608V45.232H317.644V46.432ZM323.165 54.144C322.344 54.144 321.597 53.9573 320.925 53.584C320.264 53.2107 319.741 52.6827 319.357 52C318.984 51.3067 318.797 50.5067 318.797 49.6C318.797 48.704 318.989 47.9147 319.373 47.232C319.768 46.5387 320.301 46.0107 320.973 45.648C321.645 45.2747 322.397 45.088 323.229 45.088C324.061 45.088 324.813 45.2747 325.485 45.648C326.157 46.0107 326.685 46.5333 327.069 47.216C327.464 47.8987 327.661 48.6933 327.661 49.6C327.661 50.5067 327.459 51.3067 327.053 52C326.659 52.6827 326.12 53.2107 325.437 53.584C324.755 53.9573 323.997 54.144 323.165 54.144ZM323.165 52.864C323.688 52.864 324.179 52.7413 324.637 52.496C325.096 52.2507 325.464 51.8827 325.741 51.392C326.029 50.9013 326.173 50.304 326.173 49.6C326.173 48.896 326.035 48.2987 325.757 47.808C325.48 47.3173 325.117 46.9547 324.669 46.72C324.221 46.4747 323.736 46.352 323.213 46.352C322.68 46.352 322.189 46.4747 321.741 46.72C321.304 46.9547 320.952 47.3173 320.685 47.808C320.419 48.2987 320.285 48.896 320.285 49.6C320.285 50.3147 320.413 50.9173 320.669 51.408C320.936 51.8987 321.288 52.2667 321.725 52.512C322.163 52.7467 322.643 52.864 323.165 52.864ZM331.032 46.656C331.288 46.1547 331.65 45.7653 332.12 45.488C332.6 45.2107 333.181 45.072 333.864 45.072V46.576H333.48C331.848 46.576 331.032 47.4613 331.032 49.232V54H329.576V45.232H331.032V46.656ZM346.089 45.072C346.771 45.072 347.379 45.216 347.913 45.504C348.446 45.7813 348.867 46.2027 349.177 46.768C349.486 47.3333 349.641 48.0213 349.641 48.832V54H348.201V49.04C348.201 48.1653 347.982 47.4987 347.545 47.04C347.118 46.5707 346.537 46.336 345.801 46.336C345.043 46.336 344.441 46.5813 343.993 47.072C343.545 47.552 343.321 48.2507 343.321 49.168V54H341.881V49.04C341.881 48.1653 341.662 47.4987 341.225 47.04C340.798 46.5707 340.217 46.336 339.481 46.336C338.723 46.336 338.121 46.5813 337.673 47.072C337.225 47.552 337.001 48.2507 337.001 49.168V54H335.545V45.232H337.001V46.496C337.289 46.0373 337.673 45.6853 338.153 45.44C338.643 45.1947 339.182 45.072 339.769 45.072C340.505 45.072 341.155 45.2373 341.721 45.568C342.286 45.8987 342.707 46.384 342.985 47.024C343.23 46.4053 343.635 45.9253 344.201 45.584C344.766 45.2427 345.395 45.072 346.089 45.072Z" fill="#012B55"/>
<path d="M509.544 19.928V31H508.088V22.744L504.408 31H503.384L499.688 22.728V31H498.232V19.928H499.8L503.896 29.08L507.992 19.928H509.544ZM511.469 26.584C511.469 25.688 511.651 24.904 512.013 24.232C512.376 23.5493 512.872 23.0213 513.501 22.648C514.141 22.2747 514.851 22.088 515.629 22.088C516.397 22.088 517.064 22.2533 517.629 22.584C518.195 22.9147 518.616 23.3307 518.893 23.832V22.232H520.365V31H518.893V29.368C518.605 29.88 518.173 30.3067 517.597 30.648C517.032 30.9787 516.371 31.144 515.613 31.144C514.835 31.144 514.131 30.952 513.501 30.568C512.872 30.184 512.376 29.6453 512.013 28.952C511.651 28.2587 511.469 27.4693 511.469 26.584ZM518.893 26.6C518.893 25.9387 518.76 25.3627 518.493 24.872C518.227 24.3813 517.864 24.008 517.405 23.752C516.957 23.4853 516.461 23.352 515.917 23.352C515.373 23.352 514.877 23.48 514.429 23.736C513.981 23.992 513.624 24.3653 513.357 24.856C513.091 25.3467 512.957 25.9227 512.957 26.584C512.957 27.256 513.091 27.8427 513.357 28.344C513.624 28.8347 513.981 29.2133 514.429 29.48C514.877 29.736 515.373 29.864 515.917 29.864C516.461 29.864 516.957 29.736 517.405 29.48C517.864 29.2133 518.227 28.8347 518.493 28.344C518.76 27.8427 518.893 27.2613 518.893 26.6ZM527.722 31L524.282 27.128V31H522.826V19.16H524.282V26.12L527.658 22.232H529.69L525.562 26.6L529.706 31H527.722ZM539.06 26.28C539.06 26.5573 539.044 26.8507 539.012 27.16H532.004C532.057 28.024 532.351 28.7013 532.884 29.192C533.428 29.672 534.084 29.912 534.852 29.912C535.481 29.912 536.004 29.768 536.42 29.48C536.847 29.1813 537.145 28.7867 537.316 28.296H538.884C538.649 29.1387 538.18 29.8267 537.476 30.36C536.772 30.8827 535.897 31.144 534.852 31.144C534.02 31.144 533.273 30.9573 532.612 30.584C531.961 30.2107 531.449 29.6827 531.076 29C530.703 28.3067 530.516 27.5067 530.516 26.6C530.516 25.6933 530.697 24.8987 531.06 24.216C531.423 23.5333 531.929 23.0107 532.58 22.648C533.241 22.2747 533.999 22.088 534.852 22.088C535.684 22.088 536.42 22.2693 537.06 22.632C537.7 22.9947 538.191 23.496 538.532 24.136C538.884 24.7653 539.06 25.48 539.06 26.28ZM537.556 25.976C537.556 25.4213 537.433 24.9467 537.188 24.552C536.943 24.1467 536.607 23.8427 536.18 23.64C535.764 23.4267 535.3 23.32 534.788 23.32C534.052 23.32 533.423 23.5547 532.9 24.024C532.388 24.4933 532.095 25.144 532.02 25.976H537.556ZM548.352 31.144C547.68 31.144 547.077 31.032 546.544 30.808C546.01 30.5733 545.589 30.2533 545.28 29.848C544.97 29.432 544.8 28.9573 544.768 28.424H546.272C546.314 28.8613 546.517 29.2187 546.88 29.496C547.253 29.7733 547.738 29.912 548.336 29.912C548.89 29.912 549.328 29.7893 549.648 29.544C549.968 29.2987 550.128 28.9893 550.128 28.616C550.128 28.232 549.957 27.9493 549.616 27.768C549.274 27.576 548.746 27.3893 548.032 27.208C547.381 27.0373 546.848 26.8667 546.432 26.696C546.026 26.5147 545.674 26.2533 545.376 25.912C545.088 25.56 544.944 25.1013 544.944 24.536C544.944 24.088 545.077 23.6773 545.344 23.304C545.61 22.9307 545.989 22.6373 546.48 22.424C546.97 22.2 547.53 22.088 548.16 22.088C549.13 22.088 549.914 22.3333 550.512 22.824C551.109 23.3147 551.429 23.9867 551.472 24.84H550.016C549.984 24.3813 549.797 24.0133 549.456 23.736C549.125 23.4587 548.677 23.32 548.112 23.32C547.589 23.32 547.173 23.432 546.864 23.656C546.554 23.88 546.4 24.1733 546.4 24.536C546.4 24.824 546.49 25.064 546.672 25.256C546.864 25.4373 547.098 25.5867 547.376 25.704C547.664 25.8107 548.058 25.9333 548.56 26.072C549.189 26.2427 549.701 26.4133 550.096 26.584C550.49 26.744 550.826 26.9893 551.104 27.32C551.392 27.6507 551.541 28.0827 551.552 28.616C551.552 29.096 551.418 29.528 551.152 29.912C550.885 30.296 550.506 30.6 550.016 30.824C549.536 31.0373 548.981 31.144 548.352 31.144ZM557.431 31.144C556.61 31.144 555.863 30.9573 555.191 30.584C554.53 30.2107 554.007 29.6827 553.623 29C553.25 28.3067 553.063 27.5067 553.063 26.6C553.063 25.704 553.255 24.9147 553.639 24.232C554.034 23.5387 554.567 23.0107 555.239 22.648C555.911 22.2747 556.663 22.088 557.495 22.088C558.327 22.088 559.079 22.2747 559.751 22.648C560.423 23.0107 560.951 23.5333 561.335 24.216C561.73 24.8987 561.927 25.6933 561.927 26.6C561.927 27.5067 561.724 28.3067 561.319 29C560.924 29.6827 560.386 30.2107 559.703 30.584C559.02 30.9573 558.263 31.144 557.431 31.144ZM557.431 29.864C557.954 29.864 558.444 29.7413 558.903 29.496C559.362 29.2507 559.73 28.8827 560.007 28.392C560.295 27.9013 560.439 27.304 560.439 26.6C560.439 25.896 560.3 25.2987 560.023 24.808C559.746 24.3173 559.383 23.9547 558.935 23.72C558.487 23.4747 558.002 23.352 557.479 23.352C556.946 23.352 556.455 23.4747 556.007 23.72C555.57 23.9547 555.218 24.3173 554.951 24.808C554.684 25.2987 554.551 25.896 554.551 26.6C554.551 27.3147 554.679 27.9173 554.935 28.408C555.202 28.8987 555.554 29.2667 555.991 29.512C556.428 29.7467 556.908 29.864 557.431 29.864ZM563.297 26.6C563.297 25.6933 563.479 24.904 563.841 24.232C564.204 23.5493 564.705 23.0213 565.345 22.648C565.996 22.2747 566.737 22.088 567.569 22.088C568.647 22.088 569.532 22.3493 570.225 22.872C570.929 23.3947 571.393 24.12 571.617 25.048H570.049C569.9 24.5147 569.607 24.0933 569.169 23.784C568.743 23.4747 568.209 23.32 567.569 23.32C566.737 23.32 566.065 23.608 565.553 24.184C565.041 24.7493 564.785 25.5547 564.785 26.6C564.785 27.656 565.041 28.472 565.553 29.048C566.065 29.624 566.737 29.912 567.569 29.912C568.209 29.912 568.743 29.7627 569.169 29.464C569.596 29.1653 569.889 28.7387 570.049 28.184H571.617C571.383 29.08 570.913 29.8 570.209 30.344C569.505 30.8773 568.625 31.144 567.569 31.144C566.737 31.144 565.996 30.9573 565.345 30.584C564.705 30.2107 564.204 29.6827 563.841 29C563.479 28.3173 563.297 27.5173 563.297 26.6ZM574.312 20.808C574.035 20.808 573.8 20.712 573.608 20.52C573.416 20.328 573.32 20.0933 573.32 19.816C573.32 19.5387 573.416 19.304 573.608 19.112C573.8 18.92 574.035 18.824 574.312 18.824C574.579 18.824 574.803 18.92 574.984 19.112C575.176 19.304 575.272 19.5387 575.272 19.816C575.272 20.0933 575.176 20.328 574.984 20.52C574.803 20.712 574.579 20.808 574.312 20.808ZM575.016 22.232V31H573.56V22.232H575.016ZM576.954 26.584C576.954 25.688 577.135 24.904 577.498 24.232C577.86 23.5493 578.356 23.0213 578.986 22.648C579.626 22.2747 580.335 22.088 581.114 22.088C581.882 22.088 582.548 22.2533 583.114 22.584C583.679 22.9147 584.1 23.3307 584.378 23.832V22.232H585.85V31H584.378V29.368C584.09 29.88 583.658 30.3067 583.082 30.648C582.516 30.9787 581.855 31.144 581.098 31.144C580.319 31.144 579.615 30.952 578.986 30.568C578.356 30.184 577.86 29.6453 577.498 28.952C577.135 28.2587 576.954 27.4693 576.954 26.584ZM584.378 26.6C584.378 25.9387 584.244 25.3627 583.978 24.872C583.711 24.3813 583.348 24.008 582.89 23.752C582.442 23.4853 581.946 23.352 581.402 23.352C580.858 23.352 580.362 23.48 579.914 23.736C579.466 23.992 579.108 24.3653 578.842 24.856C578.575 25.3467 578.442 25.9227 578.442 26.584C578.442 27.256 578.575 27.8427 578.842 28.344C579.108 28.8347 579.466 29.2133 579.914 29.48C580.362 29.736 580.858 29.864 581.402 29.864C581.946 29.864 582.442 29.736 582.89 29.48C583.348 29.2133 583.711 28.8347 583.978 28.344C584.244 27.8427 584.378 27.2613 584.378 26.6ZM589.766 19.16V31H588.31V19.16H589.766ZM593 20.808C592.722 20.808 592.488 20.712 592.296 20.52C592.104 20.328 592.008 20.0933 592.008 19.816C592.008 19.5387 592.104 19.304 592.296 19.112C592.488 18.92 592.722 18.824 593 18.824C593.266 18.824 593.49 18.92 593.672 19.112C593.864 19.304 593.96 19.5387 593.96 19.816C593.96 20.0933 593.864 20.328 593.672 20.52C593.49 20.712 593.266 20.808 593 20.808ZM593.704 22.232V31H592.248V22.232H593.704ZM597.273 29.8H601.577V31H595.609V29.8L599.865 23.416H595.641V22.232H601.545V23.416L597.273 29.8ZM604.218 20.808C603.941 20.808 603.706 20.712 603.514 20.52C603.322 20.328 603.226 20.0933 603.226 19.816C603.226 19.5387 603.322 19.304 603.514 19.112C603.706 18.92 603.941 18.824 604.218 18.824C604.485 18.824 604.709 18.92 604.89 19.112C605.082 19.304 605.178 19.5387 605.178 19.816C605.178 20.0933 605.082 20.328 604.89 20.52C604.709 20.712 604.485 20.808 604.218 20.808ZM604.922 22.232V31H603.466V22.232H604.922ZM611.676 22.072C612.743 22.072 613.607 22.3973 614.268 23.048C614.929 23.688 615.26 24.616 615.26 25.832V31H613.82V26.04C613.82 25.1653 613.601 24.4987 613.164 24.04C612.727 23.5707 612.129 23.336 611.372 23.336C610.604 23.336 609.991 23.576 609.532 24.056C609.084 24.536 608.86 25.2347 608.86 26.152V31H607.404V22.232H608.86V23.48C609.148 23.032 609.537 22.6853 610.028 22.44C610.529 22.1947 611.079 22.072 611.676 22.072ZM621.254 22.088C622.012 22.088 622.673 22.2533 623.238 22.584C623.814 22.9147 624.241 23.3307 624.518 23.832V22.232H625.99V31.192C625.99 31.992 625.82 32.7013 625.478 33.32C625.137 33.9493 624.646 34.44 624.006 34.792C623.377 35.144 622.641 35.32 621.798 35.32C620.646 35.32 619.686 35.048 618.918 34.504C618.15 33.96 617.697 33.2187 617.558 32.28H618.998C619.158 32.8133 619.489 33.24 619.99 33.56C620.492 33.8907 621.094 34.056 621.798 34.056C622.598 34.056 623.249 33.8053 623.75 33.304C624.262 32.8027 624.518 32.0987 624.518 31.192V29.352C624.23 29.864 623.804 30.2907 623.238 30.632C622.673 30.9733 622.012 31.144 621.254 31.144C620.476 31.144 619.766 30.952 619.126 30.568C618.497 30.184 618.001 29.6453 617.638 28.952C617.276 28.2587 617.094 27.4693 617.094 26.584C617.094 25.688 617.276 24.904 617.638 24.232C618.001 23.5493 618.497 23.0213 619.126 22.648C619.766 22.2747 620.476 22.088 621.254 22.088ZM624.518 26.6C624.518 25.9387 624.385 25.3627 624.118 24.872C623.852 24.3813 623.489 24.008 623.03 23.752C622.582 23.4853 622.086 23.352 621.542 23.352C620.998 23.352 620.502 23.48 620.054 23.736C619.606 23.992 619.249 24.3653 618.982 24.856C618.716 25.3467 618.582 25.9227 618.582 26.584C618.582 27.256 618.716 27.8427 618.982 28.344C619.249 28.8347 619.606 29.2133 620.054 29.48C620.502 29.736 620.998 29.864 621.542 29.864C622.086 29.864 622.582 29.736 623.03 29.48C623.489 29.2133 623.852 28.8347 624.118 28.344C624.385 27.8427 624.518 27.2613 624.518 26.6ZM506.008 45.232V54H504.552V52.704C504.275 53.152 503.885 53.504 503.384 53.76C502.893 54.0053 502.349 54.128 501.752 54.128C501.069 54.128 500.456 53.9893 499.912 53.712C499.368 53.424 498.936 52.9973 498.616 52.432C498.307 51.8667 498.152 51.1787 498.152 50.368V45.232H499.592V50.176C499.592 51.04 499.811 51.7067 500.248 52.176C500.685 52.6347 501.283 52.864 502.04 52.864C502.819 52.864 503.432 52.624 503.88 52.144C504.328 51.664 504.552 50.9653 504.552 50.048V45.232H506.008ZM511.57 54.144C510.898 54.144 510.296 54.032 509.762 53.808C509.229 53.5733 508.808 53.2533 508.498 52.848C508.189 52.432 508.018 51.9573 507.986 51.424H509.49C509.533 51.8613 509.736 52.2187 510.098 52.496C510.472 52.7733 510.957 52.912 511.554 52.912C512.109 52.912 512.546 52.7893 512.866 52.544C513.186 52.2987 513.346 51.9893 513.346 51.616C513.346 51.232 513.176 50.9493 512.834 50.768C512.493 50.576 511.965 50.3893 511.25 50.208C510.6 50.0373 510.066 49.8667 509.65 49.696C509.245 49.5147 508.893 49.2533 508.594 48.912C508.306 48.56 508.162 48.1013 508.162 47.536C508.162 47.088 508.296 46.6773 508.562 46.304C508.829 45.9307 509.208 45.6373 509.698 45.424C510.189 45.2 510.749 45.088 511.378 45.088C512.349 45.088 513.133 45.3333 513.73 45.824C514.328 46.3147 514.648 46.9867 514.69 47.84H513.234C513.202 47.3813 513.016 47.0133 512.674 46.736C512.344 46.4587 511.896 46.32 511.33 46.32C510.808 46.32 510.392 46.432 510.082 46.656C509.773 46.88 509.618 47.1733 509.618 47.536C509.618 47.824 509.709 48.064 509.89 48.256C510.082 48.4373 510.317 48.5867 510.594 48.704C510.882 48.8107 511.277 48.9333 511.778 49.072C512.408 49.2427 512.92 49.4133 513.314 49.584C513.709 49.744 514.045 49.9893 514.322 50.32C514.61 50.6507 514.76 51.0827 514.77 51.616C514.77 52.096 514.637 52.528 514.37 52.912C514.104 53.296 513.725 53.6 513.234 53.824C512.754 54.0373 512.2 54.144 511.57 54.144ZM524.826 49.28C524.826 49.5573 524.81 49.8507 524.778 50.16H517.77C517.823 51.024 518.116 51.7013 518.65 52.192C519.194 52.672 519.85 52.912 520.618 52.912C521.247 52.912 521.77 52.768 522.186 52.48C522.612 52.1813 522.911 51.7867 523.082 51.296H524.65C524.415 52.1387 523.946 52.8267 523.242 53.36C522.538 53.8827 521.663 54.144 520.618 54.144C519.786 54.144 519.039 53.9573 518.378 53.584C517.727 53.2107 517.215 52.6827 516.842 52C516.468 51.3067 516.282 50.5067 516.282 49.6C516.282 48.6933 516.463 47.8987 516.826 47.216C517.188 46.5333 517.695 46.0107 518.346 45.648C519.007 45.2747 519.764 45.088 520.618 45.088C521.45 45.088 522.186 45.2693 522.826 45.632C523.466 45.9947 523.956 46.496 524.298 47.136C524.65 47.7653 524.826 48.48 524.826 49.28ZM523.322 48.976C523.322 48.4213 523.199 47.9467 522.954 47.552C522.708 47.1467 522.372 46.8427 521.946 46.64C521.53 46.4267 521.066 46.32 520.554 46.32C519.818 46.32 519.188 46.5547 518.666 47.024C518.154 47.4933 517.86 48.144 517.786 48.976H523.322ZM530.316 46.432H528.476V54H527.02V46.432H525.884V45.232H527.02V44.608C527.02 43.6267 527.27 42.912 527.772 42.464C528.284 42.0053 529.1 41.776 530.22 41.776V42.992C529.58 42.992 529.126 43.12 528.86 43.376C528.604 43.6213 528.476 44.032 528.476 44.608V45.232H530.316V46.432ZM539.789 45.232V54H538.333V52.704C538.056 53.152 537.667 53.504 537.165 53.76C536.675 54.0053 536.131 54.128 535.533 54.128C534.851 54.128 534.237 53.9893 533.693 53.712C533.149 53.424 532.717 52.9973 532.397 52.432C532.088 51.8667 531.933 51.1787 531.933 50.368V45.232H533.373V50.176C533.373 51.04 533.592 51.7067 534.029 52.176C534.467 52.6347 535.064 52.864 535.821 52.864C536.6 52.864 537.213 52.624 537.661 52.144C538.109 51.664 538.333 50.9653 538.333 50.048V45.232H539.789ZM543.704 42.16V54H542.248V42.16H543.704ZM547.641 42.16V54H546.185V42.16H547.641Z" fill="#012B55"/>
<mask id="path-7-inside-1_1075_2179" fill="white">
<rect x="19" y="23" width="27" height="27" rx="2"/>
</mask>
<rect x="19" y="23" width="27" height="27" rx="2" fill="white" stroke="#999898" stroke-width="6" mask="url(#path-7-inside-1_1075_2179)"/>
<mask id="path-8-inside-2_1075_2179" fill="white">
<rect x="234" y="23" width="27" height="27" rx="2"/>
</mask>
<rect x="234" y="23" width="27" height="27" rx="2" fill="white" stroke="#999898" stroke-width="6" mask="url(#path-8-inside-2_1075_2179)"/>
<mask id="path-9-inside-3_1075_2179" fill="white">
<rect x="448" y="23" width="27" height="27" rx="2"/>
</mask>
<rect x="448" y="23" width="27" height="27" rx="2" fill="white" stroke="#999898" stroke-width="6" mask="url(#path-9-inside-3_1075_2179)"/>
<path d="M27 37.4L30.3125 41L38 32" stroke="#999898" stroke-width="3" stroke-linecap="round"/>
<path d="M242 37.4L245.313 41L253 32" stroke="#999898" stroke-width="3" stroke-linecap="round"/>
<path d="M456 37.4L459.313 41L467 32" stroke="#999898" stroke-width="3" stroke-linecap="round"/>
</svg>
