<svg width="176" height="176" viewBox="0 0 176 176" fill="none" xmlns="http://www.w3.org/2000/svg">
<circle cx="88" cy="88" r="88" fill="#BEFCF4"/>
<mask id="mask0_750_7858" style="mask-type:alpha" maskUnits="userSpaceOnUse" x="0" y="0" width="176" height="176">
<circle cx="88" cy="88" r="88" fill="#BEFCF4"/>
</mask>
<g mask="url(#mask0_750_7858)">
<path d="M108.411 130C110.923 130.488 113.355 131.388 115.806 132.172C116.2 132.794 115.899 133.401 115.726 133.965C115.129 135.896 114.527 137.827 113.851 139.718C110.938 147.889 106.95 155.234 102.019 161.795C98.0368 167.096 93.6453 171.87 88.7995 176C80.3652 176 71.9334 176 63.499 176C63.5016 172.276 63.5266 168.554 63.5016 164.83C63.489 162.939 62.6835 162.055 61.2129 162.167C60.0159 162.262 59.258 163.363 59.2455 165.172C59.2204 168.78 59.2355 172.389 59.2355 175.997C53.8351 175.997 48.4322 175.997 43.0318 175.997C41.4835 174.926 40.9314 173.349 41.0067 171.165C41.1322 167.548 41.0393 163.921 41.0418 160.298C41.0519 146.486 48.4121 135.255 59.5015 132.123C61.9733 131.424 64.4426 130.708 66.9144 130C66.9169 130.232 66.8944 130.464 66.9245 130.689C68.7915 145.675 80.8717 151.532 93 148C101.346 145.572 107.884 139.886 108.411 130Z" fill="#62A4FB"/>
<path d="M89 176C93.7895 171.854 98.13 167.062 102.066 161.74C106.938 155.153 110.881 147.779 113.761 139.576C114.428 137.677 115.023 135.739 115.614 133.801C115.785 133.237 116.082 132.628 115.693 132C122.804 133.81 127.951 138.875 131.378 146.649C133.159 150.688 134.022 155.061 133.965 159.697C133.918 163.513 133.866 167.331 133.993 171.14C134.062 173.213 133.65 174.815 132.269 176C126.837 176 121.405 176 115.973 176C115.973 172.359 115.993 168.715 115.963 165.074C115.948 163.206 115.103 162.107 113.81 162.125C112.359 162.147 111.767 162.974 111.762 165.074C111.749 168.715 111.759 172.359 111.762 176C104.172 176 96.5872 176 89 176Z" fill="#5392F9"/>
<path d="M112.004 174C112.004 169.539 111.995 165.074 112.004 160.613C112.011 158.04 112.57 157.023 113.945 157C115.169 156.978 115.97 158.325 115.984 160.613C116.013 165.074 115.994 169.539 115.994 174C114.666 174 113.334 174 112.004 174Z" fill="#4981F8"/>
<path d="M59.0052 173.996C59.0052 169.565 58.9876 165.133 59.017 160.702C59.0316 158.481 59.9136 157.125 61.3142 157.012C63.0312 156.87 63.9718 157.956 63.9864 160.283C64.0157 164.853 63.9894 169.426 63.9835 174C62.325 173.996 60.6637 173.996 59.0052 173.996Z" fill="#4981F8"/>
<path d="M89.6846 25C91.2857 25.1929 92.8869 25.3834 94.4906 25.5763C94.5081 33.0309 94.5256 40.4879 94.5432 47.9425C94.5432 48.3685 94.5256 48.7919 94.5507 49.2154C94.6284 50.5936 95.5129 51.5558 96.7031 51.5708C97.9084 51.5883 98.833 50.6662 98.8606 49.263C98.9082 46.9051 98.8706 44.5447 98.8831 42.1843C98.9107 37.0902 98.9457 31.996 98.9783 26.9044C100.682 27.388 102.226 28.2474 103.834 28.9515C103.834 32.4621 103.834 35.9726 103.832 39.4806C103.529 40.8513 103.281 42.2369 102.915 43.59C99.7902 55.169 93.5233 64.7835 84.653 72.7743C83.9991 73.3631 83.2348 73.8919 82.8915 74.7714C79.2883 75.4179 75.65 75.1998 72.0217 75.2224C69.3756 75.2399 66.9926 76.0292 64.9354 77.6755C61.5051 80.4193 60.2272 84.5237 58.3529 88.2497C58.2952 88.172 58.2376 88.0944 58.18 88.0167C58.19 82.8348 58.19 77.6505 58.2151 72.4686C58.2226 71.2358 57.7014 70.6344 56.441 70.6519C55.123 70.6695 53.805 70.6194 52.5195 70.9827C52.522 66.6353 52.5245 62.2853 52.5245 57.9379C52.9931 58.1534 53.4692 58.3588 53.9328 58.5868C57.3205 60.2532 60.7083 61.927 64.0985 63.5908C64.4218 63.7487 64.7876 64.0468 65.1334 63.696C65.5268 63.2976 65.2487 62.9142 64.9906 62.5634C64.7676 62.2577 64.5395 61.9571 64.309 61.6589C61.7481 58.3262 59.1823 54.9986 56.6189 51.666C55.2834 49.9295 55.3034 49.8068 57.0549 48.4086C57.4984 48.0527 57.9419 47.7019 58.3905 47.3561C59.2825 46.6696 59.3727 45.9254 58.606 45.0759C57.9745 44.3768 57.3681 43.6577 56.7492 42.9461C59.3903 38.6663 62.4673 34.7699 66.6043 31.8156C66.6193 34.6471 66.6318 37.4811 66.6544 40.3125C66.6669 42.054 67.4737 43.0713 68.8093 43.0613C70.1449 43.0488 70.9467 42.0214 70.9542 40.2875C70.9743 36.5113 70.9868 32.7352 71.0018 28.9591C72.6305 28.2975 74.144 27.3604 75.8654 26.9219C75.8955 29.5153 75.9456 32.1063 75.9531 34.6972C75.9682 39.4155 75.9481 44.1338 75.9632 48.8521C75.9682 50.586 76.8076 51.6009 78.1432 51.5758C79.4612 51.5507 80.2881 50.5008 80.2931 48.7869C80.3181 41.0492 80.3307 33.314 80.3482 25.5763C81.9494 25.3834 83.5505 25.1904 85.1517 25C85.1717 29.0568 85.1943 33.1111 85.2118 37.1678C85.2193 38.7239 85.1943 40.2825 85.2193 41.8385C85.2444 43.4998 86.1715 44.5698 87.4895 44.5172C88.765 44.467 89.6119 43.4472 89.6169 41.8385C89.6344 36.7895 89.6219 31.7429 89.6269 26.6939C89.6294 26.1301 89.6645 25.5638 89.6846 25ZM89.667 53.1594C89.6219 52.4729 89.6495 51.8489 89.5267 51.2551C89.2987 50.15 88.5419 49.5011 87.4369 49.491C86.3294 49.481 85.525 50.1125 85.3246 51.22C85.0991 52.4729 85.0865 53.7633 85.3346 55.0162C85.5551 56.1237 86.362 56.7351 87.4695 56.71C88.5069 56.6875 89.2611 56.0961 89.4891 55.0487C89.6319 54.4148 89.6169 53.7433 89.667 53.1594ZM70.9517 51.6084C70.9517 51.1373 70.9793 50.6637 70.9467 50.1951C70.859 48.9222 69.9494 48.0177 68.7943 48.0177C67.6316 48.0202 66.727 48.9197 66.6694 50.2027C66.6268 51.1899 66.6218 52.1822 66.6769 53.1694C66.7421 54.3872 67.6091 55.2367 68.7316 55.2743C69.8893 55.3144 70.844 54.4173 70.9442 53.1619C70.9843 52.6458 70.9517 52.1271 70.9517 51.6084Z" fill="#B46E3D"/>
<path d="M58.3574 88.2486C60.2317 84.5226 61.5096 80.4182 64.94 77.6744C66.9972 76.0281 69.3801 75.2388 72.0262 75.2213C75.6545 75.1987 79.2928 75.4167 82.8961 74.7702C90.4684 73.5324 96.4822 69.7863 100.942 63.5496C102.213 61.773 102.934 61.5224 104.999 62.2316C105.002 69.2426 105.004 76.2511 105.007 83.2622C103.08 83.1419 102.461 83.603 102.06 85.4597C101.694 87.1511 100.727 87.9654 99.236 87.7675C97.7776 87.5745 97.2138 86.6098 97.0434 85.2342C96.8806 83.9212 95.8933 83.1118 94.7557 83.2045C93.588 83.2998 92.7987 84.2294 92.7887 85.5449C92.7787 87.1761 93.3725 88.5793 94.4274 89.8046C96.4947 92.2051 100.767 93.6033 104.724 89.9224C104.779 90.9172 104.661 91.8894 104.473 92.8717C102.601 102.657 97.2514 109.783 88.336 114.271C86.4692 115.21 84.392 115.569 82.5904 116.624C80.1924 116.438 77.9773 115.601 75.7773 114.709C67.2227 110.67 61.5898 104.173 59.1768 94.969C58.6005 92.7689 58.39 90.5213 58.3574 88.2486ZM82.0466 85.5574C82.1068 85.0362 81.984 84.4023 81.4753 83.8961C80.9015 83.3273 80.2174 83.0417 79.4156 83.2747C78.4008 83.5704 77.9097 84.2895 77.7518 85.3344C77.4611 87.2488 76.1431 88.1935 74.5069 87.6973C73.2315 87.3089 72.8857 86.2565 72.7002 85.0788C72.4998 83.8109 71.6729 83.187 70.4275 83.2246C69.2724 83.2597 68.4505 84.2945 68.443 85.57C68.4255 89.0429 71.6654 92.1901 75.2586 92.1901C78.8343 92.1901 81.979 89.1932 82.0466 85.5574ZM87.5893 102.411C84.3669 102.406 81.761 103.446 79.591 105.538C78.6488 106.448 78.5411 107.713 79.2628 108.58C80.0395 109.512 81.4252 109.675 82.4024 108.715C85.1136 106.044 89.6841 106.054 92.3953 108.683C93.3876 109.645 94.7407 109.53 95.545 108.625C96.3544 107.716 96.2466 106.483 95.1992 105.488C93.0142 103.413 90.4032 102.386 87.5893 102.411Z" fill="#FDD2A3"/>
<path d="M108.137 130.261C107.611 138.382 100.792 146.165 92.4584 148.159C80.3482 151.058 68.5763 143.138 66.712 130.827C66.6844 130.642 66.7045 130.449 66.702 130.261C69.7189 129.492 72.7383 128.722 75.7552 127.953C76.2964 135.954 83.1396 141.093 90.5691 139.081C95.4603 137.756 98.6952 133.528 99.0836 127.956C102.121 128.642 105.162 129.316 108.137 130.261Z" fill="#E7F4FB"/>
<path d="M99.0823 127.952C98.6939 133.525 95.459 137.755 90.5678 139.078C83.1383 141.09 76.2951 135.95 75.7539 127.95C75.779 126.461 75.8015 124.973 75.8266 123.484C76.2826 123.592 76.7462 123.675 77.1922 123.808C81.9957 125.241 86.8769 125.451 91.8482 124.968C94.3089 124.73 96.6217 123.97 99.0096 123.484C99.0322 124.975 99.0572 126.464 99.0823 127.952Z" fill="#FBBB85"/>
<path d="M99.0105 123.488C96.6225 123.977 94.3097 124.733 91.8491 124.971C86.8777 125.455 81.9966 125.244 77.1931 123.811C76.7446 123.678 76.2835 123.593 75.8275 123.488C75.8099 120.564 75.7949 117.637 75.7773 114.713C77.9774 115.605 80.1924 116.442 82.5904 116.627C82.7007 116.712 82.7984 116.858 82.9187 116.875C86.0358 117.369 89.1454 117.346 92.2601 116.815C94.5754 116.419 96.7754 115.64 99.008 114.961C99.008 117.805 99.0105 120.646 99.0105 123.488Z" fill="#F6AA6D"/>
<path d="M52.5244 70.9835C53.8098 70.6201 55.1303 70.6703 56.4458 70.6527C57.7062 70.6352 58.2274 71.2366 58.2199 72.4694C58.1923 77.6512 58.1923 82.8356 58.1848 88.0174C56.8217 87.9799 55.4335 88.0976 54.1005 87.8771C50.2567 87.2407 47.3275 84.3065 46.8313 80.7859C46.25 76.6539 48.1594 73.0958 51.913 71.3142C52.1234 71.214 52.3214 71.0937 52.5244 70.9835Z" fill="#E99B58"/>
<path d="M104.998 62.2362C102.933 61.5271 102.211 61.7777 100.941 63.5542C96.4806 69.791 90.4669 73.5371 82.8945 74.7749C83.2378 73.8954 83.9996 73.3667 84.6561 72.7778C93.5264 64.7871 99.7932 55.1726 102.918 43.5936C103.284 42.2405 103.532 40.8548 103.835 39.4842C103.852 39.9552 103.852 40.4263 103.89 40.8974C103.988 42.1678 104.907 43.0699 106.07 43.0548C107.238 43.0398 108.145 42.1478 108.167 40.8423C108.22 37.8254 108.217 34.806 108.235 31.7891C112.049 34.4602 115 37.9231 117.424 41.8646C117.644 42.2254 117.882 42.5762 118.11 42.9296C117.965 43.1125 117.832 43.3054 117.674 43.4758C114.998 46.425 114.89 46.192 118.073 48.6401C119.438 49.69 119.476 50.0233 118.426 51.3939C115.644 55.0272 112.848 58.653 110.067 62.2863C109.766 62.6797 109.212 63.0957 109.638 63.6319C110.092 64.2007 110.595 63.652 111.019 63.449C114.798 61.6298 118.561 59.7831 122.332 57.9464C122.327 62.2939 122.322 66.6413 122.317 70.9888C121.305 70.7733 120.29 70.6279 119.248 70.6279C116.91 70.6329 116.451 71.0313 116.434 73.4093C116.404 77.5011 116.426 81.5955 116.404 85.6874C116.401 86.1785 116.602 86.7373 116.108 87.1357C113.449 79.844 110.801 72.5498 108.117 65.2682C107.576 63.7923 106.574 62.6973 104.998 62.2362ZM108.162 51.6219H108.167C108.167 51.1032 108.202 50.5821 108.16 50.0684C108.06 48.8807 107.153 47.9786 106.045 48.0337C104.87 48.0914 104.048 48.7328 103.928 49.9155C103.81 51.0807 103.805 52.2784 103.938 53.4411C104.073 54.6263 104.937 55.2903 106.1 55.2527C107.255 55.2152 108.032 54.5386 108.152 53.3183C108.21 52.757 108.162 52.1857 108.162 51.6219Z" fill="#9A5F35"/>
<path d="M104.998 62.2344C106.571 62.6954 107.573 63.7904 108.12 65.2663C110.803 72.548 113.449 79.8447 116.11 87.1338C116.263 87.4997 116.414 87.868 116.566 88.2339C116.541 88.6473 116.516 89.0633 116.491 89.4767C116.476 89.5644 116.461 89.6521 116.446 89.7373C115.604 101.011 109.969 109.084 100.051 114.298C99.6854 114.491 99.2393 114.554 99.0113 114.96C96.7787 115.639 94.5787 116.418 92.2634 116.814C89.1462 117.345 86.0391 117.368 82.922 116.874C82.8017 116.854 82.7015 116.712 82.5938 116.626C84.3954 115.571 86.4726 115.213 88.3394 114.273C97.2573 109.783 102.607 102.659 104.476 92.8745C104.664 91.8922 104.083 91.5139 104.03 90.5166C104.519 89.6696 102.522 87.3293 102.797 86.3646C103.401 84.2573 105.591 84.6507 104.128 83.5456C104.126 76.5371 105 69.2429 104.998 62.2344Z" fill="#FBBB85"/>
<path d="M116.563 88.2348C116.411 87.8689 116.26 87.5006 116.107 87.1348C116.604 86.7363 116.403 86.1776 116.406 85.6864C116.426 81.5946 116.406 77.5002 116.436 73.4083C116.453 71.0304 116.912 70.632 119.25 70.627C120.292 70.6245 121.307 70.7723 122.319 70.9878C124.998 72.2231 126.995 74.0548 127.814 77.0166C129.295 82.3714 125.308 87.8138 119.746 88.0168C118.683 88.0544 117.593 87.7311 116.563 88.2348Z" fill="#E99B58"/>
<path d="M116.443 89.7411C116.458 89.6534 116.473 89.5657 116.488 89.4805C116.501 89.5456 116.524 89.6108 116.526 89.6784C116.526 89.696 116.473 89.7185 116.443 89.7411Z" fill="#E99B58"/>
<path d="M89.6662 53.1582C89.6161 53.742 89.6311 54.4111 89.4933 55.05C89.2653 56.0974 88.511 56.6913 87.4737 56.7113C86.3636 56.7339 85.5593 56.125 85.3388 55.0174C85.0882 53.7646 85.1007 52.4741 85.3288 51.2213C85.5292 50.1137 86.3336 49.4823 87.4411 49.4923C88.5461 49.5023 89.3054 50.1513 89.5309 51.2563C89.6486 51.8477 89.6211 52.4716 89.6662 53.1582Z" fill="#C4CED5"/>
<path d="M70.951 51.6083C70.951 52.127 70.9836 52.6482 70.9435 53.1619C70.8457 54.4197 69.8886 55.3143 68.7309 55.2742C67.6083 55.2366 66.7414 54.3872 66.6762 53.1694C66.6236 52.1821 66.6261 51.1898 66.6687 50.2026C66.7238 48.9171 67.6309 48.0201 68.7936 48.0176C69.9487 48.0151 70.8583 48.9222 70.946 50.1951C70.9786 50.6636 70.951 51.1372 70.951 51.6083Z" fill="#C5D1DB"/>
<path d="M108.163 51.6202C108.163 52.1865 108.208 52.7553 108.153 53.3141C108.032 54.5344 107.255 55.211 106.1 55.2485C104.935 55.2861 104.073 54.6221 103.938 53.4369C103.805 52.2742 103.813 51.0765 103.928 49.9113C104.048 48.7286 104.87 48.0872 106.045 48.0295C107.153 47.9769 108.062 48.879 108.16 50.0642C108.203 50.5779 108.168 51.0991 108.168 51.6177L108.163 51.6202Z" fill="#C5D1DB"/>
<path d="M66.137 79.75H104.936C104.936 79.75 105.144 109.714 88.23 112.43C71.3164 115.143 65.7837 96.0373 65.3652 91.0258" fill="#FDD2A3"/>
<path d="M52.5297 57.9383C52.5297 57.9383 56.5514 15.7518 98.9785 26.9073C103.374 28.0624 104.935 29.6385 104.935 29.6385C104.935 29.6385 104.882 58.3492 85.1494 66.0769C65.4167 73.8046 52.442 58.6399 52.5297 57.9383Z" fill="#B46E3D"/>
<path d="M122.333 57.944C122.333 57.944 120.624 38.0936 104.938 29.6367L101.465 53.1029L111.959 67.145" fill="#9A5F35"/>
<path d="M80.8712 104.482C80.8712 104.482 83.5687 103.194 86.2066 102.607C91.0779 101.523 96.9319 104.303 96.9319 104.303" stroke="#B36D3C" stroke-width="4" stroke-linecap="round"/>
<path d="M139.199 42.9056C142.102 42.9056 144.421 43.7024 146.157 45.296C147.922 46.8897 148.804 49.0667 148.804 51.8272C148.804 54.7014 147.893 56.8643 146.072 58.3156C144.251 59.767 141.832 60.4927 138.815 60.4927L138.644 63.8649H134.418L134.205 57.1631H135.614C138.374 57.1631 140.48 56.7931 141.931 56.0532C143.411 55.3133 144.151 53.9046 144.151 51.8272C144.151 50.3189 143.71 49.1379 142.828 48.2841C141.974 47.4304 140.779 47.0035 139.242 47.0035C137.705 47.0035 136.496 47.4162 135.614 48.2415C134.731 49.0667 134.29 50.2193 134.29 51.6991H129.723C129.723 49.9916 130.107 48.4691 130.875 47.1316C131.644 45.7941 132.739 44.7553 134.162 44.0154C135.614 43.2755 137.293 42.9056 139.199 42.9056ZM136.467 73.2988C135.585 73.2988 134.845 73 134.248 72.4024C133.65 71.8048 133.351 71.0648 133.351 70.1826C133.351 69.3004 133.65 68.5605 134.248 67.9629C134.845 67.3653 135.585 67.0665 136.467 67.0665C137.321 67.0665 138.047 67.3653 138.644 67.9629C139.242 68.5605 139.541 69.3004 139.541 70.1826C139.541 71.0648 139.242 71.8048 138.644 72.4024C138.047 73 137.321 73.2988 136.467 73.2988Z" fill="#B46E3D"/>
<circle cx="78.0156" cy="88.0371" r="4" fill="#B36D3C"/>
<circle cx="100.016" cy="88.0371" r="4" fill="#B36D3C"/>
<path d="M77.6501 79.6571C77.6957 79.1067 77.2852 78.6164 76.7336 78.6444C75.2561 78.7191 73.8255 79.2301 72.628 80.1238C71.4306 81.0176 70.5337 82.2437 70.0417 83.6388C69.858 84.1597 70.2111 84.6927 70.7518 84.8055L71.1909 84.8971C71.7315 85.0099 72.2524 84.6568 72.4693 84.149C72.8168 83.3356 73.3744 82.6221 74.0926 82.0861C74.8107 81.5501 75.6534 81.2186 76.532 81.1168C77.0806 81.0533 77.5673 80.6545 77.613 80.1041L77.6501 79.6571Z" fill="#B36D3C"/>
<path d="M107.578 83.4468C108.111 83.3038 108.434 82.7518 108.221 82.2421C107.652 80.8767 106.688 79.7028 105.442 78.8777C104.196 78.0525 102.739 77.6226 101.26 77.6308C100.708 77.6338 100.325 78.1463 100.402 78.6933L100.433 78.9142C100.509 79.4612 101.017 79.8325 101.569 79.8605C102.507 79.9081 103.421 80.2057 104.214 80.731C105.007 81.2563 105.638 81.9825 106.048 82.8276C106.289 83.3246 106.829 83.6474 107.362 83.5045L107.578 83.4468Z" fill="#B36D3C"/>
</g>
</svg>
