<svg width="176" height="176" viewBox="0 0 176 176" fill="none" xmlns="http://www.w3.org/2000/svg">
<circle cx="88" cy="88" r="88" fill="#BEFCF4"/>
<mask id="mask0_842_62" style="mask-type:alpha" maskUnits="userSpaceOnUse" x="0" y="0" width="176" height="176">
<circle cx="88" cy="88" r="88" fill="#D9D9D9"/>
</mask>
<g mask="url(#mask0_842_62)">
<path d="M107.411 125C109.923 125.573 112.355 126.629 114.806 127.549C115.2 128.28 114.899 128.992 114.726 129.655C114.129 131.921 113.527 134.188 112.851 136.408C109.938 146.001 105.95 154.623 101.019 162.325C97.0368 168.548 92.6453 174.152 87.7995 179C79.3652 179 70.9334 179 62.499 179C62.5016 174.628 62.5266 170.26 62.5016 165.888C62.489 163.668 61.6835 162.629 60.2129 162.762C59.0159 162.873 58.258 164.165 58.2455 166.289C58.2204 170.525 58.2355 174.76 58.2355 178.996C52.8351 178.996 47.4322 178.996 42.0318 178.996C40.4835 177.74 39.9314 175.888 40.0067 173.325C40.1322 169.078 40.0393 164.821 40.0418 160.567C40.0519 144.353 47.4121 131.169 58.5015 127.492C60.9733 126.672 63.4426 125.831 65.9144 125C65.9169 125.272 65.8944 125.544 65.9245 125.809C67.7915 143.401 90.0902 145.923 94 142C97.5 139 106.884 136.605 107.411 125Z" fill="#62A4FB"/>
<path d="M88 179C92.7895 174.194 97.13 168.64 101.066 162.471C105.938 154.836 109.881 146.29 112.761 136.781C113.428 134.58 114.023 132.334 114.614 130.087C114.785 129.434 115.082 128.728 114.693 128C121.804 130.098 126.951 135.968 130.378 144.98C132.159 149.661 133.022 154.73 132.965 160.103C132.918 164.526 132.866 168.952 132.993 173.367C133.062 175.77 132.65 177.626 131.269 179C125.837 179 120.405 179 114.973 179C114.973 174.78 114.993 170.556 114.963 166.336C114.948 164.171 114.103 162.897 112.81 162.918C111.359 162.943 110.767 163.901 110.762 166.336C110.749 170.556 110.759 174.78 110.762 179C103.172 179 95.5872 179 88 179Z" fill="#5392F9"/>
<path d="M111.004 179C111.004 174.801 110.995 170.599 111.004 166.401C111.011 163.978 111.57 163.021 112.945 163C114.169 162.979 114.97 164.247 114.984 166.401C115.013 170.599 114.994 174.801 114.994 179C113.666 179 112.334 179 111.004 179Z" fill="#4981F8"/>
<path d="M58.0052 178.996C58.0052 174.565 57.9876 170.133 58.017 165.702C58.0316 163.481 58.9136 162.125 60.3142 162.012C62.0312 161.87 62.9718 162.956 62.9864 165.283C63.0157 169.853 62.9894 174.426 62.9835 179C61.325 178.996 59.6637 178.996 58.0052 178.996Z" fill="#4981F8"/>
<path d="M88.667 20C90.2681 20.1929 91.8693 20.3834 93.473 20.5763C93.4905 28.0309 93.5081 35.4879 93.5256 42.9425C93.5256 43.3685 93.5081 43.7919 93.5331 44.2154C93.6108 45.5936 94.4953 46.5558 95.6855 46.5708C96.8908 46.5883 97.8154 45.6662 97.843 44.263C97.8906 41.9051 97.853 39.5447 97.8655 37.1843C97.8931 32.0902 97.9282 26.996 97.9607 21.9044C99.6646 22.388 101.208 23.2474 102.817 23.9515C102.817 27.4621 102.817 30.9726 102.814 34.4806C102.511 35.8513 102.263 37.2369 101.897 38.59C98.7726 50.169 92.5058 59.7835 83.6355 67.7743C82.9815 68.3631 82.2172 68.8919 81.8739 69.7714C78.2707 70.4179 74.6324 70.1998 71.0041 70.2224C68.358 70.2399 65.9751 71.0292 63.9179 72.6755C60.4875 75.4193 59.2096 79.5237 57.3353 83.2497C57.2777 83.172 57.22 83.0944 57.1624 83.0167C57.1724 77.8348 57.1724 72.6505 57.1975 67.4686C57.205 66.2358 56.6838 65.6344 55.4234 65.6519C54.1054 65.6695 52.7874 65.6194 51.502 65.9827C51.5045 61.6353 51.507 57.2853 51.507 52.9379C51.9755 53.1534 52.4516 53.3588 52.9152 53.5868C56.3029 55.2532 59.6907 56.927 63.0809 58.5908C63.4042 58.7487 63.77 59.0468 64.1158 58.696C64.5092 58.2976 64.2311 57.9142 63.973 57.5634C63.75 57.2577 63.522 56.9571 63.2914 56.6589C60.7306 53.3262 58.1647 49.9986 55.6013 46.666C54.2658 44.9295 54.2858 44.8068 56.0373 43.4086C56.4808 43.0527 56.9244 42.7019 57.3729 42.3561C58.2649 41.6696 58.3551 40.9254 57.5884 40.0759C56.9569 39.3768 56.3505 38.6577 55.7316 37.9461C58.3727 33.6663 61.4497 29.7699 65.5867 26.8156C65.6017 29.6471 65.6142 32.4811 65.6368 35.3125C65.6493 37.054 66.4562 38.0713 67.7917 38.0613C69.1273 38.0488 69.9291 37.0214 69.9366 35.2875C69.9567 31.5113 69.9692 27.7352 69.9842 23.9591C71.613 23.2975 73.1264 22.3604 74.8479 21.9219C74.8779 24.5153 74.928 27.1063 74.9356 29.6972C74.9506 34.4155 74.9306 39.1338 74.9456 43.8521C74.9506 45.586 75.79 46.6009 77.1256 46.5758C78.4436 46.5507 79.2705 45.5008 79.2755 43.7869C79.3006 36.0492 79.3131 28.314 79.3306 20.5763C80.9318 20.3834 82.5329 20.1904 84.1341 20C84.1542 24.0568 84.1767 28.1111 84.1943 32.1678C84.2018 33.7239 84.1767 35.2825 84.2018 36.8385C84.2268 38.4998 85.1539 39.5698 86.472 39.5172C87.7474 39.467 88.5943 38.4472 88.5993 36.8385C88.6169 31.7895 88.6043 26.7429 88.6093 21.6939C88.6119 21.1301 88.6469 20.5638 88.667 20ZM88.6494 48.1594C88.6043 47.4729 88.6319 46.8489 88.5091 46.2551C88.2811 45.15 87.5244 44.5011 86.4193 44.491C85.3118 44.481 84.5075 45.1125 84.307 46.22C84.0815 47.4729 84.069 48.7633 84.317 50.0162C84.5375 51.1237 85.3444 51.7351 86.4519 51.71C87.4893 51.6875 88.2435 51.0961 88.4715 50.0487C88.6144 49.4148 88.5993 48.7433 88.6494 48.1594ZM69.9341 46.6084C69.9341 46.1373 69.9617 45.6637 69.9291 45.1951C69.8414 43.9222 68.9318 43.0177 67.7767 43.0177C66.614 43.0202 65.7095 43.9197 65.6518 45.2027C65.6092 46.1899 65.6042 47.1822 65.6593 48.1694C65.7245 49.3872 66.5915 50.2367 67.714 50.2743C68.8717 50.3144 69.8264 49.4173 69.9266 48.1619C69.9667 47.6458 69.9341 47.1271 69.9341 46.6084Z" fill="#B46E3D"/>
<path d="M57.3418 83.2486C59.2161 79.5226 60.494 75.4182 63.9244 72.6744C65.9816 71.0281 68.3645 70.2388 71.0106 70.2213C74.6389 70.1987 78.2772 70.4167 81.8804 69.7702C89.4528 68.5324 95.4665 64.7863 99.9267 58.5496C101.197 56.773 101.919 56.5224 103.984 57.2316C103.986 64.2426 103.989 71.2511 103.991 78.2622C102.064 78.1419 101.445 78.603 101.044 80.4597C100.678 82.1511 99.7112 82.9654 98.2203 82.7675C96.762 82.5745 96.1982 81.6098 96.0278 80.2342C95.8649 78.9212 94.8777 78.1118 93.7401 78.2045C92.5724 78.2998 91.7831 79.2294 91.7731 80.5449C91.7631 82.1761 92.3569 83.5793 93.4118 84.8046C95.4791 87.2051 99.7513 88.6033 103.708 84.9224C103.763 85.9172 103.645 86.8894 103.457 87.8717C101.586 97.6565 96.2358 104.783 87.3204 109.271C85.4536 110.21 83.3764 110.569 81.5747 111.624C79.1768 111.438 76.9617 110.601 74.7617 109.709C66.2071 105.67 60.5742 99.1725 58.1612 89.969C57.5849 87.7689 57.3744 85.5213 57.3418 83.2486ZM81.031 80.5574C81.0911 80.0362 80.9684 79.4023 80.4597 78.8961C79.8859 78.3273 79.2018 78.0417 78.4 78.2747C77.3852 78.5704 76.894 79.2895 76.7362 80.3344C76.4455 82.2488 75.1275 83.1935 73.4912 82.6973C72.2158 82.3089 71.87 81.2565 71.6846 80.0788C71.4842 78.8109 70.6573 78.187 69.4119 78.2246C68.2568 78.2597 67.4349 79.2945 67.4274 80.57C67.4098 84.0429 70.6497 87.1901 74.243 87.1901C77.8186 87.1901 80.9633 84.1932 81.031 80.5574ZM86.5737 97.411C83.3513 97.406 80.7453 98.4458 78.5754 100.538C77.6332 101.448 77.5255 102.713 78.2471 103.58C79.0239 104.512 80.4096 104.675 81.3868 103.715C84.098 101.044 88.6685 101.054 91.3797 103.683C92.3719 104.645 93.725 104.53 94.5294 103.625C95.3387 102.716 95.231 101.483 94.1836 100.488C91.9986 98.4133 89.3876 97.3859 86.5737 97.411Z" fill="#FDD2A3"/>
<path d="M107.121 125.261C106.595 133.382 99.7769 141.165 91.4428 143.159C79.3326 146.058 67.5606 138.138 65.6964 125.827C65.6688 125.642 65.6889 125.449 65.6863 125.261C68.7033 124.492 71.7227 123.722 74.7396 122.953C75.2808 130.954 82.124 136.093 89.5535 134.081C94.4446 132.756 97.6796 128.528 98.0679 122.956C101.105 123.642 104.147 124.316 107.121 125.261Z" fill="#E7F4FB"/>
<path d="M98.0667 122.952C97.6783 128.525 94.4434 132.755 89.5522 134.078C82.1227 136.09 75.2795 130.95 74.7383 122.95C74.7633 121.461 74.7859 119.973 74.8109 118.484C75.267 118.592 75.7306 118.675 76.1766 118.808C80.9801 120.241 85.8612 120.451 90.8326 119.968C93.2932 119.73 95.606 118.97 97.994 118.484C98.0165 119.975 98.0416 121.464 98.0667 122.952Z" fill="#FBBB85"/>
<path d="M97.9949 118.488C95.6069 118.977 93.2941 119.733 90.8335 119.971C85.8621 120.455 80.9809 120.244 76.1775 118.811C75.7289 118.678 75.2679 118.593 74.8118 118.488C74.7943 115.564 74.7793 112.637 74.7617 109.713C76.9618 110.605 79.1768 111.442 81.5748 111.627C81.6851 111.712 81.7828 111.858 81.9031 111.875C85.0202 112.369 88.1298 112.346 91.2444 111.815C93.5597 111.419 95.7598 110.64 97.9924 109.961C97.9924 112.805 97.9949 115.646 97.9949 118.488Z" fill="#F6AA6D"/>
<path d="M51.5068 65.9835C52.7922 65.6201 54.1127 65.6703 55.4282 65.6527C56.6886 65.6352 57.2098 66.2366 57.2023 67.4694C57.1747 72.6512 57.1747 77.8356 57.1672 83.0174C55.8041 82.9799 54.4159 83.0976 53.0829 82.8771C49.2391 82.2407 46.3099 79.3065 45.8138 75.7859C45.2324 71.6539 47.1418 68.0958 50.8954 66.3142C51.1059 66.214 51.3038 66.0937 51.5068 65.9835Z" fill="#E99B58"/>
<path d="M103.98 57.2362C101.915 56.5271 101.194 56.7777 99.9232 58.5542C95.463 64.791 89.4493 68.5371 81.877 69.7749C82.2202 68.8954 82.982 68.3667 83.6385 67.7778C92.5088 59.7871 98.7756 50.1726 101.9 38.5936C102.266 37.2405 102.514 35.8548 102.817 34.4842C102.835 34.9552 102.835 35.4263 102.872 35.8974C102.97 37.1678 103.89 38.0699 105.052 38.0548C106.22 38.0398 107.127 37.1478 107.15 35.8423C107.202 32.8254 107.2 29.806 107.217 26.7891C111.031 29.4602 113.983 32.9231 116.406 36.8646C116.626 37.2254 116.865 37.5762 117.093 37.9296C116.947 38.1125 116.814 38.3054 116.657 38.4758C113.98 41.425 113.873 41.192 117.055 43.6401C118.421 44.69 118.458 45.0233 117.408 46.3939C114.627 50.0272 111.83 53.653 109.049 57.2863C108.748 57.6797 108.195 58.0957 108.621 58.6319C109.074 59.2007 109.578 58.652 110.001 58.449C113.78 56.6298 117.544 54.7831 121.315 52.9464C121.31 57.2939 121.305 61.6413 121.3 65.9888C120.287 65.7733 119.273 65.6279 118.23 65.6279C115.892 65.6329 115.434 66.0313 115.416 68.4093C115.386 72.5011 115.409 76.5955 115.386 80.6874C115.384 81.1785 115.584 81.7373 115.09 82.1357C112.432 74.844 109.783 67.5498 107.1 60.2682C106.558 58.7923 105.556 57.6973 103.98 57.2362ZM107.145 46.6219H107.15C107.15 46.1032 107.185 45.5821 107.142 45.0684C107.042 43.8807 106.135 42.9786 105.027 43.0337C103.852 43.0914 103.03 43.7328 102.91 44.9155C102.792 46.0807 102.787 47.2784 102.92 48.4411C103.055 49.6263 103.92 50.2903 105.083 50.2527C106.238 50.2152 107.014 49.5386 107.135 48.3183C107.192 47.757 107.145 47.1857 107.145 46.6219Z" fill="#9A5F35"/>
<path d="M103.98 57.2344C105.554 57.6954 106.556 58.7904 107.102 60.2663C109.786 67.548 112.432 74.8447 115.093 82.1338C115.246 82.4997 115.396 82.868 115.549 83.2339C115.524 83.6473 115.499 84.0633 115.474 84.4767C115.459 84.5644 115.444 84.6521 115.429 84.7373C114.587 96.0106 108.951 104.084 99.0336 109.298C98.6678 109.491 98.2218 109.554 97.9937 109.96C95.7611 110.639 93.5611 111.418 91.2458 111.814C88.1287 112.345 85.0216 112.368 81.9044 111.874C81.7841 111.854 81.6839 111.712 81.5762 111.626C83.3778 110.571 85.455 110.213 87.3218 109.273C96.2397 104.783 101.589 97.6594 103.459 87.8745C103.647 86.8922 103.065 86.5139 103.013 85.5166C103.501 84.6696 101.504 82.3293 101.78 81.3646C102.384 79.2573 104.574 79.6507 103.11 78.5456C103.108 71.5371 103.982 64.2429 103.98 57.2344Z" fill="#FBBB85"/>
<path d="M115.546 83.2348C115.393 82.8689 115.243 82.5006 115.09 82.1348C115.586 81.7363 115.386 81.1776 115.388 80.6864C115.408 76.5946 115.388 72.5002 115.418 68.4083C115.436 66.0304 115.894 65.632 118.232 65.627C119.274 65.6245 120.289 65.7723 121.302 65.9878C123.98 67.2231 125.977 69.0548 126.797 72.0166C128.278 77.3714 124.291 82.8138 118.728 83.0168C117.666 83.0544 116.576 82.7311 115.546 83.2348Z" fill="#E99B58"/>
<path d="M115.428 84.7411C115.443 84.6534 115.458 84.5657 115.473 84.4805C115.485 84.5456 115.508 84.6108 115.51 84.6784C115.51 84.696 115.458 84.7185 115.428 84.7411Z" fill="#E99B58"/>
<path d="M88.6506 48.1582C88.6004 48.742 88.6155 49.4111 88.4777 50.05C88.2496 51.0974 87.4954 51.6913 86.458 51.7113C85.348 51.7339 84.5437 51.125 84.3232 50.0174C84.0726 48.7646 84.0851 47.4741 84.3131 46.2213C84.5136 45.1137 85.3179 44.4823 86.4255 44.4923C87.5305 44.5023 88.2897 45.1513 88.5152 46.2563C88.633 46.8477 88.6055 47.4716 88.6506 48.1582Z" fill="#C4CED5"/>
<path d="M69.9354 46.6083C69.9354 47.127 69.9679 47.6482 69.9278 48.1619C69.8301 49.4197 68.8729 50.3143 67.7153 50.2742C66.5927 50.2366 65.7257 49.3872 65.6606 48.1694C65.608 47.1821 65.6105 46.1898 65.6531 45.2026C65.7082 43.9171 66.6153 43.0201 67.7779 43.0176C68.9331 43.0151 69.8427 43.9222 69.9304 45.1951C69.9629 45.6636 69.9354 46.1372 69.9354 46.6083Z" fill="#C5D1DB"/>
<path d="M107.145 46.6202C107.145 47.1865 107.19 47.7553 107.135 48.3141C107.015 49.5344 106.238 50.211 105.083 50.2485C103.918 50.2861 103.056 49.6221 102.92 48.4369C102.788 47.2742 102.795 46.0765 102.91 44.9113C103.031 43.7286 103.852 43.0872 105.028 43.0295C106.135 42.9769 107.045 43.879 107.142 45.0642C107.185 45.5779 107.15 46.0991 107.15 46.6177L107.145 46.6202Z" fill="#C5D1DB"/>
<path d="M65.1214 74.75H103.92C103.92 74.75 104.128 104.714 87.2144 107.43C70.3007 110.143 64.7681 91.0373 64.3496 86.0258" fill="#FDD2A3"/>
<path d="M51.5122 52.9383C51.5122 52.9383 55.5339 10.7518 97.9609 21.9073C102.356 23.0624 103.917 24.6385 103.917 24.6385C103.917 24.6385 103.864 53.3492 84.1318 61.0769C64.3991 68.8046 51.4245 53.6399 51.5122 52.9383Z" fill="#B46E3D"/>
<path d="M121.315 52.944C121.315 52.944 119.606 33.0936 103.92 24.6367L100.447 48.1029L110.941 62.145" fill="#9A5F35"/>
<path d="M80.9985 97.4984C80.9985 97.4984 83.5122 95.8802 86.0551 94.9657C90.7511 93.2771 96.9087 95.2979 96.9087 95.2979" stroke="#B36D3C" stroke-width="4" stroke-linecap="round"/>
<circle cx="82.5" cy="79.5" r="3.5" fill="#B36D3C"/>
<path d="M84.2898 77.6843C84.5792 77.2236 84.4422 76.6079 83.9438 76.3898C82.7739 75.8778 81.4741 75.7109 80.2004 75.9206C78.9266 76.1303 77.7489 76.705 76.8049 77.565C76.4027 77.9314 76.4703 78.5585 76.8921 78.9021C77.3139 79.2457 77.9293 79.1721 78.3536 78.8316C78.9764 78.3316 79.7216 77.9961 80.5204 77.8646C81.3192 77.733 82.1326 77.8121 82.8829 78.086C83.3939 78.2725 84.0005 78.145 84.2898 77.6843Z" fill="#B36D3C"/>
<path d="M103.29 77.6843C103.579 77.2236 103.442 76.6079 102.944 76.3898C101.774 75.8778 100.474 75.7109 99.2004 75.9206C97.9266 76.1303 96.7489 76.705 95.8049 77.565C95.4027 77.9314 95.4703 78.5585 95.8921 78.9021C96.3139 79.2457 96.9293 79.1721 97.3536 78.8316C97.9764 78.3316 98.7216 77.9961 99.5204 77.8646C100.319 77.733 101.133 77.8121 101.883 78.086C102.394 78.2725 103 78.145 103.29 77.6843Z" fill="#B36D3C"/>
<circle cx="101.5" cy="79.5" r="3.5" fill="#B36D3C"/>
</g>
</svg>
