<svg width="89" height="89" viewBox="0 0 89 89" fill="none" xmlns="http://www.w3.org/2000/svg">
<path fill-rule="evenodd" clip-rule="evenodd" d="M46.1427 20.0953C53.3356 27.2882 53.3356 38.9501 46.1427 46.143C38.9498 53.3359 27.2878 53.3359 20.0949 46.143C12.9021 38.9501 12.9021 27.2882 20.0949 20.0953C27.2878 12.9024 38.9498 12.9024 46.1427 20.0953ZM52.0112 46.9632C58.7432 37.8002 57.9655 24.847 49.6782 16.5597C40.5327 7.41422 25.7049 7.41422 16.5594 16.5597C7.4139 25.7052 7.4139 40.533 16.5594 49.6786C23.8735 56.9926 34.8218 58.4573 43.5915 54.0727L62.5948 74.0169C64.6902 76.216 68.1716 76.3001 70.3707 74.2048C72.5699 72.1094 72.654 68.628 70.5586 66.4288L52.0112 46.9632ZM65.4907 71.2576L47.2104 52.0722L49.3823 50.0027L67.6627 69.1881C68.2341 69.7879 68.2112 70.7374 67.6114 71.3088C67.0117 71.8803 66.0622 71.8574 65.4907 71.2576Z" fill="#8893CA"/>
<path d="M35.5954 22.9029L34.9954 37.2729H30.6454L30.0454 22.9029H35.5954ZM32.8954 44.9529C31.9954 44.9529 31.2554 44.6929 30.6754 44.1729C30.1154 43.6329 29.8354 42.9729 29.8354 42.1929C29.8354 41.3929 30.1154 40.7229 30.6754 40.1829C31.2554 39.6429 31.9954 39.3729 32.8954 39.3729C33.7754 39.3729 34.4954 39.6429 35.0554 40.1829C35.6354 40.7229 35.9254 41.3929 35.9254 42.1929C35.9254 42.9729 35.6354 43.6329 35.0554 44.1729C34.4954 44.6929 33.7754 44.9529 32.8954 44.9529Z" fill="#8893CA"/>
</svg>
