<svg width="376" height="318" viewBox="0 0 376 318" fill="none" xmlns="http://www.w3.org/2000/svg">
<rect width="376" height="313" rx="2" fill="#F3F3F3"/>
<rect width="376" height="318" rx="2" fill="#F3F3F3"/>
<line x1="74.3906" y1="197.163" x2="332.095" y2="197.163" stroke="#9EAAED" stroke-width="0.790503"/>
<line x1="74.3906" y1="157.638" x2="332.095" y2="157.638" stroke="#9EAAED" stroke-width="0.790503"/>
<line x1="74.3906" y1="118.113" x2="332.095" y2="118.113" stroke="#9EAAED" stroke-width="0.790503"/>
<line x1="74.3906" y1="78.5891" x2="332.095" y2="78.5891" stroke="#9EAAED" stroke-width="0.790503"/>
<line x1="74.3906" y1="39.0618" x2="332.095" y2="39.0618" stroke="#9EAAED" stroke-width="0.790503"/>
<line x1="76.7905" y1="39" x2="76.7905" y2="237" stroke="#9EAAED" stroke-width="1.58101"/>
<line x1="332.094" y1="237.874" x2="75.9709" y2="237.874" stroke="#9EAAED" stroke-width="1.58101"/>
<rect x="77.5547" y="197.559" width="41.1061" height="39.5251" fill="#B3BCED"/>
<rect x="120.242" y="158.033" width="41.1061" height="79.0503" fill="#B3BCED"/>
<rect x="162.926" y="177.006" width="41.1061" height="60.0782" fill="#B3BCED"/>
<rect x="248" y="209" width="41" height="28" fill="#B3BCED"/>
<rect x="290.988" y="177.006" width="41.1061" height="60.0782" fill="#B3BCED"/>
<g filter="url(#filter0_d_1075_2180)">
<rect x="206" y="59" width="41" height="178" fill="#747FBB"/>
</g>
<line x1="119.451" y1="235.504" x2="119.451" y2="240.247" stroke="#C1C1C1" stroke-width="1.58101"/>
<line x1="162.138" y1="235.504" x2="162.138" y2="240.247" stroke="#C1C1C1" stroke-width="1.58101"/>
<line x1="204.826" y1="235.504" x2="204.826" y2="240.247" stroke="#C1C1C1" stroke-width="1.58101"/>
<line x1="247.509" y1="235.504" x2="247.509" y2="240.247" stroke="#C1C1C1" stroke-width="1.58101"/>
<line x1="290.197" y1="235.504" x2="290.197" y2="240.247" stroke="#C1C1C1" stroke-width="1.58101"/>
<line x1="332.884" y1="235.504" x2="332.884" y2="240.247" stroke="#C1C1C1" stroke-width="1.58101"/>
<path d="M117.052 253.475C117.861 252.775 118.498 252.202 118.962 251.755C119.434 251.3 119.826 250.827 120.138 250.338C120.45 249.849 120.606 249.36 120.606 248.871C120.606 248.365 120.484 247.969 120.239 247.682C120.003 247.396 119.628 247.252 119.113 247.252C118.616 247.252 118.228 247.412 117.95 247.733C117.68 248.045 117.537 248.466 117.52 248.998H116.128C116.154 248.036 116.44 247.303 116.989 246.797C117.545 246.283 118.249 246.025 119.101 246.025C120.02 246.025 120.737 246.278 121.251 246.784C121.774 247.29 122.035 247.965 122.035 248.808C122.035 249.415 121.879 250.001 121.567 250.566C121.264 251.123 120.897 251.624 120.467 252.071C120.045 252.51 119.506 253.02 118.848 253.602L118.279 254.108H122.288V255.309H116.141V254.259L117.052 253.475Z" fill="#ABAAAA"/>
<path d="M64.5675 250.705C64.5675 249.246 64.812 248.108 65.3011 247.29C65.7986 246.464 66.6502 246.051 67.856 246.051C69.0617 246.051 69.9092 246.464 70.3982 247.29C70.8957 248.108 71.1445 249.246 71.1445 250.705C71.1445 252.181 70.8957 253.336 70.3982 254.171C69.9092 254.997 69.0617 255.41 67.856 255.41C66.6502 255.41 65.7986 254.997 65.3011 254.171C64.812 253.336 64.5675 252.181 64.5675 250.705ZM69.7279 250.705C69.7279 250.022 69.6815 249.445 69.5888 248.972C69.5044 248.5 69.3274 248.117 69.0575 247.821C68.7877 247.518 68.3872 247.366 67.856 247.366C67.3248 247.366 66.9242 247.518 66.6544 247.821C66.3846 248.117 66.2033 248.5 66.1105 248.972C66.0262 249.445 65.9841 250.022 65.9841 250.705C65.9841 251.413 66.0262 252.008 66.1105 252.489C66.1949 252.969 66.3719 253.357 66.6418 253.652C66.92 253.947 67.3248 254.095 67.856 254.095C68.3872 254.095 68.7877 253.947 69.0575 253.652C69.3358 253.357 69.5171 252.969 69.6014 252.489C69.6857 252.008 69.7279 251.413 69.7279 250.705Z" fill="#ABAAAA"/>
<path d="M63.2979 201.301C64.1074 200.601 64.744 200.028 65.2078 199.581C65.6799 199.126 66.072 198.654 66.384 198.165C66.696 197.675 66.852 197.186 66.852 196.697C66.852 196.191 66.7297 195.795 66.4852 195.508C66.2491 195.222 65.8739 195.078 65.3595 195.078C64.862 195.078 64.4742 195.239 64.1959 195.559C63.9261 195.871 63.7827 196.293 63.7659 196.824H62.3746C62.3999 195.863 62.6866 195.129 63.2347 194.623C63.7912 194.109 64.4952 193.852 65.3469 193.852C66.266 193.852 66.9827 194.105 67.497 194.61C68.0198 195.116 68.2812 195.791 68.2812 196.634C68.2812 197.241 68.1252 197.827 67.8132 198.392C67.5097 198.949 67.1429 199.45 66.7129 199.897C66.2913 200.336 65.7516 200.846 65.0939 201.428L64.5248 201.934H68.5342V203.135H62.3872V202.085L63.2979 201.301Z" fill="#ABAAAA"/>
<path d="M62.324 161.816V160.728L66.5737 154.632H68.3192V160.564H69.4954V161.816H68.3192V163.738H66.9026V161.816H62.324ZM66.9658 156.099L63.9809 160.564H66.9658V156.099Z" fill="#ABAAAA"/>
<path d="M67.4591 117.13C67.3664 116.742 67.1977 116.451 66.9532 116.257C66.7087 116.063 66.3672 115.966 65.9287 115.966C65.2626 115.966 64.7651 116.224 64.4362 116.738C64.1074 117.244 63.9345 118.087 63.9177 119.268C64.1369 118.896 64.4573 118.61 64.8789 118.407C65.3005 118.205 65.7558 118.104 66.2449 118.104C66.8014 118.104 67.2905 118.226 67.7121 118.471C68.1421 118.707 68.4752 119.052 68.7113 119.508C68.9558 119.963 69.0781 120.507 69.0781 121.139C69.0781 121.73 68.96 122.257 68.7239 122.72C68.4962 123.184 68.1547 123.551 67.6994 123.821C67.2441 124.082 66.696 124.213 66.0552 124.213C65.1867 124.213 64.5037 124.023 64.0062 123.644C63.5171 123.256 63.1714 122.712 62.969 122.012C62.7751 121.312 62.6781 120.44 62.6781 119.394C62.6781 116.308 63.7659 114.765 65.9413 114.765C66.7845 114.765 67.4465 114.992 67.9271 115.448C68.4161 115.903 68.7028 116.464 68.7871 117.13H67.4591ZM65.9287 119.318C65.4143 119.318 64.9759 119.474 64.6133 119.786C64.2591 120.09 64.0821 120.532 64.0821 121.114C64.0821 121.696 64.2465 122.16 64.5753 122.505C64.9126 122.843 65.3806 123.011 65.9793 123.011C66.5105 123.011 66.9279 122.847 67.2314 122.518C67.5434 122.189 67.6994 121.751 67.6994 121.203C67.6994 120.629 67.5476 120.174 67.2441 119.837C66.949 119.491 66.5105 119.318 65.9287 119.318Z" fill="#ABAAAA"/>
<path d="M64.0568 79.8686C63.1798 79.4301 62.7414 78.7387 62.7414 77.7943C62.7414 77.339 62.8552 76.9216 63.0829 76.5422C63.3105 76.1627 63.652 75.8634 64.1074 75.6441C64.5627 75.4165 65.1192 75.3027 65.7769 75.3027C66.4262 75.3027 66.9785 75.4165 67.4338 75.6441C67.8976 75.8634 68.2433 76.1627 68.4709 76.5422C68.6986 76.9216 68.8124 77.339 68.8124 77.7943C68.8124 78.2665 68.6902 78.6839 68.4457 79.0465C68.2096 79.4006 67.8934 79.6747 67.497 79.8686C67.9777 80.0457 68.3571 80.3366 68.6354 80.7413C68.9136 81.1376 69.0528 81.6056 69.0528 82.1452C69.0528 82.6933 68.9136 83.1782 68.6354 83.5998C68.3571 84.0214 67.9692 84.346 67.4718 84.5737C66.9743 84.8013 66.4093 84.9152 65.7769 84.9152C65.1445 84.9152 64.5796 84.8013 64.0821 84.5737C63.593 84.346 63.2094 84.0214 62.9311 83.5998C62.6528 83.1782 62.5137 82.6933 62.5137 82.1452C62.5137 81.5972 62.6528 81.125 62.9311 80.7287C63.2094 80.3324 63.5846 80.0457 64.0568 79.8686ZM67.4338 77.9714C67.4338 77.4992 67.2862 77.1366 66.9911 76.8837C66.696 76.6307 66.2913 76.5042 65.7769 76.5042C65.271 76.5042 64.8705 76.6307 64.5753 76.8837C64.2802 77.1366 64.1327 77.5034 64.1327 77.984C64.1327 78.4056 64.2844 78.7514 64.588 79.0212C64.9 79.2826 65.2963 79.4133 65.7769 79.4133C66.2575 79.4133 66.6538 79.2784 66.9658 79.0085C67.2778 78.7387 67.4338 78.393 67.4338 77.9714ZM65.7769 80.501C65.2204 80.501 64.7651 80.6401 64.4109 80.9184C64.0652 81.1882 63.8924 81.5803 63.8924 82.0947C63.8924 82.5753 64.061 82.9674 64.3983 83.2709C64.7356 83.566 65.1951 83.7136 65.7769 83.7136C66.3503 83.7136 66.8014 83.5618 67.1303 83.2583C67.4675 82.9547 67.6362 82.5668 67.6362 82.0947C67.6362 81.5887 67.4633 81.1966 67.1176 80.9184C66.7803 80.6401 66.3334 80.501 65.7769 80.501Z" fill="#ABAAAA"/>
<path d="M57.5692 37.2571V35.9417H60.2V45.1621H58.7454V37.2571H57.5692ZM62.1808 40.4317C62.1808 38.973 62.4253 37.8347 62.9143 37.0168C63.4118 36.1904 64.2635 35.7773 65.4692 35.7773C66.675 35.7773 67.5224 36.1904 68.0115 37.0168C68.509 37.8347 68.7577 38.973 68.7577 40.4317C68.7577 41.9073 68.509 43.0625 68.0115 43.8973C67.5224 44.7236 66.675 45.1368 65.4692 45.1368C64.2635 45.1368 63.4118 44.7236 62.9143 43.8973C62.4253 43.0625 62.1808 41.9073 62.1808 40.4317ZM67.3412 40.4317C67.3412 39.7487 67.2948 39.1712 67.202 38.699C67.1177 38.2268 66.9406 37.8431 66.6708 37.548C66.401 37.2444 66.0005 37.0927 65.4692 37.0927C64.938 37.0927 64.5375 37.2444 64.2677 37.548C63.9979 37.8431 63.8166 38.2268 63.7238 38.699C63.6395 39.1712 63.5973 39.7487 63.5973 40.4317C63.5973 41.14 63.6395 41.7345 63.7238 42.2151C63.8081 42.6957 63.9852 43.0836 64.255 43.3787C64.5333 43.6739 64.938 43.8214 65.4692 43.8214C66.0005 43.8214 66.401 43.6739 66.6708 43.3787C66.9491 43.0836 67.1304 42.6957 67.2147 42.2151C67.299 41.7345 67.3412 41.14 67.3412 40.4317Z" fill="#ABAAAA"/>
<path d="M158.765 253.513V252.425L163.015 246.329H164.761V252.261H165.937V253.513H164.761V255.436H163.344V253.513H158.765ZM163.407 247.796L160.422 252.261H163.407V247.796Z" fill="#ABAAAA"/>
<path d="M206.588 248.353C206.495 247.965 206.327 247.674 206.082 247.48C205.838 247.286 205.496 247.189 205.058 247.189C204.391 247.189 203.894 247.446 203.565 247.961C203.236 248.466 203.063 249.31 203.047 250.49C203.266 250.119 203.586 249.832 204.008 249.63C204.429 249.428 204.885 249.327 205.374 249.327C205.93 249.327 206.419 249.449 206.841 249.693C207.271 249.929 207.604 250.275 207.84 250.73C208.085 251.186 208.207 251.73 208.207 252.362C208.207 252.952 208.089 253.479 207.853 253.943C207.625 254.407 207.284 254.774 206.828 255.043C206.373 255.305 205.825 255.436 205.184 255.436C204.316 255.436 203.633 255.246 203.135 254.866C202.646 254.479 202.3 253.935 202.098 253.235C201.904 252.535 201.807 251.662 201.807 250.617C201.807 247.531 202.895 245.987 205.07 245.987C205.913 245.987 206.575 246.215 207.056 246.67C207.545 247.126 207.832 247.687 207.916 248.353H206.588ZM205.058 250.541C204.543 250.541 204.105 250.697 203.742 251.009C203.388 251.312 203.211 251.755 203.211 252.337C203.211 252.919 203.375 253.382 203.704 253.728C204.042 254.065 204.51 254.234 205.108 254.234C205.639 254.234 206.057 254.07 206.36 253.741C206.672 253.412 206.828 252.973 206.828 252.425C206.828 251.852 206.677 251.397 206.373 251.059C206.078 250.714 205.639 250.541 205.058 250.541Z" fill="#ABAAAA"/>
<path d="M102.483 276.111V286H100.861V279.227L97.8442 286H96.7201L93.6893 279.227V286H92.0672V276.111H93.8174L97.2892 283.866L100.747 276.111H102.483ZM108.016 286.128C107.276 286.128 106.607 285.962 106.009 285.63C105.412 285.289 104.942 284.814 104.601 284.207C104.259 283.591 104.088 282.879 104.088 282.073C104.088 281.276 104.264 280.569 104.615 279.953C104.966 279.336 105.445 278.862 106.052 278.53C106.659 278.198 107.337 278.032 108.087 278.032C108.836 278.032 109.514 278.198 110.122 278.53C110.729 278.862 111.208 279.336 111.559 279.953C111.91 280.569 112.085 281.276 112.085 282.073C112.085 282.87 111.905 283.576 111.544 284.193C111.184 284.81 110.691 285.289 110.065 285.63C109.448 285.962 108.765 286.128 108.016 286.128ZM108.016 284.719C108.433 284.719 108.822 284.62 109.182 284.421C109.552 284.221 109.851 283.923 110.079 283.524C110.306 283.126 110.42 282.642 110.42 282.073C110.42 281.504 110.311 281.025 110.093 280.636C109.875 280.237 109.586 279.938 109.225 279.739C108.865 279.54 108.476 279.44 108.058 279.44C107.641 279.44 107.252 279.54 106.892 279.739C106.541 279.938 106.261 280.237 106.052 280.636C105.843 281.025 105.739 281.504 105.739 282.073C105.739 282.917 105.952 283.572 106.379 284.036C106.816 284.492 107.361 284.719 108.016 284.719ZM117.644 278.032C118.261 278.032 118.811 278.16 119.295 278.416C119.788 278.672 120.172 279.051 120.447 279.554C120.723 280.057 120.86 280.664 120.86 281.376V286H119.252V281.617C119.252 280.915 119.077 280.38 118.726 280.01C118.375 279.63 117.896 279.44 117.289 279.44C116.682 279.44 116.198 279.63 115.837 280.01C115.486 280.38 115.311 280.915 115.311 281.617V286H113.689V278.16H115.311V279.056C115.576 278.734 115.913 278.482 116.321 278.302C116.738 278.122 117.18 278.032 117.644 278.032ZM124.822 279.483V283.823C124.822 284.117 124.888 284.33 125.021 284.463C125.163 284.587 125.4 284.648 125.732 284.648H126.728V286H125.448C124.717 286 124.158 285.829 123.769 285.488C123.38 285.146 123.185 284.591 123.185 283.823V279.483H122.26V278.16H123.185V276.21H124.822V278.16H126.728V279.483H124.822ZM132.279 278.032C132.876 278.032 133.408 278.16 133.872 278.416C134.347 278.672 134.717 279.051 134.982 279.554C135.257 280.057 135.395 280.664 135.395 281.376V286H133.787V281.617C133.787 280.915 133.611 280.38 133.261 280.01C132.91 279.63 132.43 279.44 131.823 279.44C131.216 279.44 130.732 279.63 130.372 280.01C130.021 280.38 129.846 280.915 129.846 281.617V286H128.223V275.471H129.846V279.07C130.121 278.738 130.467 278.482 130.884 278.302C131.311 278.122 131.776 278.032 132.279 278.032ZM140.31 286.128C139.693 286.128 139.138 286.019 138.645 285.801C138.161 285.573 137.777 285.27 137.492 284.89C137.208 284.501 137.056 284.07 137.037 283.595H138.716C138.745 283.927 138.901 284.207 139.186 284.435C139.48 284.653 139.845 284.762 140.281 284.762C140.737 284.762 141.088 284.677 141.334 284.506C141.59 284.326 141.718 284.098 141.718 283.823C141.718 283.529 141.576 283.311 141.292 283.168C141.016 283.026 140.575 282.87 139.968 282.699C139.38 282.538 138.901 282.381 138.531 282.229C138.161 282.078 137.839 281.845 137.564 281.532C137.298 281.219 137.165 280.806 137.165 280.294C137.165 279.877 137.288 279.497 137.535 279.156C137.782 278.805 138.133 278.53 138.588 278.331C139.053 278.131 139.584 278.032 140.182 278.032C141.073 278.032 141.79 278.259 142.33 278.715C142.88 279.161 143.175 279.772 143.212 280.55H141.59C141.562 280.199 141.42 279.919 141.164 279.711C140.907 279.502 140.561 279.398 140.125 279.398C139.698 279.398 139.371 279.478 139.143 279.64C138.915 279.801 138.801 280.014 138.801 280.28C138.801 280.489 138.877 280.664 139.029 280.806C139.181 280.949 139.366 281.063 139.584 281.148C139.802 281.224 140.125 281.323 140.552 281.447C141.121 281.598 141.586 281.755 141.946 281.916C142.316 282.068 142.634 282.296 142.899 282.599C143.165 282.903 143.303 283.306 143.312 283.809C143.312 284.255 143.189 284.653 142.942 285.004C142.696 285.355 142.345 285.63 141.889 285.829C141.443 286.028 140.917 286.128 140.31 286.128ZM150.383 275.471V286H148.761V275.471H150.383ZM153.338 277.121C153.044 277.121 152.797 277.021 152.598 276.822C152.399 276.623 152.299 276.376 152.299 276.082C152.299 275.788 152.399 275.542 152.598 275.342C152.797 275.143 153.044 275.044 153.338 275.044C153.623 275.044 153.865 275.143 154.064 275.342C154.263 275.542 154.363 275.788 154.363 276.082C154.363 276.376 154.263 276.623 154.064 276.822C153.865 277.021 153.623 277.121 153.338 277.121ZM154.135 278.16V286H152.513V278.16H154.135ZM159.295 284.549L161.515 278.16H163.237L160.249 286H158.314L155.34 278.16H157.076L159.295 284.549ZM171.649 281.888C171.649 282.182 171.63 282.447 171.592 282.685H165.601C165.649 283.311 165.881 283.813 166.299 284.193C166.716 284.572 167.228 284.762 167.835 284.762C168.708 284.762 169.325 284.397 169.685 283.666H171.435C171.198 284.387 170.766 284.98 170.14 285.445C169.524 285.9 168.755 286.128 167.835 286.128C167.086 286.128 166.412 285.962 165.815 285.63C165.227 285.289 164.762 284.814 164.42 284.207C164.088 283.591 163.922 282.879 163.922 282.073C163.922 281.266 164.084 280.56 164.406 279.953C164.738 279.336 165.198 278.862 165.786 278.53C166.384 278.198 167.067 278.032 167.835 278.032C168.575 278.032 169.235 278.193 169.813 278.516C170.392 278.838 170.842 279.293 171.165 279.882C171.487 280.46 171.649 281.129 171.649 281.888ZM169.955 281.376C169.946 280.778 169.733 280.299 169.315 279.938C168.898 279.578 168.381 279.398 167.764 279.398C167.204 279.398 166.725 279.578 166.327 279.938C165.929 280.289 165.691 280.768 165.616 281.376H169.955ZM172.704 282.044C172.704 281.257 172.866 280.56 173.188 279.953C173.52 279.346 173.966 278.876 174.526 278.544C175.095 278.202 175.726 278.032 176.418 278.032C176.93 278.032 177.433 278.146 177.926 278.373C178.429 278.591 178.828 278.885 179.122 279.255V275.471H180.758V286H179.122V284.819C178.856 285.198 178.486 285.511 178.012 285.758C177.547 286.005 177.011 286.128 176.404 286.128C175.721 286.128 175.095 285.957 174.526 285.616C173.966 285.265 173.52 284.781 173.188 284.164C172.866 283.538 172.704 282.832 172.704 282.044ZM179.122 282.073C179.122 281.532 179.008 281.063 178.78 280.664C178.562 280.266 178.273 279.962 177.912 279.753C177.552 279.545 177.163 279.44 176.745 279.44C176.328 279.44 175.939 279.545 175.579 279.753C175.218 279.953 174.924 280.251 174.696 280.65C174.478 281.039 174.369 281.504 174.369 282.044C174.369 282.585 174.478 283.059 174.696 283.467C174.924 283.875 175.218 284.188 175.579 284.406C175.949 284.615 176.337 284.719 176.745 284.719C177.163 284.719 177.552 284.615 177.912 284.406C178.273 284.198 178.562 283.894 178.78 283.496C179.008 283.088 179.122 282.613 179.122 282.073ZM187.41 277.121C187.116 277.121 186.869 277.021 186.67 276.822C186.471 276.623 186.371 276.376 186.371 276.082C186.371 275.788 186.471 275.542 186.67 275.342C186.869 275.143 187.116 275.044 187.41 275.044C187.695 275.044 187.937 275.143 188.136 275.342C188.335 275.542 188.435 275.788 188.435 276.082C188.435 276.376 188.335 276.623 188.136 276.822C187.937 277.021 187.695 277.121 187.41 277.121ZM188.207 278.16V286H186.585V278.16H188.207ZM194.292 278.032C194.909 278.032 195.459 278.16 195.943 278.416C196.436 278.672 196.82 279.051 197.095 279.554C197.37 280.057 197.508 280.664 197.508 281.376V286H195.9V281.617C195.9 280.915 195.725 280.38 195.374 280.01C195.023 279.63 194.544 279.44 193.937 279.44C193.329 279.44 192.846 279.63 192.485 280.01C192.134 280.38 191.959 280.915 191.959 281.617V286H190.337V278.16H191.959V279.056C192.224 278.734 192.561 278.482 192.969 278.302C193.386 278.122 193.827 278.032 194.292 278.032ZM202.733 282.044C202.733 281.257 202.894 280.56 203.216 279.953C203.548 279.346 203.994 278.876 204.554 278.544C205.123 278.202 205.749 278.032 206.432 278.032C207.049 278.032 207.585 278.155 208.04 278.402C208.505 278.639 208.875 278.938 209.15 279.298V278.16H210.786V286H209.15V284.833C208.875 285.203 208.5 285.511 208.026 285.758C207.552 286.005 207.011 286.128 206.404 286.128C205.73 286.128 205.114 285.957 204.554 285.616C203.994 285.265 203.548 284.781 203.216 284.164C202.894 283.538 202.733 282.832 202.733 282.044ZM209.15 282.073C209.15 281.532 209.036 281.063 208.808 280.664C208.59 280.266 208.301 279.962 207.94 279.753C207.58 279.545 207.191 279.44 206.774 279.44C206.356 279.44 205.967 279.545 205.607 279.753C205.246 279.953 204.952 280.251 204.725 280.65C204.507 281.039 204.397 281.504 204.397 282.044C204.397 282.585 204.507 283.059 204.725 283.467C204.952 283.875 205.246 284.188 205.607 284.406C205.977 284.615 206.366 284.719 206.774 284.719C207.191 284.719 207.58 284.615 207.94 284.406C208.301 284.198 208.59 283.894 208.808 283.496C209.036 283.088 209.15 282.613 209.15 282.073ZM219.459 286.128C218.842 286.128 218.287 286.019 217.794 285.801C217.31 285.573 216.926 285.27 216.642 284.89C216.357 284.501 216.205 284.07 216.186 283.595H217.865C217.894 283.927 218.05 284.207 218.335 284.435C218.629 284.653 218.994 284.762 219.43 284.762C219.886 284.762 220.237 284.677 220.483 284.506C220.739 284.326 220.868 284.098 220.868 283.823C220.868 283.529 220.725 283.311 220.441 283.168C220.166 283.026 219.724 282.87 219.117 282.699C218.529 282.538 218.05 282.381 217.68 282.229C217.31 282.078 216.988 281.845 216.713 281.532C216.447 281.219 216.314 280.806 216.314 280.294C216.314 279.877 216.438 279.497 216.684 279.156C216.931 278.805 217.282 278.53 217.737 278.331C218.202 278.131 218.733 278.032 219.331 278.032C220.222 278.032 220.939 278.259 221.479 278.715C222.03 279.161 222.324 279.772 222.362 280.55H220.739C220.711 280.199 220.569 279.919 220.313 279.711C220.056 279.502 219.71 279.398 219.274 279.398C218.847 279.398 218.52 279.478 218.292 279.64C218.064 279.801 217.951 280.014 217.951 280.28C217.951 280.489 218.026 280.664 218.178 280.806C218.33 280.949 218.515 281.063 218.733 281.148C218.951 281.224 219.274 281.323 219.701 281.447C220.27 281.598 220.735 281.755 221.095 281.916C221.465 282.068 221.783 282.296 222.049 282.599C222.314 282.903 222.452 283.306 222.461 283.809C222.461 284.255 222.338 284.653 222.091 285.004C221.845 285.355 221.494 285.63 221.038 285.829C220.592 286.028 220.066 286.128 219.459 286.128ZM223.673 282.044C223.673 281.257 223.834 280.56 224.157 279.953C224.489 279.346 224.935 278.876 225.495 278.544C226.064 278.202 226.69 278.032 227.373 278.032C227.989 278.032 228.525 278.155 228.981 278.402C229.445 278.639 229.815 278.938 230.091 279.298V278.16H231.727V286H230.091V284.833C229.815 285.203 229.441 285.511 228.966 285.758C228.492 286.005 227.951 286.128 227.344 286.128C226.671 286.128 226.054 285.957 225.495 285.616C224.935 285.265 224.489 284.781 224.157 284.164C223.834 283.538 223.673 282.832 223.673 282.044ZM230.091 282.073C230.091 281.532 229.977 281.063 229.749 280.664C229.531 280.266 229.242 279.962 228.881 279.753C228.521 279.545 228.132 279.44 227.714 279.44C227.297 279.44 226.908 279.545 226.547 279.753C226.187 279.953 225.893 280.251 225.665 280.65C225.447 281.039 225.338 281.504 225.338 282.044C225.338 282.585 225.447 283.059 225.665 283.467C225.893 283.875 226.187 284.188 226.547 284.406C226.917 284.615 227.306 284.719 227.714 284.719C228.132 284.719 228.521 284.615 228.881 284.406C229.242 284.198 229.531 283.894 229.749 283.496C229.977 283.088 230.091 282.613 230.091 282.073ZM243.348 278.032C243.965 278.032 244.515 278.16 244.999 278.416C245.492 278.672 245.876 279.051 246.151 279.554C246.436 280.057 246.578 280.664 246.578 281.376V286H244.97V281.617C244.97 280.915 244.795 280.38 244.444 280.01C244.093 279.63 243.614 279.44 243.007 279.44C242.4 279.44 241.916 279.63 241.555 280.01C241.204 280.38 241.029 280.915 241.029 281.617V286H239.421V281.617C239.421 280.915 239.245 280.38 238.895 280.01C238.544 279.63 238.064 279.44 237.457 279.44C236.85 279.44 236.366 279.63 236.006 280.01C235.655 280.38 235.48 280.915 235.48 281.617V286H233.857V278.16H235.48V279.056C235.745 278.734 236.082 278.482 236.49 278.302C236.898 278.122 237.334 278.032 237.799 278.032C238.425 278.032 238.985 278.165 239.478 278.43C239.971 278.696 240.351 279.08 240.616 279.583C240.853 279.108 241.223 278.734 241.726 278.459C242.229 278.174 242.77 278.032 243.348 278.032ZM255.828 281.888C255.828 282.182 255.809 282.447 255.771 282.685H249.781C249.828 283.311 250.06 283.813 250.478 284.193C250.895 284.572 251.407 284.762 252.015 284.762C252.887 284.762 253.504 284.397 253.864 283.666H255.615C255.377 284.387 254.946 284.98 254.32 285.445C253.703 285.9 252.935 286.128 252.015 286.128C251.265 286.128 250.592 285.962 249.994 285.63C249.406 285.289 248.941 284.814 248.6 284.207C248.268 283.591 248.102 282.879 248.102 282.073C248.102 281.266 248.263 280.56 248.585 279.953C248.917 279.336 249.377 278.862 249.966 278.53C250.563 278.198 251.246 278.032 252.015 278.032C252.755 278.032 253.414 278.193 253.992 278.516C254.571 278.838 255.022 279.293 255.344 279.882C255.667 280.46 255.828 281.129 255.828 281.888ZM254.135 281.376C254.125 280.778 253.912 280.299 253.494 279.938C253.077 279.578 252.56 279.398 251.943 279.398C251.384 279.398 250.905 279.578 250.506 279.938C250.108 280.289 249.871 280.768 249.795 281.376H254.135ZM262.743 275.471V286H261.121V275.471H262.743ZM268.273 286.128C267.533 286.128 266.864 285.962 266.267 285.63C265.669 285.289 265.2 284.814 264.858 284.207C264.517 283.591 264.346 282.879 264.346 282.073C264.346 281.276 264.521 280.569 264.872 279.953C265.223 279.336 265.702 278.862 266.309 278.53C266.917 278.198 267.595 278.032 268.344 278.032C269.094 278.032 269.772 278.198 270.379 278.53C270.986 278.862 271.465 279.336 271.816 279.953C272.167 280.569 272.343 281.276 272.343 282.073C272.343 282.87 272.162 283.576 271.802 284.193C271.441 284.81 270.948 285.289 270.322 285.63C269.705 285.962 269.022 286.128 268.273 286.128ZM268.273 284.719C268.69 284.719 269.079 284.62 269.44 284.421C269.81 284.221 270.109 283.923 270.336 283.524C270.564 283.126 270.678 282.642 270.678 282.073C270.678 281.504 270.569 281.025 270.351 280.636C270.132 280.237 269.843 279.938 269.483 279.739C269.122 279.54 268.733 279.44 268.316 279.44C267.898 279.44 267.509 279.54 267.149 279.739C266.798 279.938 266.518 280.237 266.309 280.636C266.101 281.025 265.996 281.504 265.996 282.073C265.996 282.917 266.21 283.572 266.637 284.036C267.073 284.492 267.619 284.719 268.273 284.719ZM273.405 282.073C273.405 281.266 273.567 280.56 273.889 279.953C274.221 279.336 274.677 278.862 275.255 278.53C275.834 278.198 276.498 278.032 277.247 278.032C278.196 278.032 278.978 278.259 279.595 278.715C280.221 279.161 280.643 279.801 280.861 280.636H279.111C278.969 280.247 278.741 279.943 278.428 279.725C278.115 279.507 277.722 279.398 277.247 279.398C276.583 279.398 276.052 279.635 275.654 280.109C275.265 280.574 275.07 281.229 275.07 282.073C275.07 282.917 275.265 283.576 275.654 284.051C276.052 284.525 276.583 284.762 277.247 284.762C278.186 284.762 278.808 284.349 279.111 283.524H280.861C280.634 284.321 280.207 284.957 279.581 285.431C278.955 285.896 278.177 286.128 277.247 286.128C276.498 286.128 275.834 285.962 275.255 285.63C274.677 285.289 274.221 284.814 273.889 284.207C273.567 283.591 273.405 282.879 273.405 282.073ZM281.937 282.044C281.937 281.257 282.099 280.56 282.421 279.953C282.753 279.346 283.199 278.876 283.759 278.544C284.328 278.202 284.954 278.032 285.637 278.032C286.253 278.032 286.789 278.155 287.245 278.402C287.71 278.639 288.079 278.938 288.355 279.298V278.16H289.991V286H288.355V284.833C288.079 285.203 287.705 285.511 287.23 285.758C286.756 286.005 286.215 286.128 285.608 286.128C284.935 286.128 284.318 285.957 283.759 285.616C283.199 285.265 282.753 284.781 282.421 284.164C282.099 283.538 281.937 282.832 281.937 282.044ZM288.355 282.073C288.355 281.532 288.241 281.063 288.013 280.664C287.795 280.266 287.506 279.962 287.145 279.753C286.785 279.545 286.396 279.44 285.978 279.44C285.561 279.44 285.172 279.545 284.812 279.753C284.451 279.953 284.157 280.251 283.929 280.65C283.711 281.039 283.602 281.504 283.602 282.044C283.602 282.585 283.711 283.059 283.929 283.467C284.157 283.875 284.451 284.188 284.812 284.406C285.182 284.615 285.57 284.719 285.978 284.719C286.396 284.719 286.785 284.615 287.145 284.406C287.506 284.198 287.795 283.894 288.013 283.496C288.241 283.088 288.355 282.613 288.355 282.073ZM294.014 279.483V283.823C294.014 284.117 294.08 284.33 294.213 284.463C294.355 284.587 294.593 284.648 294.925 284.648H295.921V286H294.64C293.91 286 293.35 285.829 292.961 285.488C292.572 285.146 292.378 284.591 292.378 283.823V279.483H291.453V278.16H292.378V276.21H294.014V278.16H295.921V279.483H294.014ZM298.241 277.121C297.947 277.121 297.7 277.021 297.501 276.822C297.302 276.623 297.202 276.376 297.202 276.082C297.202 275.788 297.302 275.542 297.501 275.342C297.7 275.143 297.947 275.044 298.241 275.044C298.526 275.044 298.767 275.143 298.967 275.342C299.166 275.542 299.265 275.788 299.265 276.082C299.265 276.376 299.166 276.623 298.967 276.822C298.767 277.021 298.526 277.121 298.241 277.121ZM299.038 278.16V286H297.416V278.16H299.038ZM304.568 286.128C303.828 286.128 303.16 285.962 302.562 285.63C301.964 285.289 301.495 284.814 301.153 284.207C300.812 283.591 300.641 282.879 300.641 282.073C300.641 281.276 300.817 280.569 301.168 279.953C301.519 279.336 301.998 278.862 302.605 278.53C303.212 278.198 303.89 278.032 304.639 278.032C305.389 278.032 306.067 278.198 306.674 278.53C307.281 278.862 307.76 279.336 308.111 279.953C308.462 280.569 308.638 281.276 308.638 282.073C308.638 282.87 308.458 283.576 308.097 284.193C307.737 284.81 307.243 285.289 306.617 285.63C306.001 285.962 305.318 286.128 304.568 286.128ZM304.568 284.719C304.986 284.719 305.375 284.62 305.735 284.421C306.105 284.221 306.404 283.923 306.631 283.524C306.859 283.126 306.973 282.642 306.973 282.073C306.973 281.504 306.864 281.025 306.646 280.636C306.428 280.237 306.138 279.938 305.778 279.739C305.417 279.54 305.028 279.44 304.611 279.44C304.194 279.44 303.805 279.54 303.444 279.739C303.093 279.938 302.813 280.237 302.605 280.636C302.396 281.025 302.292 281.504 302.292 282.073C302.292 282.917 302.505 283.572 302.932 284.036C303.368 284.492 303.914 284.719 304.568 284.719ZM314.197 278.032C314.814 278.032 315.364 278.16 315.848 278.416C316.341 278.672 316.725 279.051 317 279.554C317.275 280.057 317.413 280.664 317.413 281.376V286H315.805V281.617C315.805 280.915 315.629 280.38 315.278 280.01C314.927 279.63 314.448 279.44 313.841 279.44C313.234 279.44 312.75 279.63 312.39 280.01C312.039 280.38 311.863 280.915 311.863 281.617V286H310.241V278.16H311.863V279.056C312.129 278.734 312.466 278.482 312.874 278.302C313.291 278.122 313.732 278.032 314.197 278.032Z" fill="#416EA4"/>
<path d="M41 188.808L41 190.43L33.6151 195.311L41 195.311L41 196.933L31.0966 196.933L31.0966 195.311L38.4672 190.43L31.0966 190.43L31.0966 188.808L41 188.808ZM33.1598 179.578L41 179.578L41 181.2L40.0751 181.2C40.3976 181.456 40.6538 181.793 40.8435 182.21C41.0237 182.618 41.1138 183.054 41.1138 183.519C41.1138 184.136 40.9858 184.691 40.7296 185.184C40.4735 185.668 40.0941 186.052 39.5913 186.336C39.0886 186.611 38.4815 186.749 37.77 186.749L33.1598 186.749L33.1598 185.141L37.5281 185.141C38.2301 185.141 38.7708 184.966 39.1502 184.615C39.5202 184.264 39.7052 183.785 39.7052 183.178C39.7052 182.57 39.5202 182.091 39.1502 181.74C38.7708 181.38 38.2301 181.2 37.5281 181.2L33.1598 181.2L33.1598 179.578ZM33.0317 167.947C33.0317 167.33 33.1598 166.78 33.4159 166.296C33.672 165.803 34.0515 165.419 34.5542 165.143C35.057 164.859 35.6641 164.717 36.3756 164.717L41 164.717L41 166.324L36.6175 166.324C35.9155 166.324 35.3795 166.5 35.0096 166.851C34.6301 167.202 34.4404 167.681 34.4404 168.288C34.4404 168.895 34.6301 169.379 35.0096 169.739C35.3795 170.09 35.9155 170.266 36.6175 170.266L41 170.266L41 171.874L36.6175 171.874C35.9155 171.874 35.3795 172.049 35.0096 172.4C34.6301 172.751 34.4404 173.23 34.4404 173.837C34.4404 174.445 34.6301 174.928 35.0096 175.289C35.3795 175.64 35.9155 175.815 36.6175 175.815L41 175.815L41 177.437L33.1598 177.437L33.1598 175.815L34.0562 175.815C33.7337 175.55 33.4823 175.213 33.3021 174.805C33.1218 174.397 33.0317 173.961 33.0317 173.496C33.0317 172.87 33.1645 172.31 33.4301 171.817C33.6958 171.324 34.0799 170.944 34.5827 170.679C34.1084 170.441 33.7337 170.071 33.4586 169.569C33.174 169.066 33.0317 168.525 33.0317 167.947ZM34.3266 161.03C33.9471 160.755 33.6388 160.381 33.4017 159.906C33.155 159.422 33.0317 158.887 33.0317 158.298C33.0317 157.606 33.1977 156.98 33.5297 156.42C33.8618 155.86 34.3361 155.419 34.9527 155.097C35.5598 154.774 36.257 154.613 37.0443 154.613C37.8317 154.613 38.5384 154.774 39.1645 155.097C39.781 155.419 40.2648 155.865 40.6158 156.434C40.9573 156.994 41.1281 157.615 41.1281 158.298C41.1281 158.905 41.0095 159.446 40.7723 159.921C40.5352 160.385 40.2316 160.755 39.8617 161.03L41 161.03L41 162.652L30.4705 162.652L30.4705 161.03L34.3266 161.03ZM37.0443 156.264C36.5036 156.264 36.0388 156.377 35.6499 156.605C35.2515 156.823 34.9527 157.117 34.7534 157.487C34.5448 157.848 34.4404 158.237 34.4404 158.654C34.4404 159.062 34.5448 159.451 34.7534 159.821C34.9621 160.181 35.2657 160.475 35.6641 160.703C36.0625 160.921 36.5321 161.03 37.0728 161.03C37.6135 161.03 38.0878 160.921 38.4957 160.703C38.8941 160.475 39.1977 160.181 39.4063 159.821C39.615 159.451 39.7194 159.062 39.7194 158.654C39.7194 158.237 39.615 157.848 39.4063 157.487C39.1882 157.117 38.8751 156.823 38.4672 156.605C38.0593 156.377 37.585 156.264 37.0443 156.264ZM36.8878 145.823C37.1819 145.823 37.4475 145.842 37.6846 145.88L37.6846 151.871C38.3107 151.823 38.8135 151.591 39.1929 151.173C39.5723 150.756 39.7621 150.244 39.7621 149.637C39.7621 148.764 39.3969 148.147 38.6664 147.787L38.6664 146.037C39.3874 146.274 39.9802 146.705 40.4451 147.332C40.9004 147.948 41.1281 148.717 41.1281 149.637C41.1281 150.386 40.9621 151.06 40.63 151.657C40.2885 152.245 39.8142 152.71 39.2071 153.052C38.5905 153.384 37.8791 153.55 37.0728 153.55C36.2665 153.55 35.5598 153.388 34.9527 153.066C34.3361 152.734 33.8618 152.274 33.5297 151.686C33.1977 151.088 33.0317 150.405 33.0317 149.637C33.0317 148.897 33.193 148.237 33.5155 147.659C33.838 147.08 34.2934 146.63 34.8815 146.307C35.4602 145.985 36.1289 145.823 36.8878 145.823ZM36.3756 147.517C35.7779 147.526 35.2989 147.739 34.9384 148.157C34.578 148.574 34.3977 149.091 34.3977 149.708C34.3977 150.268 34.578 150.747 34.9384 151.145C35.2894 151.543 35.7685 151.781 36.3756 151.856L36.3756 147.517ZM34.2981 142.605C33.8997 142.368 33.5914 142.055 33.3732 141.666C33.1456 141.267 33.0317 140.798 33.0317 140.257L34.7108 140.257L34.7108 140.67C34.7108 141.305 34.872 141.789 35.1945 142.121C35.5171 142.444 36.0767 142.605 36.8736 142.605L41 142.605L41 144.227L33.1598 144.227L33.1598 142.605L34.2981 142.605ZM41.1281 131.669C41.1281 132.409 40.9621 133.078 40.63 133.675C40.2885 134.273 39.8142 134.743 39.2071 135.084C38.5905 135.426 37.8791 135.596 37.0728 135.596C36.276 135.596 35.5692 135.421 34.9527 135.07C34.3361 134.719 33.8618 134.24 33.5297 133.633C33.1977 133.026 33.0317 132.347 33.0317 131.598C33.0317 130.849 33.1977 130.17 33.5297 129.563C33.8618 128.956 34.3361 128.477 34.9527 128.126C35.5692 127.775 36.276 127.6 37.0728 127.6C37.8696 127.6 38.5763 127.78 39.1929 128.14C39.8095 128.501 40.2885 128.994 40.63 129.62C40.9621 130.237 41.1281 130.92 41.1281 131.669ZM39.7194 131.669C39.7194 131.252 39.6198 130.863 39.4206 130.502C39.2214 130.132 38.9226 129.834 38.5241 129.606C38.1257 129.378 37.6419 129.264 37.0728 129.264C36.5036 129.264 36.0246 129.373 35.6356 129.592C35.2372 129.81 34.9384 130.099 34.7392 130.46C34.54 130.82 34.4404 131.209 34.4404 131.626C34.4404 132.044 34.54 132.433 34.7392 132.793C34.9384 133.144 35.2372 133.424 35.6356 133.633C36.0246 133.841 36.5036 133.946 37.0728 133.946C37.917 133.946 38.5716 133.732 39.0364 133.305C39.4917 132.869 39.7194 132.324 39.7194 131.669ZM34.4831 122.709L34.4831 124.16L41 124.16L41 125.797L34.4831 125.797L34.4831 126.722L33.1598 126.722L33.1598 125.797L32.6049 125.797C31.7037 125.797 31.0491 125.56 30.6412 125.085C30.2239 124.602 30.0152 123.847 30.0152 122.823L31.3669 122.823C31.3669 123.316 31.4618 123.662 31.6515 123.862C31.8317 124.061 32.1495 124.16 32.6049 124.16L33.1598 124.16L33.1598 122.709L34.4831 122.709ZM34.3123 115.953C33.9519 115.678 33.6483 115.303 33.4017 114.829C33.155 114.355 33.0317 113.819 33.0317 113.221C33.0317 112.538 33.2025 111.917 33.544 111.357C33.876 110.788 34.3455 110.342 34.9526 110.02C35.5598 109.697 36.257 109.536 37.0443 109.536C37.8317 109.536 38.5384 109.697 39.1644 110.02C39.781 110.342 40.2648 110.788 40.6158 111.357C40.9573 111.917 41.1281 112.538 41.1281 113.221C41.1281 113.819 41.0095 114.35 40.7723 114.815C40.5257 115.28 40.2221 115.659 39.8617 115.953L44.728 115.953L44.728 117.575L33.1598 117.575L33.1598 115.953L34.3123 115.953ZM37.0443 111.186C36.5036 111.186 36.0388 111.3 35.6499 111.528C35.2515 111.746 34.9526 112.04 34.7534 112.41C34.5448 112.771 34.4404 113.16 34.4404 113.577C34.4404 113.985 34.5448 114.374 34.7534 114.744C34.9621 115.104 35.2657 115.398 35.6641 115.626C36.0625 115.844 36.5321 115.953 37.0728 115.953C37.6135 115.953 38.0878 115.844 38.4957 115.626C38.8941 115.398 39.1977 115.104 39.4063 114.744C39.615 114.374 39.7194 113.985 39.7194 113.577C39.7194 113.16 39.615 112.771 39.4063 112.41C39.1882 112.04 38.8751 111.746 38.4672 111.528C38.0593 111.3 37.585 111.186 37.0443 111.186ZM36.8878 100.746C37.1819 100.746 37.4475 100.765 37.6846 100.803L37.6846 106.793C38.3107 106.746 38.8135 106.514 39.1929 106.096C39.5723 105.679 39.7621 105.167 39.7621 104.559C39.7621 103.687 39.3969 103.07 38.6664 102.71L38.6664 100.96C39.3874 101.197 39.9802 101.628 40.4451 102.254C40.9004 102.871 41.1281 103.639 41.1281 104.559C41.1281 105.309 40.9621 105.982 40.63 106.58C40.2885 107.168 39.8142 107.633 39.2071 107.974C38.5905 108.306 37.8791 108.472 37.0728 108.472C36.2665 108.472 35.5598 108.311 34.9526 107.989C34.3361 107.657 33.8618 107.197 33.5297 106.608C33.1977 106.011 33.0317 105.328 33.0317 104.559C33.0317 103.82 33.193 103.16 33.5155 102.582C33.838 102.003 34.2934 101.552 34.8815 101.23C35.4602 100.907 36.1289 100.746 36.8878 100.746ZM36.3756 102.439C35.7779 102.449 35.2989 102.662 34.9384 103.08C34.578 103.497 34.3977 104.014 34.3977 104.631C34.3977 105.19 34.578 105.669 34.9384 106.068C35.2894 106.466 35.7684 106.703 36.3756 106.779L36.3756 102.439ZM41.1281 95.749C41.1281 96.489 40.9621 97.1577 40.63 97.7553C40.2885 98.353 39.8142 98.8225 39.2071 99.164C38.5905 99.5055 37.8791 99.6763 37.0728 99.6763C36.276 99.6763 35.5692 99.5008 34.9526 99.1498C34.3361 98.7988 33.8618 98.3198 33.5297 97.7127C33.1977 97.1055 33.0317 96.4273 33.0317 95.6779C33.0317 94.9285 33.1977 94.2502 33.5297 93.6431C33.8618 93.036 34.3361 92.557 34.9526 92.206C35.5692 91.855 36.276 91.6795 37.0728 91.6795C37.8696 91.6795 38.5763 91.8598 39.1929 92.2202C39.8095 92.5807 40.2885 93.074 40.63 93.7001C40.9621 94.3167 41.1281 94.9996 41.1281 95.749ZM39.7194 95.749C39.7194 95.3317 39.6198 94.9427 39.4206 94.5823C39.2214 94.2123 38.9226 93.9135 38.5241 93.6858C38.1257 93.4582 37.6419 93.3443 37.0728 93.3443C36.5036 93.3443 36.0246 93.4534 35.6356 93.6716C35.2372 93.8898 34.9384 94.1791 34.7392 94.5396C34.54 94.9 34.4404 95.289 34.4404 95.7064C34.4404 96.1237 34.54 96.5127 34.7392 96.8731C34.9384 97.2241 35.2372 97.504 35.6356 97.7127C36.0246 97.9213 36.5036 98.0257 37.0728 98.0257C37.917 98.0257 38.5716 97.8123 39.0364 97.3854C39.4917 96.949 39.7194 96.4036 39.7194 95.749ZM34.3123 88.4539C33.9519 88.1788 33.6483 87.8041 33.4017 87.3298C33.155 86.8555 33.0317 86.3195 33.0317 85.7219C33.0317 85.0389 33.2025 84.4176 33.544 83.8579C33.876 83.2887 34.3455 82.8429 34.9526 82.5204C35.5598 82.1978 36.257 82.0366 37.0443 82.0366C37.8317 82.0366 38.5384 82.1978 39.1644 82.5204C39.781 82.8429 40.2648 83.2887 40.6158 83.8579C40.9573 84.4176 41.1281 85.0389 41.1281 85.7219C41.1281 86.3195 41.0095 86.8507 40.7723 87.3156C40.5257 87.7804 40.2221 88.1598 39.8617 88.4539L44.728 88.4539L44.728 90.076L33.1598 90.076L33.1598 88.4539L34.3123 88.4539ZM37.0443 83.6872C36.5036 83.6872 36.0388 83.801 35.6499 84.0286C35.2515 84.2468 34.9526 84.5409 34.7534 84.9108C34.5447 85.2713 34.4404 85.6602 34.4404 86.0776C34.4404 86.4855 34.5447 86.8745 34.7534 87.2444C34.9621 87.6049 35.2657 87.8989 35.6641 88.1266C36.0625 88.3448 36.5321 88.4539 37.0728 88.4539C37.6135 88.4539 38.0878 88.3448 38.4957 88.1266C38.8941 87.8989 39.1976 87.6049 39.4063 87.2444C39.615 86.8745 39.7194 86.4855 39.7194 86.0776C39.7194 85.6602 39.615 85.2713 39.4063 84.9108C39.1882 84.5409 38.8751 84.2468 38.4672 84.0286C38.0593 83.801 37.585 83.6871 37.0443 83.6872ZM30.4705 78.8104L41 78.8104L41 80.4325L30.4705 80.4325L30.4705 78.8104ZM36.8878 69.495C37.1819 69.495 37.4475 69.514 37.6846 69.5519L37.6846 75.5424C38.3107 75.4949 38.8135 75.2625 39.1929 74.8451C39.5723 74.4277 39.7621 73.9155 39.7621 73.3084C39.7621 72.4357 39.3969 71.8191 38.6664 71.4586L38.6664 69.7084C39.3874 69.9456 39.9802 70.3772 40.4451 71.0033C40.9004 71.6199 41.1281 72.3882 41.1281 73.3084C41.1281 74.0578 40.9621 74.7313 40.63 75.3289C40.2885 75.9171 39.8142 76.3819 39.2071 76.7234C38.5905 77.0554 37.8791 77.2214 37.0728 77.2214C36.2665 77.2214 35.5598 77.0601 34.9526 76.7376C34.3361 76.4056 33.8618 75.9455 33.5297 75.3574C33.1977 74.7598 33.0317 74.0768 33.0317 73.3084C33.0317 72.5685 33.193 71.9092 33.5155 71.3306C33.838 70.7519 34.2934 70.3013 34.8815 69.9788C35.4602 69.6563 36.1289 69.495 36.8878 69.495ZM36.3756 71.1883C35.7779 71.1977 35.2989 71.4112 34.9384 71.8286C34.5779 72.246 34.3977 72.7629 34.3977 73.3795C34.3977 73.9392 34.5779 74.4183 34.9384 74.8167C35.2894 75.2151 35.7684 75.4522 36.3756 75.5281L36.3756 71.1883Z" fill="#416EA4"/>
<path d="M245.873 250.617C244.996 250.178 244.558 249.487 244.558 248.542C244.558 248.087 244.672 247.67 244.899 247.29C245.127 246.911 245.468 246.611 245.924 246.392C246.379 246.165 246.936 246.051 247.593 246.051C248.243 246.051 248.795 246.165 249.25 246.392C249.714 246.611 250.06 246.911 250.287 247.29C250.515 247.67 250.629 248.087 250.629 248.542C250.629 249.015 250.507 249.432 250.262 249.795C250.026 250.149 249.71 250.423 249.313 250.617C249.794 250.794 250.174 251.085 250.452 251.489C250.73 251.886 250.869 252.354 250.869 252.893C250.869 253.441 250.73 253.926 250.452 254.348C250.174 254.769 249.786 255.094 249.288 255.322C248.791 255.549 248.226 255.663 247.593 255.663C246.961 255.663 246.396 255.549 245.898 255.322C245.409 255.094 245.026 254.769 244.748 254.348C244.469 253.926 244.33 253.441 244.33 252.893C244.33 252.345 244.469 251.873 244.748 251.477C245.026 251.08 245.401 250.794 245.873 250.617ZM249.25 248.719C249.25 248.247 249.103 247.885 248.808 247.632C248.512 247.379 248.108 247.252 247.593 247.252C247.087 247.252 246.687 247.379 246.392 247.632C246.097 247.885 245.949 248.251 245.949 248.732C245.949 249.154 246.101 249.499 246.404 249.769C246.716 250.031 247.113 250.161 247.593 250.161C248.074 250.161 248.47 250.026 248.782 249.757C249.094 249.487 249.25 249.141 249.25 248.719ZM247.593 251.249C247.037 251.249 246.581 251.388 246.227 251.666C245.882 251.936 245.709 252.328 245.709 252.843C245.709 253.323 245.877 253.715 246.215 254.019C246.552 254.314 247.012 254.462 247.593 254.462C248.167 254.462 248.618 254.31 248.947 254.006C249.284 253.703 249.453 253.315 249.453 252.843C249.453 252.337 249.28 251.945 248.934 251.666C248.597 251.388 248.15 251.249 247.593 251.249Z" fill="#ABAAAA"/>
<path d="M283.655 247.531V246.215H286.286V255.436H284.831V247.531H283.655ZM288.267 250.705C288.267 249.246 288.511 248.108 289 247.29C289.498 246.464 290.349 246.051 291.555 246.051C292.761 246.051 293.608 246.464 294.097 247.29C294.595 248.108 294.844 249.246 294.844 250.705C294.844 252.181 294.595 253.336 294.097 254.171C293.608 254.997 292.761 255.41 291.555 255.41C290.349 255.41 289.498 254.997 289 254.171C288.511 253.336 288.267 252.181 288.267 250.705ZM293.427 250.705C293.427 250.022 293.381 249.445 293.288 248.972C293.204 248.5 293.027 248.117 292.757 247.821C292.487 247.518 292.086 247.366 291.555 247.366C291.024 247.366 290.623 247.518 290.354 247.821C290.084 248.117 289.903 248.5 289.81 248.972C289.725 249.445 289.683 250.022 289.683 250.705C289.683 251.413 289.725 252.008 289.81 252.489C289.894 252.969 290.071 253.357 290.341 253.652C290.619 253.947 291.024 254.095 291.555 254.095C292.086 254.095 292.487 253.947 292.757 253.652C293.035 253.357 293.216 252.969 293.301 252.489C293.385 252.008 293.427 251.413 293.427 250.705Z" fill="#ABAAAA"/>
<path d="M326.339 247.531V246.215H328.969V255.436H327.515V247.531H326.339ZM331.747 253.475C332.557 252.775 333.193 252.202 333.657 251.755C334.129 251.3 334.521 250.827 334.833 250.338C335.145 249.849 335.301 249.36 335.301 248.871C335.301 248.365 335.179 247.969 334.934 247.682C334.698 247.396 334.323 247.252 333.809 247.252C333.311 247.252 332.923 247.412 332.645 247.733C332.375 248.045 332.232 248.466 332.215 248.998H330.824C330.849 248.036 331.136 247.303 331.684 246.797C332.24 246.283 332.944 246.025 333.796 246.025C334.715 246.025 335.432 246.278 335.946 246.784C336.469 247.29 336.73 247.965 336.73 248.808C336.73 249.415 336.574 250.001 336.262 250.566C335.959 251.123 335.592 251.624 335.162 252.071C334.74 252.51 334.201 253.02 333.543 253.602L332.974 254.108H336.983V255.309H330.836V254.259L331.747 253.475Z" fill="#ABAAAA"/>
<defs>
<filter id="filter0_d_1075_2180" x="198.095" y="44.7709" width="63.1341" height="200.134" filterUnits="userSpaceOnUse" color-interpolation-filters="sRGB">
<feFlood flood-opacity="0" result="BackgroundImageFix"/>
<feColorMatrix in="SourceAlpha" type="matrix" values="0 0 0 0 0 0 0 0 0 0 0 0 0 0 0 0 0 0 127 0" result="hardAlpha"/>
<feMorphology radius="1.58101" operator="dilate" in="SourceAlpha" result="effect1_dropShadow_1075_2180"/>
<feOffset dx="3.16201" dy="-3.16201"/>
<feGaussianBlur stdDeviation="4.74302"/>
<feComposite in2="hardAlpha" operator="out"/>
<feColorMatrix type="matrix" values="0 0 0 0 0 0 0 0 0 0 0 0 0 0 0 0 0 0 0.17 0"/>
<feBlend mode="normal" in2="BackgroundImageFix" result="effect1_dropShadow_1075_2180"/>
<feBlend mode="normal" in="SourceGraphic" in2="effect1_dropShadow_1075_2180" result="shape"/>
</filter>
</defs>
</svg>
