<svg width="55" height="55" viewBox="0 0 55 55" fill="none" xmlns="http://www.w3.org/2000/svg">
<path d="M54.5807 24.7914C54.5883 22.8824 54.0913 21.0054 53.1401 19.3503C52.1889 17.6952 50.8173 16.3209 49.164 15.3664C49.2048 14.8978 49.2048 14.4266 49.164 13.9581C49.164 11.8032 48.308 9.73655 46.7843 8.21282C45.2606 6.68908 43.1939 5.83306 41.039 5.83306H40.5515C40.1005 4.58266 39.3496 3.462 38.3647 2.56937C37.3797 1.67674 36.1908 1.0394 34.9022 0.713237C33.6136 0.387073 32.2646 0.382047 30.9736 0.698603C29.6826 1.01516 28.4889 1.64363 27.4974 2.52889C26.5058 1.64363 25.3122 1.01516 24.0212 0.698603C22.7301 0.382047 21.3812 0.387073 20.0926 0.713237C18.8039 1.0394 17.615 1.67674 16.6301 2.56937C15.6451 3.462 14.8942 4.58266 14.4432 5.83306H13.9557C11.8008 5.83306 9.7342 6.68908 8.21046 8.21282C6.68673 9.73655 5.83071 11.8032 5.83071 13.9581C5.78994 14.4266 5.78994 14.8978 5.83071 15.3664C4.29362 16.2352 2.99219 17.4666 2.03969 18.9532C1.0872 20.4399 0.512511 22.1369 0.365661 23.8964C0.218812 25.6559 0.50425 27.4247 1.19713 29.0487C1.89001 30.6727 2.96932 32.1027 4.34112 33.2143C3.45352 34.8698 3.01164 36.7277 3.05885 38.6055C3.10606 40.4834 3.64073 42.3167 4.61039 43.9255C5.58005 45.5343 6.95138 46.8634 8.58977 47.7822C10.2282 48.701 12.0773 49.178 13.9557 49.1664H14.4432C14.8942 50.4168 15.6451 51.5374 16.6301 52.4301C17.615 53.3227 18.8039 53.9601 20.0926 54.2862C21.3812 54.6124 22.7301 54.6174 24.0212 54.3009C25.3122 53.9843 26.5058 53.3558 27.4974 52.4706C28.4889 53.3558 29.6826 53.9843 30.9736 54.3009C32.2646 54.6174 33.6136 54.6124 34.9022 54.2862C36.1908 53.9601 37.3797 53.3227 38.3647 52.4301C39.3496 51.5374 40.1005 50.4168 40.5515 49.1664H41.039C42.906 49.1546 44.7382 48.6605 46.3579 47.7321C47.9777 46.8037 49.33 45.4724 50.2837 43.8674C51.2374 42.2624 51.7602 40.4382 51.8013 38.5717C51.8424 36.7052 51.4004 34.8597 50.5182 33.2143C51.7815 32.2029 52.8021 30.9213 53.5051 29.4638C54.2081 28.0062 54.5756 26.4096 54.5807 24.7914ZM24.789 18.156C24.1992 17.8186 23.5833 17.5288 22.9474 17.2893C22.265 17.0595 21.5193 17.1101 20.8742 17.4301C20.2292 17.7501 19.7376 18.3132 19.5078 18.9956C19.2779 19.6779 19.3286 20.4237 19.6486 21.0687C19.9685 21.7138 20.5317 22.2053 21.214 22.4351C22.2566 22.812 23.1584 23.4998 23.7977 24.4054C24.437 25.3111 24.783 26.3912 24.789 27.4997V31.6976C24.1992 31.3603 23.5833 31.0705 22.9474 30.831C22.265 30.6011 21.5193 30.6518 20.8742 30.9717C20.2292 31.2917 19.7376 31.8548 19.5078 32.5372C19.2779 33.2196 19.3286 33.9653 19.6486 34.6104C19.9685 35.2554 20.5317 35.747 21.214 35.9768C22.2566 36.3537 23.1584 37.0414 23.7977 37.9471C24.437 38.8528 24.783 39.9328 24.789 41.0414V46.4581C24.789 47.1764 24.5037 47.8652 23.9958 48.3731C23.4879 48.8811 22.799 49.1664 22.0807 49.1664C21.5567 49.163 21.045 49.0076 20.6076 48.7192C20.1701 48.4308 19.8257 48.0216 19.6161 47.5414C20.0702 47.2749 20.5047 46.9762 20.9161 46.6476C21.19 46.42 21.4163 46.1407 21.5822 45.8256C21.7481 45.5105 21.8504 45.1658 21.8831 44.8112C21.9157 44.4566 21.8783 44.099 21.7728 43.7589C21.6673 43.4188 21.4958 43.1028 21.2682 42.8289C21.0406 42.555 20.7612 42.3287 20.4461 42.1628C20.131 41.9969 19.7864 41.8947 19.4318 41.862C19.0771 41.8293 18.7196 41.8667 18.3795 41.9722C18.0393 42.0777 17.7233 42.2492 17.4495 42.4768C16.4716 43.3001 15.234 43.751 13.9557 43.7497C12.5191 43.7497 11.1414 43.179 10.1255 42.1632C9.10972 41.1474 8.53904 39.7696 8.53904 38.3331C8.552 37.3136 8.8524 36.3185 9.40571 35.4622C10.0135 35.5712 10.6299 35.6256 11.2474 35.6247C11.9657 35.6247 12.6545 35.3394 13.1625 34.8315C13.6704 34.3236 13.9557 33.6347 13.9557 32.9164C13.9557 32.1981 13.6704 31.5092 13.1625 31.0013C12.6545 30.4934 11.9657 30.2081 11.2474 30.2081C10.6076 30.2117 9.97317 30.0922 9.37862 29.856C8.40456 29.5047 7.55159 28.8815 6.92079 28.0604C6.28998 27.2392 5.90776 26.2544 5.81941 25.2227C5.73106 24.191 5.94028 23.1556 6.42229 22.2392C6.90429 21.3227 7.63889 20.5636 8.53904 20.0518C8.92389 20.4059 9.34098 20.7232 9.78487 20.9997C10.4098 21.3589 11.1518 21.4551 11.8476 21.2671C12.5435 21.0792 13.1361 20.6226 13.4953 19.9976C13.8544 19.3727 13.9506 18.6307 13.7627 17.9349C13.5748 17.2391 13.1181 16.6464 12.4932 16.2872C12.1119 16.0769 11.794 15.7683 11.5724 15.3935C11.322 14.9586 11.2087 14.4583 11.2474 13.9581C11.2474 13.2398 11.5327 12.5509 12.0406 12.043C12.5485 11.5351 13.2374 11.2497 13.9557 11.2497C14.1444 11.2234 14.3358 11.2234 14.5245 11.2497C14.6678 11.6849 14.8397 12.1101 15.039 12.5226C15.216 12.833 15.4526 13.1053 15.7352 13.3238C16.0178 13.5423 16.3408 13.7027 16.6857 13.7959C17.0306 13.889 17.3905 13.913 17.7447 13.8665C18.0989 13.8199 18.4403 13.7038 18.7495 13.5247C19.3499 13.1635 19.787 12.5835 19.9688 11.9068C20.1506 11.23 20.063 10.5091 19.7245 9.89556C19.4972 9.48012 19.3763 9.01491 19.3724 8.54139C19.3724 7.8231 19.6577 7.13422 20.1656 6.62631C20.6735 6.1184 21.3624 5.83306 22.0807 5.83306C22.799 5.83306 23.4879 6.1184 23.9958 6.62631C24.5037 7.13422 24.789 7.8231 24.789 8.54139V18.156ZM45.6161 29.856C45.0216 30.0922 44.3871 30.2117 43.7474 30.2081C43.0291 30.2081 42.3402 30.4934 41.8323 31.0013C41.3244 31.5092 41.039 32.1981 41.039 32.9164C41.039 33.6347 41.3244 34.3236 41.8323 34.8315C42.3402 35.3394 43.0291 35.6247 43.7474 35.6247C44.3649 35.6256 44.9812 35.5712 45.589 35.4622C46.1423 36.3185 46.4427 37.3136 46.4557 38.3331C46.4557 39.7696 45.885 41.1474 44.8692 42.1632C43.8534 43.179 42.4756 43.7497 41.039 43.7497C39.7607 43.751 38.5232 43.3001 37.5453 42.4768C36.9922 42.0171 36.2792 41.7959 35.563 41.862C34.8468 41.928 34.1862 42.2758 33.7265 42.8289C33.2668 43.382 33.0457 44.095 33.1117 44.8112C33.1777 45.5273 33.5255 46.1879 34.0786 46.6476C34.4901 46.9762 34.9245 47.2749 35.3786 47.5414C35.169 48.0216 34.8246 48.4308 34.3872 48.7192C33.9497 49.0076 33.438 49.163 32.914 49.1664C32.1957 49.1664 31.5069 48.8811 30.999 48.3731C30.491 47.8652 30.2057 47.1764 30.2057 46.4581V41.0414C30.2117 39.9328 30.5577 38.8528 31.1971 37.9471C31.8364 37.0414 32.7382 36.3537 33.7807 35.9768C34.4631 35.747 35.0262 35.2554 35.3462 34.6104C35.6662 33.9653 35.7168 33.2196 35.487 32.5372C35.2571 31.8548 34.7656 31.2917 34.1205 30.9717C33.4755 30.6518 32.7298 30.6011 32.0474 30.831C31.4114 31.0705 30.7956 31.3603 30.2057 31.6976V27.4997C30.2117 26.3912 30.5577 25.3111 31.1971 24.4054C31.8364 23.4998 32.7382 22.812 33.7807 22.4351C34.1186 22.3213 34.4307 22.1421 34.6993 21.9076C34.968 21.6732 35.1878 21.3881 35.3462 21.0687C35.5046 20.7493 35.5986 20.4019 35.6228 20.0461C35.6469 19.6904 35.6008 19.3334 35.487 18.9956C35.3731 18.6577 35.1939 18.3455 34.9594 18.0769C34.725 17.8083 34.4399 17.5885 34.1205 17.4301C33.8011 17.2716 33.4537 17.1777 33.098 17.1535C32.7422 17.1293 32.3853 17.1755 32.0474 17.2893C31.4114 17.5288 30.7956 17.8186 30.2057 18.156V8.54139C30.2057 7.8231 30.491 7.13422 30.999 6.62631C31.5069 6.1184 32.1957 5.83306 32.914 5.83306C33.6323 5.83306 34.3212 6.1184 34.8291 6.62631C35.337 7.13422 35.6224 7.8231 35.6224 8.54139C35.6185 9.01491 35.4975 9.48012 35.2703 9.89556C35.0901 10.2031 34.9724 10.5431 34.9239 10.8962C34.8753 11.2493 34.897 11.6085 34.9876 11.9532C35.0782 12.2979 35.2359 12.6213 35.4517 12.9049C35.6675 13.1885 35.9372 13.4268 36.2453 13.606C36.5544 13.785 36.8959 13.9012 37.2501 13.9477C37.6043 13.9943 37.9642 13.9703 38.309 13.8771C38.6539 13.784 38.977 13.6235 39.2596 13.405C39.5422 13.1865 39.7788 12.9142 39.9557 12.6039C40.1584 12.165 40.3304 11.7125 40.4703 11.2497C40.659 11.2234 40.8504 11.2234 41.039 11.2497C41.7573 11.2497 42.4462 11.5351 42.9541 12.043C43.462 12.5509 43.7474 13.2398 43.7474 13.9581C43.7432 14.489 43.5831 15.007 43.287 15.4476C43.0655 15.7991 42.7578 16.0881 42.3932 16.2872C41.7683 16.6464 41.3116 17.2391 41.1237 17.9349C40.9358 18.6307 41.032 19.3727 41.3911 19.9976C41.7503 20.6226 42.343 21.0792 43.0388 21.2671C43.7346 21.4551 44.4766 21.3589 45.1015 20.9997C45.5878 20.7368 46.0422 20.4187 46.4557 20.0518C47.3589 20.5546 48.0994 21.3053 48.5898 22.2153C49.0801 23.1254 49.2998 24.1567 49.2229 25.1876C49.146 26.2184 48.7758 27.2058 48.1559 28.033C47.536 28.8602 46.6923 29.4928 45.7245 29.856H45.6161Z" fill="#8893CA"/>
</svg>
