<svg width="66" height="66" viewBox="0 0 66 66" fill="none" xmlns="http://www.w3.org/2000/svg">
<path d="M56.3307 30.0846H65.0807V35.918H56.3307V30.0846ZM0.914062 30.0846H9.66406V35.918H0.914062V30.0846ZM35.9141 0.917969V9.66797H30.0807V0.917969H35.9141ZM12.3474 8.20963L18.5599 14.4513L14.4182 18.5638L8.20573 12.3805L12.3474 8.20963ZM47.4349 14.4221L53.6182 8.20963L57.7891 12.3805L51.5766 18.5638L47.4349 14.4221ZM32.9974 15.5013C37.6387 15.5013 42.0899 17.345 45.3718 20.6269C48.6537 23.9088 50.4974 28.36 50.4974 33.0013C50.4974 39.4763 46.9682 45.1346 41.7474 48.168V53.418C41.7474 54.1915 41.4401 54.9334 40.8931 55.4804C40.3461 56.0273 39.6043 56.3346 38.8307 56.3346H27.1641C26.3905 56.3346 25.6486 56.0273 25.1017 55.4804C24.5547 54.9334 24.2474 54.1915 24.2474 53.418V48.168C19.0266 45.1346 15.4974 39.4763 15.4974 33.0013C15.4974 28.36 17.3411 23.9088 20.623 20.6269C23.9049 17.345 28.3561 15.5013 32.9974 15.5013ZM38.8307 59.2513V62.168C38.8307 62.9415 38.5234 63.6834 37.9765 64.2304C37.4295 64.7773 36.6876 65.0846 35.9141 65.0846H30.0807C29.3072 65.0846 28.5653 64.7773 28.0183 64.2304C27.4714 63.6834 27.1641 62.9415 27.1641 62.168V59.2513H38.8307ZM30.0807 50.5013H35.9141V44.2888C40.9599 43.0055 44.6641 38.4263 44.6641 33.0013C44.6641 29.9071 43.4349 26.9396 41.247 24.7517C39.059 22.5638 36.0916 21.3346 32.9974 21.3346C29.9032 21.3346 26.9357 22.5638 24.7478 24.7517C22.5599 26.9396 21.3307 29.9071 21.3307 33.0013C21.3307 38.4263 25.0349 43.0055 30.0807 44.2888V50.5013Z" fill="#8893CA"/>
</svg>
