<svg width="546" height="143" viewBox="0 0 546 143" fill="none" xmlns="http://www.w3.org/2000/svg">
<mask id="mask0_1230_596" style="mask-type:alpha" maskUnits="userSpaceOnUse" x="0" y="0" width="546" height="143">
<path d="M21.3 109.35V89.4H43.5C47.7 89.4 51 88.25 53.4 85.95C55.9 83.55 57.15 80.45 57.15 76.65C57.15 74.15 56.6 71.95 55.5 70.05C54.4 68.05 52.8 66.55 50.7 65.55C48.7 64.45 46.3 63.9 43.5 63.9H21.3V44.55H41.85C45.35 44.55 48.2 43.7 50.4 42C52.7 40.2 53.85 37.45 53.85 33.75C53.85 30.05 52.7 27.35 50.4 25.65C48.2 23.85 45.35 22.95 41.85 22.95H21.3V2.99999H48.3C54.9 2.99999 60.6 4.24999 65.4 6.75C70.3 9.25 74.05 12.6 76.65 16.8C79.25 21 80.55 25.75 80.55 31.05C80.55 38.15 78.1 44.05 73.2 48.75C68.4 53.35 61.4 56.2 52.2 57.3V48.3C62.4 49.5 70.2 52.8 75.6 58.2C81 63.5 83.7 70.2 83.7 78.3C83.7 84.3 82.2 89.65 79.2 94.35C76.2 98.95 71.95 102.6 66.45 105.3C61.05 108 54.65 109.35 47.25 109.35H21.3ZM0 109.35V2.99999H26.4V109.35H0ZM135.809 109.35V67.95C135.809 64.55 134.809 61.9 132.809 60C130.809 58 128.259 57 125.159 57C123.059 57 121.159 57.45 119.459 58.35C117.859 59.25 116.609 60.5 115.709 62.1C114.809 63.7 114.359 65.65 114.359 67.95L104.159 63.15C104.159 57.25 105.359 52.2 107.759 48C110.259 43.7 113.659 40.4 117.959 38.1C122.259 35.7 127.259 34.5 132.959 34.5C138.859 34.5 143.959 35.7 148.259 38.1C152.659 40.4 156.009 43.6 158.309 47.7C160.709 51.8 161.909 56.55 161.909 61.95V109.35H135.809ZM88.2586 109.35V0H114.359V109.35H88.2586ZM198.81 110.85C192.01 110.85 185.96 109.2 180.66 105.9C175.36 102.6 171.21 98.1 168.21 92.4C165.21 86.6 163.71 80.05 163.71 72.75C163.71 65.35 165.21 58.75 168.21 52.95C171.21 47.15 175.36 42.65 180.66 39.45C185.96 36.15 192.01 34.5 198.81 34.5C203.41 34.5 207.61 35.35 211.41 37.05C215.21 38.65 218.31 40.95 220.71 43.95C223.21 46.95 224.71 50.35 225.21 54.15V91.05C224.71 94.95 223.21 98.4 220.71 101.4C218.31 104.3 215.21 106.6 211.41 108.3C207.61 110 203.41 110.85 198.81 110.85ZM204.36 87.6C208.66 87.6 212.11 86.2 214.71 83.4C217.41 80.6 218.76 77 218.76 72.6C218.76 69.7 218.16 67.15 216.96 64.95C215.76 62.75 214.06 61 211.86 59.7C209.76 58.4 207.31 57.75 204.51 57.75C201.71 57.75 199.21 58.4 197.01 59.7C194.91 61 193.21 62.8 191.91 65.1C190.71 67.3 190.11 69.8 190.11 72.6C190.11 75.5 190.71 78.1 191.91 80.4C193.11 82.6 194.81 84.35 197.01 85.65C199.21 86.95 201.66 87.6 204.36 87.6ZM217.71 109.35V89.7L221.46 71.7L217.71 54V36H243.36V109.35H217.71ZM251.091 109.35V36H277.191V109.35H251.091ZM277.191 69.45L265.491 59.55C268.391 51.25 272.241 45 277.041 40.8C281.841 36.6 288.091 34.5 295.791 34.5C299.291 34.5 302.291 34.95 304.791 35.85C307.391 36.75 309.591 38.15 311.391 40.05L296.241 60.3C295.441 59.4 294.291 58.7 292.791 58.2C291.391 57.6 289.791 57.3 287.991 57.3C284.591 57.3 281.941 58.35 280.041 60.45C278.141 62.45 277.191 65.45 277.191 69.45ZM338.218 142.65C330.118 142.65 322.918 141.25 316.618 138.45C310.418 135.75 305.568 131.9 302.068 126.9L317.818 111.3C320.318 114 323.068 116.1 326.068 117.6C329.068 119.2 332.718 120 337.018 120C342.218 120 346.318 118.7 349.318 116.1C352.418 113.6 353.968 109.95 353.968 105.15V86.1L358.168 70.2L354.418 54.45V36H380.068V104.25C380.068 112.05 378.218 118.8 374.518 124.5C370.918 130.3 365.968 134.75 359.668 137.85C353.368 141.05 346.218 142.65 338.218 142.65ZM337.018 106.65C330.218 106.65 324.168 105.1 318.868 102C313.668 98.8 309.568 94.45 306.568 88.95C303.568 83.45 302.068 77.3 302.068 70.5C302.068 63.7 303.568 57.6 306.568 52.2C309.568 46.8 313.668 42.5 318.868 39.3C324.168 36.1 330.218 34.5 337.018 34.5C341.618 34.5 345.818 35.35 349.618 37.05C353.518 38.65 356.668 40.95 359.068 43.95C361.468 46.85 362.968 50.25 363.568 54.15V87C362.968 90.9 361.418 94.35 358.918 97.35C356.518 100.25 353.418 102.55 349.618 104.25C345.818 105.85 341.618 106.65 337.018 106.65ZM341.818 84C344.618 84 347.018 83.4 349.018 82.2C351.118 80.9 352.718 79.25 353.818 77.25C354.918 75.15 355.468 72.9 355.468 70.5C355.468 68 354.918 65.75 353.818 63.75C352.718 61.75 351.168 60.15 349.168 58.95C347.168 57.65 344.768 57 341.968 57C339.268 57 336.868 57.65 334.768 58.95C332.768 60.15 331.218 61.8 330.118 63.9C329.018 65.9 328.468 68.1 328.468 70.5C328.468 72.8 329.018 75 330.118 77.1C331.218 79.1 332.768 80.75 334.768 82.05C336.768 83.35 339.118 84 341.818 84ZM418.302 110.85C411.502 110.85 405.452 109.2 400.152 105.9C394.852 102.6 390.702 98.1 387.702 92.4C384.702 86.6 383.202 80.05 383.202 72.75C383.202 65.35 384.702 58.75 387.702 52.95C390.702 47.15 394.852 42.65 400.152 39.45C405.452 36.15 411.502 34.5 418.302 34.5C422.902 34.5 427.102 35.35 430.902 37.05C434.702 38.65 437.802 40.95 440.202 43.95C442.702 46.95 444.202 50.35 444.702 54.15V91.05C444.202 94.95 442.702 98.4 440.202 101.4C437.802 104.3 434.702 106.6 430.902 108.3C427.102 110 422.902 110.85 418.302 110.85ZM423.852 87.6C428.152 87.6 431.602 86.2 434.202 83.4C436.902 80.6 438.252 77 438.252 72.6C438.252 69.7 437.652 67.15 436.452 64.95C435.252 62.75 433.552 61 431.352 59.7C429.252 58.4 426.802 57.75 424.002 57.75C421.202 57.75 418.702 58.4 416.502 59.7C414.402 61 412.702 62.8 411.402 65.1C410.202 67.3 409.602 69.8 409.602 72.6C409.602 75.5 410.202 78.1 411.402 80.4C412.602 82.6 414.302 84.35 416.502 85.65C418.702 86.95 421.152 87.6 423.852 87.6ZM437.202 109.35V89.7L440.952 71.7L437.202 54V36H462.852V109.35H437.202ZM492.633 109.35L462.783 36H490.683L509.733 97.8H499.083L517.983 36H545.583L515.733 109.2L492.633 109.35Z" fill="#FEEEE1"/>
</mask>
<g mask="url(#mask0_1230_596)">
<path d="M-2.4502 2.34961H547.55V147.35H-2.4502V2.34961Z" fill="white"/>
<path d="M547.55 70.0036V147.35H-2.4502V82.1846C1.56439 78.1242 14.4111 68.0548 33.6812 60.2597C57.7688 50.5159 72.3217 70.0035 89.3838 74.8763C106.446 79.749 131.537 74.8763 145.086 60.2597C158.636 45.6431 174.192 43.2065 189.749 43.2065C205.305 43.2065 227.386 70.0035 237.924 74.8763C248.462 79.749 302.158 85.2286 326.245 50.5148C345.515 22.7437 366.726 19.0487 374.922 20.6726C382.45 19.8606 401.72 23.2305 418.581 43.2065C439.658 68.1765 463.243 70.0036 471.774 70.0036C480.305 70.0036 495.862 50.5148 515.433 50.5148C531.09 50.5148 543.368 63.5073 547.55 70.0036Z" fill="#FEECBD"/>
<path d="M-1.4502 83.8491V147.35H546.55V93.8496C542.55 90.5161 529.75 82.2492 510.55 75.8496C486.55 67.8501 472.05 83.8491 455.05 87.8496C438.05 91.8501 413.05 87.8496 399.55 75.8496C386.05 63.8496 370.55 61.8491 355.05 61.8491C339.55 61.8491 317.55 83.8491 307.05 87.8496C296.55 91.8501 243.05 96.3487 219.05 67.8491C199.85 45.0495 178.717 42.016 170.55 43.3491C163.05 42.6825 143.85 45.4491 127.05 61.8491C106.05 82.3491 82.5498 83.8491 74.0498 83.8491C65.5498 83.8491 50.0498 67.8491 30.5498 67.8491C14.9498 67.8491 2.71647 78.5158 -1.4502 83.8491Z" fill="#F2CE70"/>
</g>
</svg>
