<svg width="556" height="145" viewBox="0 0 556 145" fill="none" xmlns="http://www.w3.org/2000/svg">
<mask id="mask0_1230_582" style="mask-type:alpha" maskUnits="userSpaceOnUse" x="9" y="1" width="547" height="144">
<path d="M30.75 111V91.05H52.95C57.15 91.05 60.45 89.9 62.85 87.6C65.35 85.2 66.6 82.1 66.6 78.3C66.6 75.8 66.05 73.6 64.95 71.7C63.85 69.7 62.25 68.2 60.15 67.2C58.15 66.1 55.75 65.55 52.95 65.55H30.75V46.2H51.3C54.8 46.2 57.65 45.35 59.85 43.65C62.15 41.85 63.3 39.1 63.3 35.4C63.3 31.7 62.15 29 59.85 27.3C57.65 25.5 54.8 24.6 51.3 24.6H30.75V4.64999H57.75C64.35 4.64999 70.05 5.89999 74.85 8.4C79.75 10.9 83.5 14.25 86.1 18.45C88.7 22.65 90 27.4 90 32.7C90 39.8 87.55 45.7 82.65 50.4C77.85 55 70.85 57.85 61.65 58.95V49.95C71.85 51.15 79.65 54.45 85.05 59.85C90.45 65.15 93.15 71.85 93.15 79.95C93.15 85.95 91.65 91.3 88.65 96C85.65 100.6 81.4 104.25 75.9 106.95C70.5 109.65 64.1 111 56.7 111H30.75ZM9.45 111V4.64999H35.85V111H9.45ZM145.259 111V69.6C145.259 66.2 144.259 63.55 142.259 61.65C140.259 59.65 137.709 58.65 134.609 58.65C132.509 58.65 130.609 59.1 128.909 60C127.309 60.9 126.059 62.15 125.159 63.75C124.259 65.35 123.809 67.3 123.809 69.6L113.609 64.8C113.609 58.9 114.809 53.85 117.209 49.65C119.709 45.35 123.109 42.05 127.409 39.75C131.709 37.35 136.709 36.15 142.409 36.15C148.309 36.15 153.409 37.35 157.709 39.75C162.109 42.05 165.459 45.25 167.759 49.35C170.159 53.45 171.359 58.2 171.359 63.6V111H145.259ZM97.7086 111V1.65H123.809V111H97.7086ZM208.26 112.5C201.46 112.5 195.41 110.85 190.11 107.55C184.81 104.25 180.66 99.75 177.66 94.05C174.66 88.25 173.16 81.7 173.16 74.4C173.16 67 174.66 60.4 177.66 54.6C180.66 48.8 184.81 44.3 190.11 41.1C195.41 37.8 201.46 36.15 208.26 36.15C212.86 36.15 217.06 37 220.86 38.7C224.66 40.3 227.76 42.6 230.16 45.6C232.66 48.6 234.16 52 234.66 55.8V92.7C234.16 96.6 232.66 100.05 230.16 103.05C227.76 105.95 224.66 108.25 220.86 109.95C217.06 111.65 212.86 112.5 208.26 112.5ZM213.81 89.25C218.11 89.25 221.56 87.85 224.16 85.05C226.86 82.25 228.21 78.65 228.21 74.25C228.21 71.35 227.61 68.8 226.41 66.6C225.21 64.4 223.51 62.65 221.31 61.35C219.21 60.05 216.76 59.4 213.96 59.4C211.16 59.4 208.66 60.05 206.46 61.35C204.36 62.65 202.66 64.45 201.36 66.75C200.16 68.95 199.56 71.45 199.56 74.25C199.56 77.15 200.16 79.75 201.36 82.05C202.56 84.25 204.26 86 206.46 87.3C208.66 88.6 211.11 89.25 213.81 89.25ZM227.16 111V91.35L230.91 73.35L227.16 55.65V37.65H252.81V111H227.16ZM260.541 111V37.65H286.641V111H260.541ZM286.641 71.1L274.941 61.2C277.841 52.9 281.691 46.65 286.491 42.45C291.291 38.25 297.541 36.15 305.241 36.15C308.741 36.15 311.741 36.6 314.241 37.5C316.841 38.4 319.041 39.8 320.841 41.7L305.691 61.95C304.891 61.05 303.741 60.35 302.241 59.85C300.841 59.25 299.241 58.95 297.441 58.95C294.041 58.95 291.391 60 289.491 62.1C287.591 64.1 286.641 67.1 286.641 71.1ZM347.668 144.3C339.568 144.3 332.368 142.9 326.068 140.1C319.868 137.4 315.018 133.55 311.518 128.55L327.268 112.95C329.768 115.65 332.518 117.75 335.518 119.25C338.518 120.85 342.168 121.65 346.468 121.65C351.668 121.65 355.768 120.35 358.768 117.75C361.868 115.25 363.418 111.6 363.418 106.8V87.75L367.618 71.85L363.868 56.1V37.65H389.518V105.9C389.518 113.7 387.668 120.45 383.968 126.15C380.368 131.95 375.418 136.4 369.118 139.5C362.818 142.7 355.668 144.3 347.668 144.3ZM346.468 108.3C339.668 108.3 333.618 106.75 328.318 103.65C323.118 100.45 319.018 96.1 316.018 90.6C313.018 85.1 311.518 78.95 311.518 72.15C311.518 65.35 313.018 59.25 316.018 53.85C319.018 48.45 323.118 44.15 328.318 40.95C333.618 37.75 339.668 36.15 346.468 36.15C351.068 36.15 355.268 37 359.068 38.7C362.968 40.3 366.118 42.6 368.518 45.6C370.918 48.5 372.418 51.9 373.018 55.8V88.65C372.418 92.55 370.868 96 368.368 99C365.968 101.9 362.868 104.2 359.068 105.9C355.268 107.5 351.068 108.3 346.468 108.3ZM351.268 85.65C354.068 85.65 356.468 85.05 358.468 83.85C360.568 82.55 362.168 80.9 363.268 78.9C364.368 76.8 364.918 74.55 364.918 72.15C364.918 69.65 364.368 67.4 363.268 65.4C362.168 63.4 360.618 61.8 358.618 60.6C356.618 59.3 354.218 58.65 351.418 58.65C348.718 58.65 346.318 59.3 344.218 60.6C342.218 61.8 340.668 63.45 339.568 65.55C338.468 67.55 337.918 69.75 337.918 72.15C337.918 74.45 338.468 76.65 339.568 78.75C340.668 80.75 342.218 82.4 344.218 83.7C346.218 85 348.568 85.65 351.268 85.65ZM427.752 112.5C420.952 112.5 414.902 110.85 409.602 107.55C404.302 104.25 400.152 99.75 397.152 94.05C394.152 88.25 392.652 81.7 392.652 74.4C392.652 67 394.152 60.4 397.152 54.6C400.152 48.8 404.302 44.3 409.602 41.1C414.902 37.8 420.952 36.15 427.752 36.15C432.352 36.15 436.552 37 440.352 38.7C444.152 40.3 447.252 42.6 449.652 45.6C452.152 48.6 453.652 52 454.152 55.8V92.7C453.652 96.6 452.152 100.05 449.652 103.05C447.252 105.95 444.152 108.25 440.352 109.95C436.552 111.65 432.352 112.5 427.752 112.5ZM433.302 89.25C437.602 89.25 441.052 87.85 443.652 85.05C446.352 82.25 447.702 78.65 447.702 74.25C447.702 71.35 447.102 68.8 445.902 66.6C444.702 64.4 443.002 62.65 440.802 61.35C438.702 60.05 436.252 59.4 433.452 59.4C430.652 59.4 428.152 60.05 425.952 61.35C423.852 62.65 422.152 64.45 420.852 66.75C419.652 68.95 419.052 71.45 419.052 74.25C419.052 77.15 419.652 79.75 420.852 82.05C422.052 84.25 423.752 86 425.952 87.3C428.152 88.6 430.602 89.25 433.302 89.25ZM446.652 111V91.35L450.402 73.35L446.652 55.65V37.65H472.302V111H446.652ZM502.083 111L472.233 37.65H500.133L519.183 99.45H508.533L527.433 37.65H555.033L525.183 110.85L502.083 111Z" fill="#FEEEE1"/>
</mask>
<g mask="url(#mask0_1230_582)">
<path d="M2 4H552V149H2V4Z" fill="white"/>
<path d="M552 71.654V149H2V83.835C6.01459 79.7746 18.8613 69.7052 38.1314 61.9101C62.219 52.1663 76.7719 71.6539 93.834 76.5267C110.896 81.3994 135.987 76.5267 149.536 61.9101C163.086 47.2935 178.642 44.8569 194.199 44.8569C209.755 44.8569 231.836 71.6539 242.374 76.5267C252.912 81.3994 306.608 86.879 330.695 52.1652C349.965 24.3941 371.176 20.6991 379.372 22.323C386.9 21.511 406.17 24.8809 423.031 44.8569C444.108 69.8269 467.693 71.654 476.224 71.654C484.755 71.654 500.312 52.1652 519.883 52.1652C535.54 52.1652 547.818 65.1577 552 71.654Z" fill="#FEECBD"/>
<path d="M3 85.4995V149H551V95.5C547 92.1665 534.2 83.8996 515 77.5C491 69.5005 476.5 85.4995 459.5 89.5C442.5 93.5005 417.5 89.5 404 77.5C390.5 65.5 375 63.4995 359.5 63.4995C344 63.4995 322 85.4995 311.5 89.5C301 93.5005 247.5 97.9991 223.5 69.4995C204.3 46.6999 183.167 43.6664 175 44.9995C167.5 44.3329 148.3 47.0995 131.5 63.4995C110.5 83.9995 87 85.4995 78.5 85.4995C70 85.4995 54.5 69.4995 35 69.4995C19.4 69.4995 7.16667 80.1662 3 85.4995Z" fill="#F2CE70"/>
</g>
</svg>
