<svg width="556" height="201" viewBox="0 0 556 201" fill="none" xmlns="http://www.w3.org/2000/svg">
<mask id="mask0_1224_683" style="mask-type:alpha" maskUnits="userSpaceOnUse" x="9" y="31" width="547" height="144">
<path d="M30.75 141V121.05H52.95C57.15 121.05 60.45 119.9 62.85 117.6C65.35 115.2 66.6 112.1 66.6 108.3C66.6 105.8 66.05 103.6 64.95 101.7C63.85 99.7 62.25 98.2 60.15 97.2C58.15 96.1 55.75 95.55 52.95 95.55H30.75V76.2H51.3C54.8 76.2 57.65 75.35 59.85 73.65C62.15 71.85 63.3 69.1 63.3 65.4C63.3 61.7 62.15 59 59.85 57.3C57.65 55.5 54.8 54.6 51.3 54.6H30.75V34.65H57.75C64.35 34.65 70.05 35.9 74.85 38.4C79.75 40.9 83.5 44.25 86.1 48.45C88.7 52.65 90 57.4 90 62.7C90 69.8 87.55 75.7 82.65 80.4C77.85 85 70.85 87.85 61.65 88.95V79.95C71.85 81.15 79.65 84.45 85.05 89.85C90.45 95.15 93.15 101.85 93.15 109.95C93.15 115.95 91.65 121.3 88.65 126C85.65 130.6 81.4 134.25 75.9 136.95C70.5 139.65 64.1 141 56.7 141H30.75ZM9.45 141V34.65H35.85V141H9.45ZM145.259 141V99.6C145.259 96.2 144.259 93.55 142.259 91.65C140.259 89.65 137.709 88.65 134.609 88.65C132.509 88.65 130.609 89.1 128.909 90C127.309 90.9 126.059 92.15 125.159 93.75C124.259 95.35 123.809 97.3 123.809 99.6L113.609 94.8C113.609 88.9 114.809 83.85 117.209 79.65C119.709 75.35 123.109 72.05 127.409 69.75C131.709 67.35 136.709 66.15 142.409 66.15C148.309 66.15 153.409 67.35 157.709 69.75C162.109 72.05 165.459 75.25 167.759 79.35C170.159 83.45 171.359 88.2 171.359 93.6V141H145.259ZM97.7086 141V31.65H123.809V141H97.7086ZM208.26 142.5C201.46 142.5 195.41 140.85 190.11 137.55C184.81 134.25 180.66 129.75 177.66 124.05C174.66 118.25 173.16 111.7 173.16 104.4C173.16 97 174.66 90.4 177.66 84.6C180.66 78.8 184.81 74.3 190.11 71.1C195.41 67.8 201.46 66.15 208.26 66.15C212.86 66.15 217.06 67 220.86 68.7C224.66 70.3 227.76 72.6 230.16 75.6C232.66 78.6 234.16 82 234.66 85.8V122.7C234.16 126.6 232.66 130.05 230.16 133.05C227.76 135.95 224.66 138.25 220.86 139.95C217.06 141.65 212.86 142.5 208.26 142.5ZM213.81 119.25C218.11 119.25 221.56 117.85 224.16 115.05C226.86 112.25 228.21 108.65 228.21 104.25C228.21 101.35 227.61 98.8 226.41 96.6C225.21 94.4 223.51 92.65 221.31 91.35C219.21 90.05 216.76 89.4 213.96 89.4C211.16 89.4 208.66 90.05 206.46 91.35C204.36 92.65 202.66 94.45 201.36 96.75C200.16 98.95 199.56 101.45 199.56 104.25C199.56 107.15 200.16 109.75 201.36 112.05C202.56 114.25 204.26 116 206.46 117.3C208.66 118.6 211.11 119.25 213.81 119.25ZM227.16 141V121.35L230.91 103.35L227.16 85.65V67.65H252.81V141H227.16ZM260.541 141V67.65H286.641V141H260.541ZM286.641 101.1L274.941 91.2C277.841 82.9 281.691 76.65 286.491 72.45C291.291 68.25 297.541 66.15 305.241 66.15C308.741 66.15 311.741 66.6 314.241 67.5C316.841 68.4 319.041 69.8 320.841 71.7L305.691 91.95C304.891 91.05 303.741 90.35 302.241 89.85C300.841 89.25 299.241 88.95 297.441 88.95C294.041 88.95 291.391 90 289.491 92.1C287.591 94.1 286.641 97.1 286.641 101.1ZM347.668 174.3C339.568 174.3 332.368 172.9 326.068 170.1C319.868 167.4 315.018 163.55 311.518 158.55L327.268 142.95C329.768 145.65 332.518 147.75 335.518 149.25C338.518 150.85 342.168 151.65 346.468 151.65C351.668 151.65 355.768 150.35 358.768 147.75C361.868 145.25 363.418 141.6 363.418 136.8V117.75L367.618 101.85L363.868 86.1V67.65H389.518V135.9C389.518 143.7 387.668 150.45 383.968 156.15C380.368 161.95 375.418 166.4 369.118 169.5C362.818 172.7 355.668 174.3 347.668 174.3ZM346.468 138.3C339.668 138.3 333.618 136.75 328.318 133.65C323.118 130.45 319.018 126.1 316.018 120.6C313.018 115.1 311.518 108.95 311.518 102.15C311.518 95.35 313.018 89.25 316.018 83.85C319.018 78.45 323.118 74.15 328.318 70.95C333.618 67.75 339.668 66.15 346.468 66.15C351.068 66.15 355.268 67 359.068 68.7C362.968 70.3 366.118 72.6 368.518 75.6C370.918 78.5 372.418 81.9 373.018 85.8V118.65C372.418 122.55 370.868 126 368.368 129C365.968 131.9 362.868 134.2 359.068 135.9C355.268 137.5 351.068 138.3 346.468 138.3ZM351.268 115.65C354.068 115.65 356.468 115.05 358.468 113.85C360.568 112.55 362.168 110.9 363.268 108.9C364.368 106.8 364.918 104.55 364.918 102.15C364.918 99.65 364.368 97.4 363.268 95.4C362.168 93.4 360.618 91.8 358.618 90.6C356.618 89.3 354.218 88.65 351.418 88.65C348.718 88.65 346.318 89.3 344.218 90.6C342.218 91.8 340.668 93.45 339.568 95.55C338.468 97.55 337.918 99.75 337.918 102.15C337.918 104.45 338.468 106.65 339.568 108.75C340.668 110.75 342.218 112.4 344.218 113.7C346.218 115 348.568 115.65 351.268 115.65ZM427.752 142.5C420.952 142.5 414.902 140.85 409.602 137.55C404.302 134.25 400.152 129.75 397.152 124.05C394.152 118.25 392.652 111.7 392.652 104.4C392.652 97 394.152 90.4 397.152 84.6C400.152 78.8 404.302 74.3 409.602 71.1C414.902 67.8 420.952 66.15 427.752 66.15C432.352 66.15 436.552 67 440.352 68.7C444.152 70.3 447.252 72.6 449.652 75.6C452.152 78.6 453.652 82 454.152 85.8V122.7C453.652 126.6 452.152 130.05 449.652 133.05C447.252 135.95 444.152 138.25 440.352 139.95C436.552 141.65 432.352 142.5 427.752 142.5ZM433.302 119.25C437.602 119.25 441.052 117.85 443.652 115.05C446.352 112.25 447.702 108.65 447.702 104.25C447.702 101.35 447.102 98.8 445.902 96.6C444.702 94.4 443.002 92.65 440.802 91.35C438.702 90.05 436.252 89.4 433.452 89.4C430.652 89.4 428.152 90.05 425.952 91.35C423.852 92.65 422.152 94.45 420.852 96.75C419.652 98.95 419.052 101.45 419.052 104.25C419.052 107.15 419.652 109.75 420.852 112.05C422.052 114.25 423.752 116 425.952 117.3C428.152 118.6 430.602 119.25 433.302 119.25ZM446.652 141V121.35L450.402 103.35L446.652 85.65V67.65H472.302V141H446.652ZM502.083 141L472.233 67.65H500.133L519.183 129.45H508.533L527.433 67.65H555.033L525.183 140.85L502.083 141Z" fill="#FEEEE1"/>
</mask>
<g mask="url(#mask0_1224_683)">
<rect x="3" y="21" width="550" height="154" fill="white"/>
<path d="M553 97.654V175H3V109.835C7.01459 105.775 19.8613 95.7052 39.1314 87.9101C63.219 78.1663 77.7719 97.6539 94.834 102.527C111.896 107.399 136.987 102.527 150.536 87.9101C164.086 73.2935 179.642 70.8569 195.199 70.8569C210.755 70.8569 232.836 97.6539 243.374 102.527C253.912 107.399 307.608 112.879 331.695 78.1652C350.965 50.3941 372.176 46.6991 380.372 48.323C387.9 47.511 407.17 50.8809 424.031 70.8569C445.108 95.8269 468.693 97.654 477.224 97.654C485.755 97.654 501.312 78.1652 520.883 78.1652C536.54 78.1652 548.818 91.1577 553 97.654Z" fill="#FEECBD"/>
<path d="M4 111.5V175H552V121.5C548 118.167 535.2 109.9 516 103.5C492 95.5005 477.5 111.5 460.5 115.5C443.5 119.5 418.5 115.5 405 103.5C391.5 91.5 376 89.4995 360.5 89.4995C345 89.4995 323 111.5 312.5 115.5C302 119.5 248.5 123.999 224.5 95.4995C205.3 72.6999 184.167 69.6664 176 70.9995C168.5 70.3329 149.3 73.0995 132.5 89.4995C111.5 110 88 111.5 79.5 111.5C71 111.5 55.5 95.4995 36 95.4995C20.4 95.4995 8.16667 106.166 4 111.5Z" fill="#F2CE70"/>
</g>
</svg>
