<svg width="66" height="66" viewBox="0 0 66 66" fill="none" xmlns="http://www.w3.org/2000/svg">
<path d="M56.3327 30.0846H65.0827V35.918H56.3327V30.0846ZM0.916016 30.0846H9.66602V35.918H0.916016V30.0846ZM35.916 0.917969V9.66797H30.0827V0.917969H35.916ZM12.3493 8.20963L18.5618 14.4513L14.4202 18.5638L8.20768 12.3805L12.3493 8.20963ZM47.4368 14.4221L53.6202 8.20963L57.791 12.3805L51.5785 18.5638L47.4368 14.4221ZM32.9993 15.5013C37.6406 15.5013 42.0918 17.345 45.3737 20.6269C48.6556 23.9088 50.4993 28.36 50.4993 33.0013C50.4993 39.4763 46.9702 45.1346 41.7493 48.168V53.418C41.7493 54.1915 41.4421 54.9334 40.8951 55.4804C40.3481 56.0273 39.6062 56.3346 38.8327 56.3346H27.166C26.3925 56.3346 25.6506 56.0273 25.1036 55.4804C24.5566 54.9334 24.2493 54.1915 24.2493 53.418V48.168C19.0285 45.1346 15.4993 39.4763 15.4993 33.0013C15.4993 28.36 17.3431 23.9088 20.625 20.6269C23.9069 17.345 28.3581 15.5013 32.9993 15.5013ZM38.8327 59.2513V62.168C38.8327 62.9415 38.5254 63.6834 37.9784 64.2304C37.4314 64.7773 36.6896 65.0846 35.916 65.0846H30.0827C29.3091 65.0846 28.5673 64.7773 28.0203 64.2304C27.4733 63.6834 27.166 62.9415 27.166 62.168V59.2513H38.8327ZM30.0827 50.5013H35.916V44.2888C40.9618 43.0055 44.666 38.4263 44.666 33.0013C44.666 29.9071 43.4369 26.9396 41.2489 24.7517C39.061 22.5638 36.0935 21.3346 32.9993 21.3346C29.9052 21.3346 26.9377 22.5638 24.7498 24.7517C22.5618 26.9396 21.3327 29.9071 21.3327 33.0013C21.3327 38.4263 25.0368 43.0055 30.0827 44.2888V50.5013Z" fill="#8893CA"/>
</svg>
