<svg width="51" height="51" viewBox="0 0 51 51" fill="none" xmlns="http://www.w3.org/2000/svg">
<path d="M42.9479 18.6L31.9688 7.62083L35.65 3.93958C36.6403 2.94931 37.857 2.45417 39.3003 2.45417C40.7435 2.45417 41.9594 2.94931 42.9479 3.93958L46.6292 7.62083C47.6194 8.61111 48.1146 9.82786 48.1146 11.2711C48.1146 12.7143 47.6194 13.9302 46.6292 14.9187L42.9479 18.6ZM2.00208 48.5667V37.5875L13.6271 25.9625L0 12.2063L12.2063 0L25.8979 13.7563L31.9688 7.62083L42.9479 18.6L36.8771 24.6708L50.5042 38.4271L38.3625 50.5687L24.6063 36.8771L12.9813 48.5667H2.00208ZM17.3083 22.2813L22.2167 17.3729L19.1167 14.2729L16.0167 17.3083L12.4 13.6917L15.4354 10.5917L12.1417 7.3625L7.29792 12.2708L17.3083 22.2813ZM38.2979 43.2708L43.2063 38.3625L39.9125 35.1333L36.8771 38.1688L33.1958 34.5521L36.2958 31.4521L33.1313 28.3521L28.2229 33.2604L38.2979 43.2708ZM7.16875 43.4H10.7854L35.65 18.6L31.9688 14.9187L7.16875 39.7833V43.4Z" fill="#8893CA"/>
</svg>
