<svg width="56" height="55" viewBox="0 0 56 55" fill="none" xmlns="http://www.w3.org/2000/svg">
<path d="M47.2702 40.7712C48.3535 38.8753 49.166 36.7087 49.166 34.2712C49.166 27.5003 43.7493 22.0837 36.9785 22.0837C30.2077 22.0837 24.791 27.5003 24.791 34.2712C24.791 41.042 30.2077 46.4587 36.9785 46.4587C39.416 46.4587 41.5827 45.6462 43.4785 44.5628L52.1452 53.2295L55.9368 49.4378L47.2702 40.7712ZM36.9785 41.042C33.1868 41.042 30.2077 38.0628 30.2077 34.2712C30.2077 30.4795 33.1868 27.5003 36.9785 27.5003C40.7702 27.5003 43.7493 30.4795 43.7493 34.2712C43.7493 38.0628 40.7702 41.042 36.9785 41.042ZM27.4993 49.167V54.5837C12.5493 54.5837 0.416016 42.4503 0.416016 27.5003C0.416016 12.5503 12.5493 0.416992 27.4993 0.416992C40.6077 0.416992 51.5223 9.73366 54.041 22.0837H48.4348C47.59 18.8116 45.9916 15.7824 43.7673 13.2383C41.543 10.6942 38.7544 8.70562 35.6243 7.43158V8.54199C35.6243 11.5212 33.1868 13.9587 30.2077 13.9587H24.791V19.3753C24.791 20.8649 23.5723 22.0837 22.0827 22.0837H16.666V27.5003H22.0827V35.6253H19.3743L6.40143 22.6524C6.04935 24.2232 5.83268 25.8212 5.83268 27.5003C5.83268 39.4441 15.5556 49.167 27.4993 49.167Z" fill="#8893CA"/>
</svg>
