<svg width="42" height="40" viewBox="0 0 42 40" fill="none" xmlns="http://www.w3.org/2000/svg">
<path fill-rule="evenodd" clip-rule="evenodd" d="M31.7974 0H10.5816C8.68615 0 7.05092 1.33037 6.66529 3.18621L0.0851062 34.8534C-0.430917 37.3367 1.46504 39.6671 4.00145 39.6671H27.9337L27.934 39.6639C33.7896 39.5269 38.4944 34.7372 38.4944 28.8486C38.4944 24.522 35.9546 20.7887 32.2846 19.0581C37.4421 18.9363 41.5856 14.7172 41.5856 9.53042C41.5856 4.26691 37.3187 0 32.0552 0C31.9689 0 31.8828 0.00114789 31.797 0.00342924L31.7974 0ZM22.4578 16.7031H28.2389C28.4279 16.7031 28.5197 17.0031 28.3832 17.1701L14.2378 33.4065C14.0856 33.5974 13.839 33.4099 13.8888 33.144L16.2349 23.5283H11.1431C10.9804 23.5283 10.8807 23.2999 10.962 23.1192L15.1855 7.86293C15.2223 7.7777 15.2931 7.72656 15.3666 7.72656H27.491C27.6668 7.72656 27.7639 7.98907 27.6563 8.16976L22.4578 16.7031Z" fill="white"/>
</svg>
