<svg width="42" height="40" viewBox="0 0 42 40" fill="none" xmlns="http://www.w3.org/2000/svg">
<path fill-rule="evenodd" clip-rule="evenodd" d="M31.7974 0H10.5816C8.68615 0 7.05092 1.33037 6.66529 3.18621L0.0851062 34.8534C-0.430917 37.3367 1.46504 39.6671 4.00145 39.6671H27.9337L27.934 39.6639C33.7899 39.5272 38.4949 34.7373 38.4949 28.8486C38.4949 24.522 35.9551 20.7887 32.2851 19.0581C37.4431 18.9368 41.5871 14.7176 41.5871 9.53042C41.5871 4.26691 37.3202 0 32.0567 0C31.9698 0 31.8833 0.00116103 31.797 0.00346841L31.7974 0ZM22.4592 16.7031H28.2403C28.4292 16.7031 28.521 17.0031 28.3846 17.1701L14.2392 33.4065C14.087 33.5974 13.8403 33.4099 13.8902 33.144L16.2362 23.5283H11.1444C10.9817 23.5283 10.882 23.2999 10.9634 23.1192L15.1869 7.86293C15.2236 7.7777 15.2945 7.72656 15.3679 7.72656H27.4924C27.6682 7.72656 27.7653 7.98907 27.6577 8.16976L22.4592 16.7031Z" fill="#919191"/>
</svg>
