<svg width="689" height="194" viewBox="0 0 689 194" fill="none" xmlns="http://www.w3.org/2000/svg">
<g clip-path="url(#clip0_763_708)">
<rect y="78" width="140" height="44" rx="7" fill="#F1F0F1"/>
<rect x="549" y="78" width="140" height="44" rx="7" fill="#F1F0F1"/>
<circle cx="188" cy="99" r="86" fill="#F1F0F1"/>
<circle cx="494" cy="86" r="86" fill="#F1F0F1"/>
<path d="M146.503 148.474C146.503 148.474 139.645 105.481 191.052 105.004C242.456 104.529 237.035 147.256 237.035 147.256C237.035 147.256 198.859 163.837 146.503 148.474Z" fill="#EFD370"/>
<path d="M265.198 188.557C243.024 190.886 216.261 192.145 194.601 192.114C172.941 192.145 150.616 190.886 128.443 188.557C128.443 188.557 127.446 175.634 128.443 166.981C129.575 157.162 128.391 153.706 135.835 146.283C147.216 134.935 178.406 139.321 178.406 139.321C183.714 139.034 189.158 138.895 194.601 138.891C200.045 138.895 205.486 139.034 210.796 139.321C210.796 139.321 238.951 134.029 251.154 144.804C258.708 151.474 262.759 154.732 263.719 164.763C264.632 174.295 265.198 188.557 265.198 188.557Z" fill="#EFD370"/>
<path d="M211 121.002L210.422 131.646L209.702 144.981C209.702 144.981 207.002 150 194.813 150C182.623 150 180.129 146.568 180.129 146.568L179.637 140.652L178 121H211V121.002Z" fill="#F8A27D"/>
<path d="M211 121L210.422 131.638C205.338 135.369 193.307 142.702 179.637 140.642L178 121H211Z" fill="#F47E65"/>
<path d="M157 71.2056C157 71.2056 147.762 62.0479 140.387 68.0251C131.671 75.0842 140.785 100.492 156.245 97.8013L157 71.2056Z" fill="#F79674"/>
<path d="M151.381 91C150.597 90.9734 149.94 90.3768 149.876 89.5938C148.861 77.2399 141.467 75.0952 141.152 75.0109C140.325 74.7846 139.831 73.9485 140.053 73.1367C140.278 72.325 141.118 71.837 141.95 72.0499C142.354 72.1519 151.791 74.7115 152.995 89.3476C153.065 90.1904 152.421 90.929 151.56 90.9956L151.381 91Z" fill="#F47E65"/>
<path d="M142.505 84.9992C142.137 84.988 141.774 84.8473 141.487 84.577C140.862 83.9917 140.835 83.0155 141.428 82.3989C141.564 82.2582 144.76 79.0145 149.829 80.3012C150.662 80.5112 151.165 81.3534 150.951 82.1777C150.736 83.0021 149.888 83.498 149.055 83.288C145.726 82.4436 143.708 84.501 143.685 84.5234C143.369 84.854 142.934 85.0126 142.505 84.9992Z" fill="#F47E65"/>
<path d="M229 71.2056C229 71.2056 238.237 62.0479 245.616 68.0251C254.328 75.0842 245.212 100.492 229.755 97.8013L229 71.2056Z" fill="#F79674"/>
<path d="M234.495 91C235.217 90.9734 235.821 90.3768 235.884 89.5938C236.819 77.2399 243.646 75.0952 243.935 75.0109C244.699 74.7846 245.155 73.9485 244.952 73.1367C244.745 72.325 243.968 71.837 243.201 72.0499C242.828 72.1519 234.116 74.7115 233.005 89.3476C232.938 90.1904 233.534 90.929 234.327 90.9956L234.495 91Z" fill="#F47E65"/>
<path d="M242.647 84.9992C242.978 84.988 243.305 84.8473 243.563 84.577C244.124 83.9917 244.149 83.0155 243.614 82.3989C243.494 82.2582 240.618 79.0145 236.054 80.3012C235.305 80.5112 234.851 81.3534 235.044 82.1777C235.235 83.0021 235.999 83.498 236.751 83.288C239.748 82.4436 241.564 84.501 241.581 84.5234C241.869 84.854 242.259 85.0126 242.647 84.9992Z" fill="#F47E65"/>
<path d="M193.646 131C161.239 131 151.232 92.7932 148.252 64.8223C145.499 39.0326 165.677 16.3036 191.804 16.0045C192.151 16.0022 192.501 16 192.852 16C193.289 16 193.721 16.0022 194.15 16.0089C219.958 16.3505 240.06 38.4633 237.831 63.9851C235.355 92.3221 226.043 131 193.646 131Z" fill="#F8A27D"/>
<path d="M214 98C213.978 98.0749 213.546 99.2996 212.553 100.967C211.258 103.141 209.011 106.073 205.448 108.205C205.025 108.458 204.586 108.698 204.127 108.923C201.617 110.17 198.547 111 194.813 111C191.414 111 188.581 110.361 186.241 109.383C185.831 109.214 185.434 109.029 185.052 108.837C181.428 107.015 179.108 104.383 177.729 102.291C176.518 100.463 176.029 99.0529 176 98.967C176.031 98.9824 176.556 99.2577 177.506 99.6586C180.226 100.8 186.424 102.954 194.471 102.899L194.813 102.896L195.194 102.888C203.007 102.707 209.256 100.286 212.185 98.9207C213.303 98.4009 213.94 98.033 214 98Z" fill="#8E2427"/>
<path d="M204 109.183C201.474 110.274 198.384 111 194.626 111C191.205 111 188.355 110.441 186 109.586C187.907 108.771 190.863 108 195.228 108C198.866 107.998 201.789 108.532 204 109.183Z" fill="#F05263"/>
<path d="M214 98C213.978 98.0735 213.546 99.2751 212.553 100.911C209.796 102.45 203.946 105 195.41 105C186.528 105 180.411 103.193 177.729 102.21C176.518 100.416 176.029 99.033 176 98.9488C176.031 98.9639 176.556 99.234 177.506 99.6274C180.226 100.747 186.424 102.86 194.471 102.806L194.813 102.804L195.194 102.796C203.007 102.618 209.256 100.243 212.185 98.9034C213.303 98.3933 213.94 98.0324 214 98Z" fill="white"/>
<path d="M156.073 102C156.073 102 141.568 60.4906 143.116 47.7725C144.389 37.3152 151.217 33.2755 151.217 33.2755C151.217 33.2755 152.643 18.9361 172.023 9.47863C190.021 0.694409 218.062 -5.2458 225.493 6.75847C232.866 18.6682 227.765 29.3799 227.765 29.3799C227.765 29.3799 254.501 44.3971 228.928 102L226.991 95.7806C226.991 95.7806 232.307 59.1553 230.038 52.249C227.765 45.3451 217.856 41.1973 218.475 33.7326C218.475 33.7326 181.494 45.3428 161.479 33.9398C161.479 33.9398 161.287 44.0188 155.71 49.968C150.136 55.9172 157.84 92.9636 157.84 92.9636L156.073 102Z" fill="#3A3450"/>
<path d="M194.302 121.629C180.107 121.629 170.915 110.514 168.126 105.313C165.162 99.7919 169.352 92.9351 176.476 95.4981C181.904 97.4944 193.005 98.9755 193.005 98.9755C213.23 98.5316 220.587 89.4911 221.352 100.434C221.863 107.737 211.388 121.629 194.302 121.629ZM229.771 97.3271C229.572 96.1204 229.248 94.8623 228.599 93.5552C228.004 92.2749 227.005 90.9678 225.686 89.9819C225.362 89.7365 225.012 89.4889 224.665 89.2904C224.343 89.1186 223.991 88.9469 223.669 88.8219C223.022 88.5498 222.348 88.3535 221.726 88.2063C220.481 87.9342 219.334 87.836 218.239 87.8115C217.143 87.787 216.095 87.8606 215.101 87.9587C211.091 88.3513 207.479 89.2881 203.992 90.0287C202.297 90.4235 200.604 90.8674 198.887 91.1886C197.167 91.5343 195.422 91.657 193.679 91.6079C191.937 91.5834 190.192 91.4116 188.425 91.1395C186.682 90.8674 184.913 90.4726 183.143 90.08C182.224 89.8569 181.475 89.7097 180.63 89.4644C179.782 89.2413 178.935 88.9469 178.063 88.6747C176.345 88.0836 174.575 87.4412 172.684 86.8992C170.766 86.3817 168.748 85.9133 166.208 86.0137C165.583 86.0382 164.912 86.1118 164.166 86.259C163.442 86.4062 162.547 86.7029 161.724 87.0955C160.056 87.8851 158.609 89.3394 157.764 90.767C156.894 92.2459 156.468 93.6757 156.244 94.9828C155.994 96.2899 155.972 97.4967 156.021 98.6543C156.121 100.945 156.542 102.991 157.092 104.962C157.64 106.934 158.314 108.808 159.083 110.633C159.831 112.457 160.703 114.23 161.623 115.957C162.547 117.708 163.544 119.408 164.689 121.083C165.261 121.919 165.858 122.758 166.53 123.597C167.179 124.435 167.903 125.247 168.748 126.061C169.172 126.481 169.619 126.876 170.119 127.293C170.367 127.491 170.64 127.687 170.915 127.886L171.363 128.158L171.737 128.404C172.758 129.044 173.755 129.512 174.751 129.956C176.694 130.819 178.635 131.459 180.581 132.001C184.464 133.036 188.351 133.677 192.334 133.973C196.294 134.096 200.329 133.801 204.391 132.987C208.426 132.149 212.585 130.795 216.422 128.082C217.366 127.391 218.288 126.628 219.136 125.765C219.334 125.542 219.559 125.296 219.733 125.1L220.256 124.507C220.603 124.112 220.928 123.717 221.252 123.324C222.548 121.698 223.644 119.996 224.665 118.248C226.658 114.748 228.177 111.025 229.146 107.057C229.62 105.061 229.971 102.991 229.994 100.773C230.019 99.667 229.971 98.5339 229.771 97.3271Z" fill="#3A3450"/>
<path d="M180 68.9988C180 72.3124 178.658 74.9977 177.002 75C175.344 75 174 72.3147 174 69.0011C173.998 65.6876 175.342 63 176.998 63C178.656 62.9977 180 65.6853 180 68.9988Z" fill="#3A3450"/>
<path d="M164 60C164 60 165.507 53.1162 170.992 50.1603C176.073 47.4211 180.305 47.8546 182.514 48.4243C183.479 48.6723 184.099 49.5861 183.987 50.5535C183.852 51.6997 182.752 52.4884 181.593 52.265C177.921 51.559 170.183 51.3825 164 60Z" fill="#3A3450"/>
<path d="M208 68.9988C208 72.3124 209.34 74.9977 210.997 75C212.655 75 214 72.3147 214 69.0011C214.002 65.6876 212.658 63 211.001 63C209.342 62.9977 208 65.6853 208 68.9988Z" fill="#3A3450"/>
<path d="M224 60C224 60 222.662 52.6586 217.457 49.4285C212.632 46.4358 208.576 46.8277 206.45 47.3954C205.524 47.6448 204.915 48.6043 205.01 49.6351C205.121 50.8559 206.163 51.7109 207.275 51.4924C210.802 50.8036 218.208 50.7419 224 60Z" fill="#3A3450"/>
<path d="M193.503 87.9923C193.005 87.9403 192.531 87.6599 192.248 87.1852C191.766 86.3781 192.007 85.32 192.79 84.8226L197.542 81.7977L193.812 80.3824C193.191 80.1451 192.766 79.555 192.724 78.8722L192.082 67.8215C192.027 66.8742 192.727 66.0626 193.645 66.0038C194.56 65.9405 195.351 66.6685 195.408 67.6158L195.985 77.5452L201.911 79.7924C202.507 80.0207 202.926 80.5769 202.992 81.2325C203.055 81.8859 202.751 82.5189 202.207 82.8648L194.54 87.7436C194.218 87.9493 193.854 88.0262 193.503 87.9923Z" fill="#F47E65"/>
<path d="M176.274 59.2263C170.06 59.3514 165.101 64.5097 165.224 70.7261C165.349 76.9424 170.51 81.8988 176.726 81.7759C182.942 81.6507 187.899 76.4924 187.774 70.2761C187.649 64.0597 182.49 59.1011 176.274 59.2263ZM176.77 83.9972C169.329 84.1465 163.152 78.2133 163.003 70.77C162.853 63.3266 168.789 57.1519 176.23 57.0027C183.673 56.8556 189.848 62.7866 189.997 70.23C190.147 77.6734 184.213 83.848 176.77 83.9972Z" fill="#3A3450"/>
<path d="M211.767 58.309C205.317 58.4387 200.179 63.7885 200.307 70.2356C200.439 76.6827 205.786 81.8231 212.233 81.6933C218.68 81.5635 223.821 76.2137 223.693 69.7667C223.563 63.3196 218.211 58.1792 211.767 58.309ZM212.281 83.9971C204.561 84.1519 198.158 77.9985 198.003 70.2789C197.848 62.5615 204.001 56.1554 211.721 56.0029C219.436 55.8481 225.845 62.0015 225.997 69.7188C226.154 77.4385 220.001 83.8423 212.281 83.9971Z" fill="#3A3450"/>
<path d="M148 65L148.046 67.1345L163.874 68L164 65.874L148 65Z" fill="#3A3450"/>
<path d="M239 65L224 65.8158L224.134 68L239 67.1885V65Z" fill="#3A3450"/>
<path d="M189.324 69L188 67.1485C190.114 65.5176 195.345 63.375 200 66.9233L198.682 68.7794C194.203 65.363 189.519 68.8499 189.324 69Z" fill="#3A3450"/>
<path d="M194.686 116.995C191.931 117.066 188.768 116.445 185.564 114.355C185.017 113.999 184.836 113.22 185.163 112.618C185.49 112.019 186.198 111.82 186.747 112.179C194.446 117.205 201.937 112.417 202.251 112.212C202.796 111.854 203.507 112.047 203.836 112.647C204.163 113.244 203.986 114.02 203.441 114.381C203.21 114.534 199.596 116.868 194.686 116.995Z" fill="#F47E65"/>
<path d="M174.193 192C173.763 192 173.406 191.801 173.389 191.548C172.312 175.653 172.002 142.801 172 142.472C171.998 142.213 172.357 142.001 172.802 142H172.806C173.249 142 173.61 142.208 173.613 142.467C173.615 142.796 173.924 175.632 174.999 191.512C175.017 191.771 174.67 191.989 174.225 191.999L174.193 192Z" fill="white"/>
<path d="M213.807 192L213.773 191.999C213.328 191.989 212.981 191.771 213.001 191.512C214.076 175.632 214.383 142.796 214.388 142.467C214.39 142.208 214.749 142 215.194 142C215.641 142.001 216.002 142.213 216 142.472C215.996 142.801 215.688 175.653 214.611 191.548C214.594 191.801 214.237 192 213.807 192Z" fill="white"/>
<path d="M503.642 14.7237C503.642 14.7237 518.479 8.2411 530.946 19.9755C543.414 31.71 534.613 39.5336 545.616 45.3408C556.618 51.148 548.585 67.221 561.421 74.5357C574.256 81.8503 565.786 99.8932 552.585 102.457C552.585 102.457 546.244 119.178 532.334 117.566C532.334 117.566 519.462 131.875 494.387 122.789L485.154 119.002L503.642 14.7237Z" fill="#3A3450"/>
<path d="M452.857 19.6591C452.857 19.6591 436.172 21.8148 432.939 36.6299C429.705 51.447 430.882 47.9444 421.723 55.4875C412.564 63.0305 424.148 71.5604 416.874 79.1053C413.158 82.9581 411.411 86.1084 411.059 89.7406C410.435 96.1342 414.857 101.835 421.036 103.594C425.254 104.794 428.697 108.784 431.207 114.216C436.184 124.99 453.987 120.313 453.987 120.313C453.987 120.313 470.805 130.111 481.107 122.837C491.41 115.563 475.884 15.3516 475.884 15.3516L452.857 19.6591Z" fill="#3A3450"/>
<path d="M518.219 15.5427C518.219 15.5427 511.467 0 487.147 0C462.826 0 455.291 23.8462 455.291 23.8462L490.676 43.1198L518.219 15.5427Z" fill="#3A3450"/>
<path d="M464.858 70.7723C467.132 75.852 469.07 83.3873 462.116 85.8681C457.264 87.598 451.539 81.1348 449.265 76.0552C446.991 70.9755 448.38 66.5577 453.201 64.7445C458.021 62.9313 462.582 65.6927 464.858 70.7723Z" fill="#F8A27D"/>
<path d="M453.051 70.8509C453.051 70.8509 458.949 69.2816 461.157 77.2929" stroke="#BB7353" stroke-width="0.4819" stroke-miterlimit="10" stroke-linecap="round" stroke-linejoin="round"/>
<path d="M521 70.7731C518.726 75.8527 518.92 84.0556 523.742 85.8688C528.564 87.682 534.319 81.1356 536.593 76.0559C538.867 70.9763 537.477 66.5585 532.657 64.7453C527.837 62.9302 523.276 65.6935 521 70.7731Z" fill="#BB7353"/>
<path d="M537.321 51.1874C537.321 72.7309 519.335 90.1971 497.147 90.1971C474.959 90.1971 454.619 71.8543 454.619 50.3089C454.619 28.7654 474.959 12.1797 497.147 12.1797C519.335 12.1778 537.321 29.642 537.321 51.1874Z" fill="#3A3450"/>
<path d="M482.077 98.6819L476.967 147.365H507.245L502.017 98.1807L482.077 98.6819Z" fill="#F8A27D"/>
<path d="M481.396 104.683L504.923 125.512L502.354 101.023L481.396 104.683Z" fill="#BB7353"/>
<path d="M497.649 16.7402C478.861 16.7402 462.268 31.2728 462.268 49.2015L463.349 70.7159C463.349 70.7159 463.738 101.217 492.689 110.498C495.898 111.525 499.398 111.525 502.607 110.498C531.56 101.219 531.947 70.7159 531.947 70.7159L533.028 49.2015C533.032 31.2728 516.439 16.7402 497.649 16.7402Z" fill="#F8A27D"/>
<path d="M504.977 75.501L505.8 80.4955L502.131 80.5361" stroke="#BB7353" stroke-width="0.4819" stroke-miterlimit="10" stroke-linecap="round" stroke-linejoin="round"/>
<path d="M483.004 43.2372C483.004 43.2372 476.989 44.0074 474.073 45.8283C472.277 46.9487 472.324 49.0135 474.493 49.7353C476.482 50.3991 480.767 49.9636 483.313 49.6753C489.548 48.9671 493.683 46.6488 493.281 44.7234C492.764 42.2426 486.282 42.6451 483.004 43.2372Z" fill="#3A3450"/>
<path d="M519.269 43.2372C519.269 43.2372 524.947 44.0074 527.698 45.8283C529.393 46.9487 529.349 49.0135 527.302 49.7353C525.423 50.3991 521.38 49.9636 518.977 49.6753C513.092 48.9671 509.189 46.6488 509.568 44.7234C510.058 42.2426 516.177 42.6451 519.269 43.2372Z" fill="#3A3450"/>
<path d="M492.932 86.4883C492.932 86.4883 493.891 94.1164 501.386 94.1164C508.815 94.1164 509.841 86.4883 509.841 86.4883H492.932Z" fill="#DE5A62"/>
<path d="M509.837 86.4889C509.837 86.4889 502.294 82.64 492.928 86.4889C492.928 86.4889 502.199 89.5174 509.837 86.4889Z" fill="#DE5A62"/>
<path d="M492.932 86.4365H509.841C509.841 86.4365 509.266 91.8742 501.386 91.8742C494.397 91.8742 492.932 86.4365 492.932 86.4365Z" fill="white"/>
<path d="M519.223 15.5429C519.223 15.5429 517.571 32.5505 498.398 35.246C478.848 37.9958 483.086 49.4168 459.342 46.6767C459.342 46.6767 450.76 34.2514 463.485 21.4236C471.906 12.9344 488.361 5.85384 500.145 7.03812C504.112 7.43675 513.521 14.3992 519.223 15.5429Z" fill="#3A3450"/>
<path d="M516.73 16.7402C516.73 16.7402 504.558 28.9914 538.295 51.1869C538.295 51.1869 539.765 44.2128 536.116 37.0704C532.47 29.9279 516.73 16.7402 516.73 16.7402Z" fill="#3A3450"/>
<path d="M486 63.9988C486 67.3124 484.658 69.9977 483.002 70C481.344 70 480 67.3147 480 64.0011C479.998 60.6876 481.342 58 482.998 58C484.656 57.9977 486 60.6853 486 63.9988Z" fill="#3A3450"/>
<path d="M514 63.9988C514 67.3124 515.34 69.9977 516.997 70C518.655 70 520 67.3147 520 64.0011C520.002 60.6876 518.658 58 517.001 58C515.342 57.9977 514 60.6853 514 63.9988Z" fill="#3A3450"/>
<path d="M573.838 179.564C571.905 170.153 565.417 162.848 557.148 159.466C556.633 159.151 556.089 158.876 555.499 158.667L491.308 135.264L432.806 158.932C431.881 159.249 430.978 159.617 430.095 160.029L430.006 160.066C429.964 160.083 429.929 160.11 429.886 160.128C422.31 163.741 416.443 170.709 414.624 179.564L413.467 185.195C413.467 185.195 465.632 194.452 497 194.5C528.937 194.548 574.997 185.195 574.997 185.195L573.838 179.564Z" fill="#AAD5D7"/>
<path d="M449.357 152.234L492.106 134.84L528.906 148.893C528.906 148.893 539.589 169.776 506.683 172.485C465.446 175.879 449.357 152.234 449.357 152.234Z" fill="#F8A27D"/>
<path d="M53.94 104.34H48.38L47.46 107H44.52L49.54 93.02H52.8L57.82 107H54.86L53.94 104.34ZM53.18 102.1L51.16 96.26L49.14 102.1H53.18ZM61.1164 94.6C60.6097 94.6 60.1897 94.4467 59.8564 94.14C59.5364 93.82 59.3764 93.4267 59.3764 92.96C59.3764 92.4933 59.5364 92.1067 59.8564 91.8C60.1897 91.48 60.6097 91.32 61.1164 91.32C61.6097 91.32 62.0164 91.48 62.3364 91.8C62.6564 92.1067 62.8164 92.4933 62.8164 92.96C62.8164 93.4267 62.6564 93.82 62.3364 94.14C62.0164 94.4467 61.6097 94.6 61.1164 94.6ZM62.4964 108.82C62.4964 110.047 62.1897 110.927 61.5764 111.46C60.9764 112.007 60.1097 112.28 58.9764 112.28H57.7364V109.9H58.5364C58.9631 109.9 59.2631 109.813 59.4364 109.64C59.6097 109.48 59.6964 109.213 59.6964 108.84V95.92H62.4964V108.82ZM64.5428 101.42C64.5428 100.3 64.7628 99.3067 65.2028 98.44C65.6561 97.5733 66.2628 96.9067 67.0228 96.44C67.7961 95.9733 68.6561 95.74 69.6028 95.74C70.4295 95.74 71.1495 95.9067 71.7628 96.24C72.3895 96.5733 72.8895 96.9933 73.2628 97.5V95.92H76.0828V107H73.2628V105.38C72.9028 105.9 72.4028 106.333 71.7628 106.68C71.1361 107.013 70.4095 107.18 69.5828 107.18C68.6495 107.18 67.7961 106.94 67.0228 106.46C66.2628 105.98 65.6561 105.307 65.2028 104.44C64.7628 103.56 64.5428 102.553 64.5428 101.42ZM73.2628 101.46C73.2628 100.78 73.1295 100.2 72.8628 99.72C72.5961 99.2267 72.2361 98.8533 71.7828 98.6C71.3295 98.3333 70.8428 98.2 70.3228 98.2C69.8028 98.2 69.3228 98.3267 68.8828 98.58C68.4428 98.8333 68.0828 99.2067 67.8028 99.7C67.5361 100.18 67.4028 100.753 67.4028 101.42C67.4028 102.087 67.5361 102.673 67.8028 103.18C68.0828 103.673 68.4428 104.053 68.8828 104.32C69.3361 104.587 69.8161 104.72 70.3228 104.72C70.8428 104.72 71.3295 104.593 71.7828 104.34C72.2361 104.073 72.5961 103.7 72.8628 103.22C73.1295 102.727 73.2628 102.14 73.2628 101.46ZM89.4175 95.92L82.5575 112.24H79.5775L81.9775 106.72L77.5375 95.92H80.6775L83.5375 103.66L86.4375 95.92H89.4175Z" fill="#A084C5"/>
<path d="M603.6 93.04V107H600.8V97.92L597.06 107H594.94L591.18 97.92V107H588.38V93.04H591.56L596 103.42L600.44 93.04H603.6ZM605.648 101.42C605.648 100.3 605.868 99.3067 606.308 98.44C606.762 97.5733 607.368 96.9067 608.128 96.44C608.902 95.9733 609.762 95.74 610.708 95.74C611.535 95.74 612.255 95.9067 612.868 96.24C613.495 96.5733 613.995 96.9933 614.368 97.5V95.92H617.188V107H614.368V105.38C614.008 105.9 613.508 106.333 612.868 106.68C612.242 107.013 611.515 107.18 610.688 107.18C609.755 107.18 608.902 106.94 608.128 106.46C607.368 105.98 606.762 105.307 606.308 104.44C605.868 103.56 605.648 102.553 605.648 101.42ZM614.368 101.46C614.368 100.78 614.235 100.2 613.968 99.72C613.702 99.2267 613.342 98.8533 612.888 98.6C612.435 98.3333 611.948 98.2 611.428 98.2C610.908 98.2 610.428 98.3267 609.988 98.58C609.548 98.8333 609.188 99.2067 608.908 99.7C608.642 100.18 608.508 100.753 608.508 101.42C608.508 102.087 608.642 102.673 608.908 103.18C609.188 103.673 609.548 104.053 609.988 104.32C610.442 104.587 610.922 104.72 611.428 104.72C611.948 104.72 612.435 104.593 612.888 104.34C613.342 104.073 613.702 103.7 613.968 103.22C614.235 102.727 614.368 102.14 614.368 101.46ZM626.063 95.76C627.383 95.76 628.45 96.18 629.263 97.02C630.076 97.8467 630.483 99.0067 630.483 100.5V107H627.683V100.88C627.683 100 627.463 99.3267 627.023 98.86C626.583 98.38 625.983 98.14 625.223 98.14C624.45 98.14 623.836 98.38 623.383 98.86C622.943 99.3267 622.723 100 622.723 100.88V107H619.923V95.92H622.723V97.3C623.096 96.82 623.57 96.4467 624.143 96.18C624.73 95.9 625.37 95.76 626.063 95.76ZM643.746 95.92L636.886 112.24H633.906L636.306 106.72L631.866 95.92H635.006L637.866 103.66L640.766 95.92H643.746ZM644.535 101.42C644.535 100.3 644.755 99.3067 645.195 98.44C645.648 97.5733 646.255 96.9067 647.015 96.44C647.788 95.9733 648.648 95.74 649.595 95.74C650.422 95.74 651.142 95.9067 651.755 96.24C652.382 96.5733 652.882 96.9933 653.255 97.5V95.92H656.075V107H653.255V105.38C652.895 105.9 652.395 106.333 651.755 106.68C651.128 107.013 650.402 107.18 649.575 107.18C648.642 107.18 647.788 106.94 647.015 106.46C646.255 105.98 645.648 105.307 645.195 104.44C644.755 103.56 644.535 102.553 644.535 101.42ZM653.255 101.46C653.255 100.78 653.122 100.2 652.855 99.72C652.588 99.2267 652.228 98.8533 651.775 98.6C651.322 98.3333 650.835 98.2 650.315 98.2C649.795 98.2 649.315 98.3267 648.875 98.58C648.435 98.8333 648.075 99.2067 647.795 99.7C647.528 100.18 647.395 100.753 647.395 101.42C647.395 102.087 647.528 102.673 647.795 103.18C648.075 103.673 648.435 104.053 648.875 104.32C649.328 104.587 649.808 104.72 650.315 104.72C650.835 104.72 651.322 104.593 651.775 104.34C652.228 104.073 652.588 103.7 652.855 103.22C653.122 102.727 653.255 102.14 653.255 101.46Z" fill="#A084C5"/>
</g>
<defs>
<clipPath id="clip0_763_708">
<rect width="689" height="194" fill="white"/>
</clipPath>
</defs>
</svg>
