<svg width="55" height="55" viewBox="0 0 55 55" fill="none" xmlns="http://www.w3.org/2000/svg">
<path d="M54.5827 24.7914C54.5902 22.8825 54.0933 21.0054 53.1421 19.3503C52.1909 17.6952 50.8192 16.3209 49.166 15.3664C49.2068 14.8978 49.2068 14.4266 49.166 13.9581C49.166 11.8032 48.31 9.73655 46.7862 8.21282C45.2625 6.68908 43.1959 5.83306 41.041 5.83306H40.5535C40.1025 4.58266 39.3516 3.462 38.3666 2.56937C37.3817 1.67674 36.1928 1.0394 34.9041 0.713237C33.6155 0.387073 32.2666 0.382047 30.9755 0.698603C29.6845 1.01516 28.4909 1.64363 27.4993 2.52889C26.5078 1.64363 25.3141 1.01516 24.0231 0.698603C22.7321 0.382047 21.3831 0.387073 20.0945 0.713237C18.8059 1.0394 17.617 1.67674 16.632 2.56937C15.6471 3.462 14.8962 4.58266 14.4452 5.83306H13.9577C11.8028 5.83306 9.73615 6.68908 8.21242 8.21282C6.68868 9.73655 5.83266 11.8032 5.83266 13.9581C5.7919 14.4266 5.7919 14.8978 5.83266 15.3664C4.29557 16.2352 2.99414 17.4666 2.04164 18.9532C1.08915 20.4399 0.514464 22.1369 0.367615 23.8964C0.220765 25.6559 0.506203 27.4247 1.19908 29.0487C1.89196 30.6727 2.97128 32.1027 4.34308 33.2143C3.45548 34.8698 3.0136 36.7277 3.0608 38.6055C3.10801 40.4834 3.64268 42.3167 4.61235 43.9255C5.58201 45.5343 6.95333 46.8634 8.59172 47.7822C10.2301 48.701 12.0793 49.178 13.9577 49.1664H14.4452C14.8962 50.4168 15.6471 51.5374 16.632 52.4301C17.617 53.3227 18.8059 53.9601 20.0945 54.2862C21.3831 54.6124 22.7321 54.6174 24.0231 54.3008C25.3141 53.9843 26.5078 53.3558 27.4993 52.4706C28.4909 53.3558 29.6845 53.9843 30.9755 54.3008C32.2666 54.6174 33.6155 54.6124 34.9041 54.2862C36.1928 53.9601 37.3817 53.3227 38.3666 52.4301C39.3516 51.5374 40.1025 50.4168 40.5535 49.1664H41.041C42.9079 49.1546 44.7401 48.6605 46.3599 47.7321C47.9796 46.8037 49.3319 45.4724 50.2857 43.8674C51.2394 42.2624 51.7621 40.4382 51.8032 38.5717C51.8443 36.7052 51.4023 34.8597 50.5202 33.2143C51.7834 32.2029 52.804 30.9213 53.507 29.4638C54.2101 28.0062 54.5776 26.4096 54.5827 24.7914ZM24.791 18.156C24.2011 17.8186 23.5853 17.5288 22.9493 17.2893C22.2669 17.0595 21.5212 17.1101 20.8762 17.4301C20.2311 17.7501 19.7396 18.3132 19.5097 18.9956C19.2799 19.6779 19.3305 20.4237 19.6505 21.0687C19.9705 21.7138 20.5336 22.2053 21.216 22.4351C22.2585 22.812 23.1603 23.4998 23.7997 24.4054C24.439 25.3111 24.785 26.3912 24.791 27.4997V31.6976C24.2011 31.3603 23.5853 31.0705 22.9493 30.831C22.2669 30.6011 21.5212 30.6518 20.8762 30.9717C20.2311 31.2917 19.7396 31.8548 19.5097 32.5372C19.2799 33.2196 19.3305 33.9653 19.6505 34.6104C19.9705 35.2554 20.5336 35.747 21.216 35.9768C22.2585 36.3537 23.1603 37.0414 23.7997 37.9471C24.439 38.8528 24.785 39.9328 24.791 41.0414V46.4581C24.791 47.1764 24.5057 47.8652 23.9977 48.3731C23.4898 48.8811 22.801 49.1664 22.0827 49.1664C21.5587 49.163 21.047 49.0076 20.6095 48.7192C20.1721 48.4308 19.8277 48.0216 19.6181 47.5414C20.0722 47.2749 20.5066 46.9762 20.9181 46.6476C21.1919 46.42 21.4183 46.1407 21.5842 45.8256C21.7501 45.5105 21.8523 45.1658 21.885 44.8112C21.9177 44.4566 21.8802 44.099 21.7747 43.7589C21.6692 43.4188 21.4978 43.1028 21.2702 42.8289C21.0425 42.555 20.7632 42.3287 20.4481 42.1628C20.133 41.9969 19.7883 41.8946 19.4337 41.862C19.0791 41.8293 18.7215 41.8667 18.3814 41.9722C18.0413 42.0777 17.7253 42.2492 17.4514 42.4768C16.4735 43.3001 15.236 43.751 13.9577 43.7497C12.5211 43.7497 11.1433 43.179 10.1275 42.1632C9.11168 41.1474 8.54099 39.7696 8.54099 38.3331C8.55395 37.3136 8.85436 36.3185 9.40766 35.4622C10.0155 35.5712 10.6318 35.6256 11.2493 35.6247C11.9676 35.6247 12.6565 35.3394 13.1644 34.8315C13.6723 34.3236 13.9577 33.6347 13.9577 32.9164C13.9577 32.1981 13.6723 31.5092 13.1644 31.0013C12.6565 30.4934 11.9676 30.2081 11.2493 30.2081C10.6096 30.2117 9.97512 30.0922 9.38058 29.856C8.40651 29.5047 7.55355 28.8815 6.92274 28.0604C6.29193 27.2392 5.90971 26.2544 5.82136 25.2227C5.73301 24.191 5.94223 23.1556 6.42424 22.2392C6.90625 21.3227 7.64084 20.5636 8.54099 20.0518C8.92584 20.4059 9.34293 20.7232 9.78683 20.9997C10.4117 21.3589 11.1537 21.4551 11.8496 21.2671C12.5454 21.0792 13.1381 20.6226 13.4972 19.9976C13.8564 19.3727 13.9526 18.6307 13.7647 17.9349C13.5767 17.2391 13.1201 16.6464 12.4952 16.2872C12.1139 16.0769 11.7959 15.7683 11.5743 15.3935C11.3239 14.9586 11.2107 14.4583 11.2493 13.9581C11.2493 13.2398 11.5347 12.5509 12.0426 12.043C12.5505 11.5351 13.2394 11.2497 13.9577 11.2497C14.1463 11.2234 14.3377 11.2234 14.5264 11.2497C14.6698 11.6849 14.8417 12.1101 15.041 12.5226C15.2179 12.833 15.4545 13.1053 15.7371 13.3238C16.0197 13.5423 16.3428 13.7027 16.6877 13.7959C17.0325 13.889 17.3924 13.913 17.7466 13.8665C18.1008 13.8199 18.4423 13.7038 18.7514 13.5247C19.3519 13.1635 19.7889 12.5835 19.9707 11.9068C20.1525 11.23 20.065 10.5091 19.7264 9.89556C19.4992 9.48012 19.3782 9.01491 19.3743 8.54139C19.3743 7.8231 19.6597 7.13422 20.1676 6.62631C20.6755 6.1184 21.3644 5.83306 22.0827 5.83306C22.801 5.83306 23.4898 6.1184 23.9977 6.62631C24.5057 7.13422 24.791 7.8231 24.791 8.54139V18.156ZM45.6181 29.856C45.0235 30.0922 44.3891 30.2117 43.7493 30.2081C43.031 30.2081 42.3422 30.4934 41.8342 31.0013C41.3263 31.5092 41.041 32.1981 41.041 32.9164C41.041 33.6347 41.3263 34.3236 41.8342 34.8315C42.3422 35.3394 43.031 35.6247 43.7493 35.6247C44.3668 35.6256 44.9832 35.5712 45.591 35.4622C46.1443 36.3185 46.4447 37.3136 46.4577 38.3331C46.4577 39.7696 45.887 41.1474 44.8712 42.1632C43.8553 43.179 42.4776 43.7497 41.041 43.7497C39.7627 43.751 38.5251 43.3001 37.5472 42.4768C36.9942 42.0171 36.2811 41.7959 35.5649 41.862C34.8488 41.928 34.1882 42.2758 33.7285 42.8289C33.2688 43.382 33.0476 44.095 33.1136 44.8112C33.1797 45.5273 33.5275 46.1879 34.0806 46.6476C34.492 46.9762 34.9265 47.2749 35.3806 47.5414C35.171 48.0216 34.8266 48.4308 34.3891 48.7192C33.9517 49.0076 33.44 49.163 32.916 49.1664C32.1977 49.1664 31.5088 48.8811 31.0009 48.3731C30.493 47.8652 30.2077 47.1764 30.2077 46.4581V41.0414C30.2137 39.9328 30.5597 38.8528 31.199 37.9471C31.8383 37.0414 32.7401 36.3537 33.7827 35.9768C34.465 35.747 35.0282 35.2554 35.3481 34.6104C35.6681 33.9653 35.7188 33.2196 35.4889 32.5372C35.2591 31.8548 34.7675 31.2917 34.1225 30.9717C33.4774 30.6518 32.7317 30.6011 32.0493 30.831C31.4134 31.0705 30.7975 31.3603 30.2077 31.6976V27.4997C30.2137 26.3912 30.5597 25.3111 31.199 24.4054C31.8383 23.4998 32.7401 22.812 33.7827 22.4351C34.1205 22.3213 34.4327 22.1421 34.7013 21.9076C34.9699 21.6732 35.1897 21.3881 35.3481 21.0687C35.5066 20.7493 35.6006 20.4019 35.6247 20.0461C35.6489 19.6904 35.6027 19.3334 35.4889 18.9956C35.3751 18.6577 35.1959 18.3455 34.9614 18.0769C34.727 17.8083 34.4419 17.5885 34.1225 17.4301C33.8031 17.2716 33.4556 17.1777 33.0999 17.1535C32.7442 17.1293 32.3872 17.1755 32.0493 17.2893C31.4134 17.5288 30.7975 17.8186 30.2077 18.156V8.54139C30.2077 7.8231 30.493 7.13422 31.0009 6.62631C31.5088 6.1184 32.1977 5.83306 32.916 5.83306C33.6343 5.83306 34.3232 6.1184 34.8311 6.62631C35.339 7.13422 35.6243 7.8231 35.6243 8.54139C35.6204 9.01491 35.4995 9.48012 35.2722 9.89556C35.0921 10.2031 34.9743 10.5431 34.9258 10.8962C34.8773 11.2493 34.8989 11.6085 34.9895 11.9532C35.0801 12.2979 35.2378 12.6213 35.4537 12.9049C35.6695 13.1885 35.9392 13.4268 36.2472 13.606C36.5564 13.785 36.8978 13.9012 37.252 13.9477C37.6062 13.9943 37.9661 13.9703 38.311 13.8771C38.6559 13.784 38.9789 13.6235 39.2615 13.405C39.5441 13.1865 39.7807 12.9142 39.9577 12.6039C40.1604 12.165 40.3323 11.7125 40.4722 11.2497C40.6609 11.2234 40.8523 11.2234 41.041 11.2497C41.7593 11.2497 42.4482 11.5351 42.9561 12.043C43.464 12.5509 43.7493 13.2398 43.7493 13.9581C43.7452 14.489 43.5851 15.007 43.2889 15.4476C43.0674 15.7991 42.7598 16.0881 42.3952 16.2872C41.7702 16.6464 41.3136 17.2391 41.1257 17.9349C40.9377 18.6307 41.0339 19.3727 41.3931 19.9976C41.7522 20.6226 42.3449 21.0792 43.0407 21.2671C43.7366 21.4551 44.4786 21.3589 45.1035 20.9997C45.5898 20.7368 46.0441 20.4187 46.4577 20.0518C47.3609 20.5546 48.1014 21.3053 48.5917 22.2153C49.0821 23.1254 49.3018 24.1567 49.2249 25.1876C49.148 26.2184 48.7777 27.2058 48.1578 28.033C47.5379 28.8602 46.6942 29.4928 45.7264 29.856H45.6181Z" fill="#8893CA"/>
</svg>
