<svg width="22" height="16" viewBox="0 0 22 16" fill="none" xmlns="http://www.w3.org/2000/svg">
<g clip-path="url(#clip0_1247_623)">
<path d="M5.00002 15.9208V7.72101L2.36388 5.39454L0 4.10352V14.4738C0 15.2744 0.672461 15.9208 1.50004 15.9208H5.00002Z" fill="#4285F4"/>
<path d="M17 15.9217H20.5C21.33 15.9217 22 15.2729 22 14.4746V4.10449L19.3225 5.58321L17 7.7219V15.9217Z" fill="#34A853"/>
<path d="M5.0003 7.72151L4.6416 4.51762L5.0003 1.45117L11.0003 5.79223L17.0003 1.45117L17.4015 4.35206L17.0003 7.72151L11.0003 12.0626L5.0003 7.72151Z" fill="#EA4335"/>
<path d="M17 1.45108V7.72143L22 4.10393V2.17457C22 0.385135 19.8825 -0.634969 18.4001 0.438192L17 1.45108Z" fill="#FBBC04"/>
<path d="M0 4.10397L2.2996 5.76781L5.00002 7.72146V1.45112L3.59992 0.43823C2.11492 -0.635014 0 0.385173 0 2.17452V4.10389V4.10397Z" fill="#C5221F"/>
</g>
<defs>
<clipPath id="clip0_1247_623">
<rect width="22" height="16" fill="white"/>
</clipPath>
</defs>
</svg>
